<?xml version="1.0" encoding="utf-8"?>
<!-- Generator: Adobe Illustrator 24.1.2, SVG Export Plug-In . SVG Version: 6.00 Build 0)  -->
<svg version="1.1" id="Capa_1" xmlns="http://www.w3.org/2000/svg" xmlns:xlink="http://www.w3.org/1999/xlink" x="0px" y="0px"
	 viewBox="0 0 892.6 758.6" style="enable-background:new 0 0 892.6 758.6;" xml:space="preserve">
<style type="text/css">
	.st0{fill:#EA112B;stroke:#FFFFFF;stroke-width:2;}
	.st1{fill:#FFFFFF;}
	.st2{font-family:'MuseoSans-700';}
	.st3{font-size:20px;}
	.st4{fill:none;stroke:#000000;stroke-width:3;stroke-miterlimit:10;}
</style>
<g id="CIRCULOS">
	<path class="st0" d="M621,125.1c-4,0-7.4,3.3-7.4,7.5c0,4.1,3.4,7.5,7.4,7.5c4.2,0,7.6-3.4,7.6-7.5
		C628.6,128.4,625.2,125.1,621,125.1"/>
	<path class="st0" d="M637.9,296.4c-4.1,0-7.5,3.3-7.5,7.5c0,4.1,3.4,7.5,7.5,7.5s7.5-3.4,7.5-7.5
		C645.4,299.7,642,296.4,637.9,296.4"/>
	<path class="st0" d="M548.8,439.3c-4.1,0-7.5,3.3-7.5,7.5c0,4.1,3.4,7.5,7.5,7.5s7.5-3.4,7.5-7.5
		C556.3,442.6,552.9,439.3,548.8,439.3"/>
	<path class="st0" d="M498.9,506.5c-4.1,0-7.5,3.3-7.5,7.5c0,4.1,3.4,7.5,7.5,7.5s7.5-3.4,7.5-7.5
		C506.4,509.9,503,506.5,498.9,506.5"/>
	<path class="st0" d="M467.7,495.9c-4.1,0-7.5,3.3-7.5,7.5c0,4.1,3.4,7.5,7.5,7.5s7.5-3.4,7.5-7.5
		C475.2,499.2,471.8,495.9,467.7,495.9"/>
	<path class="st0" d="M392.9,504.2c-4.1,0-7.5,3.3-7.5,7.5c0,4.1,3.4,7.5,7.5,7.5s7.5-3.4,7.5-7.5
		C400.3,507.5,396.9,504.2,392.9,504.2"/>
	<path class="st0" d="M411.8,509.6c-4,0-7.4,3.3-7.4,7.5c0,4.1,3.4,7.5,7.4,7.5c4.2,0,7.6-3.4,7.6-7.5
		C419.2,512.9,416,509.6,411.8,509.6"/>
	<path class="st0" d="M232.7,568c-4,0-7.4,3.4-7.4,7.5c0,4.2,3.4,7.5,7.4,7.5c4.2,0,7.6-3.3,7.6-7.5
		C240.3,571.4,236.9,568,232.7,568"/>
	<path class="st0" d="M249.8,599c-4.1,0-7.4,3.3-7.4,7.5c0,4.1,3.3,7.5,7.4,7.5c4.2,0,7.6-3.4,7.6-7.5
		C257.4,602.3,254,599,249.8,599"/>
	<path class="st0" d="M275.7,584.5c-4.1,0-7.5,3.3-7.5,7.5c0,4.1,3.4,7.5,7.5,7.5s7.5-3.4,7.5-7.5S279.8,584.5,275.7,584.5"/>
	<path class="st0" d="M556.1,468.3c-4.1,0-7.5,3.3-7.5,7.5c0,4.1,3.4,7.5,7.5,7.5s7.5-3.4,7.5-7.5S560.2,468.3,556.1,468.3"/>
	<path class="st0" d="M553.3,462.4c-4.1,0-7.5,2.9-7.5,6.7c0,3.7,3.4,6.7,7.5,6.7s7.5-2.9,7.5-6.7S557.4,462.4,553.3,462.4"/>
</g>
<g id="TEXTOS">
	<text transform="matrix(1 0 0 1 692.6078 299.4576)" class="st1 st2 st3">Kamaishi Recovery</text>
	<text transform="matrix(1 0 0 1 692.6078 319.4576)" class="st1 st2 st3">Memorial Stadium</text>
	<text transform="matrix(0.9999 -1.545596e-02 1.545596e-02 0.9999 426.4318 273.2664)" class="st1 st2 st3">Kumagaya</text>
	<text transform="matrix(0.9999 -1.545596e-02 1.545596e-02 0.9999 406.5197 293.8517)" class="st1 st2 st3"> Rugby Stadium</text>
	<text transform="matrix(1 0 0 1 639.3086 471.6364)" class="st1 st2 st3">Tokyo Stadium</text>
	<text transform="matrix(1 0 0 1 649.4434 551.5486)" class="st1 st2 st3">International </text>
	<text transform="matrix(1 0 0 1 645.9248 574.1875)" class="st1 st2 st3">Stadium Yokohama</text>
	<text transform="matrix(1 0 0 1 234.9388 420.7086)" class="st1 st2 st3">Kobe Misaki</text>
	<text transform="matrix(1 0 0 1 257.1889 440.7086)" class="st1 st2 st3">Stadium</text>
	<text transform="matrix(1 0 0 1 393.5288 343.7235)" class="st1 st2 st3">City of Toyota</text>
	<text transform="matrix(1 0 0 1 421.9679 363.7235)" class="st1 st2 st3">Stadium</text>
	<text transform="matrix(1 0 0 1 44.5158 513.5851)" class="st1 st2 st3">Fukuoka</text>
	<text transform="matrix(1 0 0 1 15.2167 533.5851)" class="st1 st2 st3">Hakatanomori</text>
	<text transform="matrix(1 0 0 1 44.5156 553.5851)" class="st1 st2 st3">Stadium</text>
	<text transform="matrix(1 0 0 1 98.7066 661.6238)" class="st1 st2 st3">Kumamoto</text>
	<text transform="matrix(1 0 0 1 110.6659 681.6238)" class="st1 st2 st3">Stadium</text>
	<text transform="matrix(1 0 0 1 386.9643 132.1322)" class="st1 st2 st3">Sapporo Dome</text>
	<text transform="matrix(1 0 0 1 272.5984 709.7813)" class="st1 st2 st3">Oita Stadium</text>
	<text transform="matrix(1 0 0 1 351.4681 603.1462)" class="st1 st2 st3">Hanazono</text>
	<text transform="matrix(1 0 0 1 372.9378 622.7615)" class="st1 st2 st3">Rugby</text>
	<text transform="matrix(1 0 0 1 362.5982 643.1462)" class="st1 st2 st3">Stadium</text>
	<text transform="matrix(1 0 0 1 477.3674 594.2675)" class="st1 st2 st3">Shizuoka </text>
	<text transform="matrix(1 0 0 1 477.3674 614.2675)" class="st1 st2 st3">Stadium</text>
</g>
<g id="LINEAS">
	<rect x="559" y="468.9" class="st4" width="64.1" height="1.3"/>
	<rect x="638.7" y="304.2" class="st4" width="51.9" height="0.6"/>
	
		<rect x="178.3" y="520.6" transform="matrix(0.1704 -0.9854 0.9854 0.1704 -407.1236 644.0268)" class="st4" width="1.3" height="86.4"/>
	<rect x="538.5" y="130.8" class="st4" width="75.3" height="1.3"/>
	<polygon class="st4" points="283.2,597.3 305,688.8 303.8,689.1 282,597.6 	"/>
	<g>
		<polygon class="st4" points="466.3,374.6 466.7,499.3 465.3,499.3 465,374.6 		"/>
	</g>
	<g>
		<polygon class="st4" points="413.9,519.6 414.3,589.1 413,589.1 412.6,519.6 		"/>
	</g>
	<g>
		<line x1="418" y1="413.2" x2="418" y2="414.5"/>
	</g>
	<path class="st4" d="M244.3,604.2c-38.1-6.1-78.1,13.2-89.3,43.2l-2.3,0.3c11.6-31.1,53.2-51.2,92.6-44.8L244.3,604.2z"/>
	<path class="st4" d="M558.1,481.1c13.1,54.4,54.6,65.1,80.5,67.5l-0.2,1.8c-26.9-2.4-69.6-13.1-82.1-69.2L558.1,481.1z"/>
	<path class="st4" d="M395.4,503c4.3-34.6-19.7-66.3-53.5-70.6l0.3-2.4c35.2,4.6,60.1,37.3,55.6,73.2L395.4,503z"/>
	<g>
		<polygon class="st4" points="536.3,302.7 549.6,441 548.3,441.2 535,302.9 		"/>
	</g>
	<g>
		<polygon class="st4" points="504,524.6 504.4,571.4 503.1,571.4 502.7,524.6 		"/>
	</g>
</g>
</svg>
