<?xml version="1.0" encoding="utf-8"?>
<!-- Generator: Adobe Illustrator 24.1.2, SVG Export Plug-In . SVG Version: 6.00 Build 0)  -->
<svg version="1.1" id="Layer_1" xmlns="http://www.w3.org/2000/svg" xmlns:xlink="http://www.w3.org/1999/xlink" x="0px" y="0px"
	 viewBox="0 0 425 211.5" style="enable-background:new 0 0 425 211.5;" xml:space="preserve">
<style type="text/css">
	.st0{fill:#24B865;}
	.st1{fill:#FFFFFF;}
	.st2{font-family:'Roboto-Bold';}
	.st3{font-size:12px;}
	.st4{clip-path:url(#SVGID_3_);}
	.st5{fill:none;stroke:#FFFFFF;stroke-width:0.75;stroke-linecap:round;stroke-linejoin:round;stroke-miterlimit:10;}
	.st6{clip-path:url(#SVGID_5_);fill:none;}
	.st7{fill:#FFFFFF;stroke:#24B865;stroke-width:0.3;stroke-linecap:round;stroke-linejoin:round;}
	.st8{clip-path:url(#SVGID_7_);fill:none;}
	.st9{fill:#FFFFFF;stroke:#24B865;stroke-width:0.3;stroke-linecap:round;}
	.st10{clip-path:url(#SVGID_9_);fill:none;}
	.st11{fill:none;stroke:#FFFFFF;stroke-width:0.5;stroke-miterlimit:10;}
	.st12{fill:#FFFFFF;stroke:#FFFFFF;stroke-width:0.5;stroke-linecap:round;stroke-linejoin:round;}
	
		.st13{fill-rule:evenodd;clip-rule:evenodd;fill:#24B865;stroke:#FFFFFF;stroke-width:0.3;stroke-linecap:round;stroke-linejoin:round;}
	.st14{fill:none;stroke:#FFFFFF;stroke-width:0.3;stroke-linecap:round;stroke-linejoin:round;}
	.st15{fill:#CC0000;}
	.st16{fill:none;stroke:#FFFFFF;stroke-width:0.75;stroke-linecap:round;stroke-linejoin:round;}
	.st17{fill:#FFFFFF;stroke:#FFFFFF;stroke-width:4.077249e-02;stroke-linecap:round;stroke-linejoin:round;stroke-miterlimit:10;}
	.st18{fill:none;stroke:#FFFFFF;stroke-width:4.077249e-02;stroke-linecap:round;stroke-linejoin:round;stroke-miterlimit:10;}
	.st19{fill:none;stroke:#FFFFFF;stroke-width:1.630452e-02;stroke-miterlimit:10;}
	.st20{fill:#FFFFFF;stroke:#FFFFFF;stroke-width:0.75;stroke-linecap:round;stroke-linejoin:round;}
	.st21{fill-rule:evenodd;clip-rule:evenodd;fill:#24B865;}
	.st22{fill:none;stroke:#646464;stroke-width:1.5041;}
	.st23{fill:#24B865;stroke:#FFFFFF;stroke-width:0.75;stroke-linecap:round;stroke-linejoin:round;}
	.st24{fill:none;stroke:#FFFFFF;stroke-width:1.25;stroke-linecap:round;stroke-linejoin:round;stroke-miterlimit:10;}
</style>
<rect x="-0.1" y="-0.6" class="st0" width="425.3" height="211.7"/>
<text transform="matrix(1 0 0 1 250.7026 166.9266)" class="st1 st2 st3">COACH:</text>
<text transform="matrix(1 0 0 1 220.2026 181.3266)" class="st1 st2 st3">JOE SCHMIDT (NZ)</text>
<text transform="matrix(1 0 0 1 109.125 166.9274)" class="st1 st2 st3">IRELAND</text>
<g>
	<g>
		<path id="SVGID_1_" class="st0" d="M182.5,62.1c0,0,9.1,76.1-49,88.5c-58-12.4-49-88.5-49-88.5s32.9-30.6,88.5-41.4
			C173,20.7,180.4,38.5,182.5,62.1z"/>
	</g>
	<g>
		<g>
			<g>
				<defs>
					<path id="SVGID_2_" d="M182.5,62.1c0,0,9.1,76.1-49,88.5c-58-12.4-49-88.5-49-88.5s32.9-30.6,88.5-41.4
						C173,20.7,180.4,38.5,182.5,62.1z"/>
				</defs>
				<clipPath id="SVGID_3_">
					<use xlink:href="#SVGID_2_"  style="overflow:visible;"/>
				</clipPath>
				<g class="st4">
					<g id="g78822" transform="translate(-544.934,251.396)">
						<path id="path7014-6-7-28-3-2-4-5-1" class="st5" d="M635.3-149.7c0.1,3.3,0.2,5.9,1.9,7.9c2,2.4,5.4,4.2,9.7,5.9
							c4.3-1.7,7.6-3.5,9.7-5.9c1.7-2,1.9-4.6,1.9-7.9c0.1-3.4,0.1-7.8,0-11.2c-3.6,2.7-9.5,1.8-11.6,0.1c-2.9,2-8.2,2.7-11.5-0.1
							C635.2-157.5,635.2-153.1,635.3-149.7L635.3-149.7z"/>
						<g id="g84776-5_1_" transform="matrix(0.156684,0,0,0.189706,-492.101,245.296)">
							<g>
								<g>
									<g>
										<g>
											<defs>
												<polygon id="SVGID_4_" points="7281.3,-2091 7274.6,-2116 7287.4,-2103.5 7290.1,-2119.6 7296.2,-2105 7301.7,-2121.8 
													7307.1,-2105 7313.2,-2119.6 7315.9,-2103.5 7328.8,-2116 7322,-2091 7322,-2078.5 7281.3,-2078.5 												"/>
											</defs>
											<clipPath id="SVGID_5_">
												<use xlink:href="#SVGID_4_"  style="overflow:visible;"/>
											</clipPath>
											<ellipse id="circle7886-1_1_" class="st6" cx="7301.7" cy="-2138.2" rx="7.5" ry="9.9"/>
										</g>
									</g>
								</g>
							</g>
							<path id="path3929-42-2-1_1_" class="st1" d="M7271.3-2112c3,5.8,6,11.6,8.9,17.4h44c3.3-5.8,5.8-11.6,9.1-17.4l-11.2,9.7
								l-1-15.4l-11.9,14.2l-6.2-15.9l-6.8,15.9l-10.9-14.2l-2.1,15.4L7271.3-2112z"/>
							<path id="path9241-03_1_" class="st1" d="M7302.3-2090.2c-7.9,0-15,1.7-20,4.2c0.4-0.3-0.2-3.2-0.7-5.4
								c-0.6-2.7-1.5-3.1-1.5-3.1c5.5-2.7,13.8-4.6,22.3-4.6c8.6,0,16.8,1.9,22.4,4.6c0,0-1.1,0.6-1.7,3.3c-0.5,2.2-0.9,5-0.5,5.3
								C7317.4-2088.5,7310.2-2090.1,7302.3-2090.2"/>
							<path id="path9243-6_1_" class="st0" d="M7302.3-2098.4c-8.6,0-16.3,1.7-21.8,4.4c-0.4,0.2-0.8-0.1-0.9-0.6
								c-0.1-0.6,0.1-1.2,0.4-1.4c5.6-2.8,13.5-4.6,22.2-4.6c8.8,0,16.7,1.8,22.3,4.6c0.4,0.2,0.6,0.8,0.4,1.4
								c-0.1,0.6-0.5,0.8-0.9,0.6C7318.6-2096.7,7310.9-2098.4,7302.3-2098.4"/>
							<path id="path9371-96_1_" class="st1" d="M7302.4-2079.5c-7.8,0-14.8-1.5-19.8-4c-0.4-0.2-0.6-0.7-0.5-1.3
								c0-0.6,0.2-1.1,0.5-1.2c5-2.5,12-4,19.8-4s14.8,1.5,19.8,4c0.4,0.2,0.5,0.7,0.5,1.2c0,0.6-0.2,1.1-0.5,1.3
								C7317.2-2081.1,7310.2-2079.6,7302.4-2079.5"/>
							<path id="path9373-9_1_" class="st0" d="M7302.3-2081.2c-7.1,0-13.4-1.4-18.3-3.4c4.9-2.1,11.2-3.3,18.3-3.4
								c7.1,0,13.5,1.3,18.3,3.4C7315.8-2082.6,7309.4-2081.2,7302.3-2081.2"/>
							<path id="path9375-6_1_" class="st7" d="M7302.4-2091.7c-1.8,0-3.3-1.1-3.3-2.5s1.5-2.5,3.3-2.5s3.3,1.1,3.3,2.5
								C7305.7-2092.9,7304.2-2091.7,7302.4-2091.7"/>
							<path id="path9379-95_1_" class="st7" d="M7323.4-2092.6c-0.1,0-0.1-0.1-0.2-0.1c-1.8-0.8-3.4-0.4-3.6,0.9
								c-0.2,1.3,1,3.1,2.7,4c0.1-0.2,0.2-0.3,0.3-0.5c0.1-0.3,0.2-0.6,0.3-0.9c0.1-0.3,0.2-0.6,0.2-0.9c0.1-0.3,0.1-0.6,0.1-0.9
								c0-0.3,0.1-0.6,0.1-0.8C7323.5-2092.1,7323.4-2092.3,7323.4-2092.6L7323.4-2092.6z"/>
							<path id="path9383-42_1_" class="st7" d="M7281.3-2092.7c1.8-0.8,3.4-0.4,3.6,0.9c0.2,1.3-1,3.1-2.7,4
								c-0.1-0.2-0.2-0.3-0.3-0.5c-0.1-0.3-0.2-0.6-0.3-0.9c-0.1-0.3-0.2-0.6-0.2-0.9c-0.1-0.3-0.1-0.6-0.1-0.9
								c0-0.3-0.1-0.6-0.1-0.8c0-0.3,0-0.5,0-0.8C7281.2-2092.6,7281.3-2092.7,7281.3-2092.7z"/>
						</g>
						<g id="g84776-5_2_" transform="matrix(0.156684,0,0,0.189706,-492.101,245.296)">
							<g>
								<g>
									<g>
										<g>
											<defs>
												<polygon id="SVGID_6_" points="7214.7,-2091 7207.9,-2116 7220.8,-2103.5 7223.5,-2119.6 7229.6,-2105 7235,-2121.8 
													7240.4,-2105 7246.5,-2119.6 7249.2,-2103.5 7262.1,-2116 7255.3,-2091 7255.3,-2078.5 7214.7,-2078.5 												"/>
											</defs>
											<clipPath id="SVGID_7_">
												<use xlink:href="#SVGID_6_"  style="overflow:visible;"/>
											</clipPath>
											<ellipse id="circle7886-1_2_" class="st8" cx="7235" cy="-2138.2" rx="7.5" ry="9.9"/>
										</g>
									</g>
								</g>
							</g>
							<path id="path3929-42-2-1_2_" class="st1" d="M7204.7-2112c3,5.8,6,11.6,8.9,17.4h44c3.3-5.8,5.8-11.6,9.1-17.4l-11.2,9.7
								l-1-15.4l-11.9,14.2l-6.2-15.9l-6.8,15.9l-10.9-14.2l-2.1,15.4L7204.7-2112z"/>
							<path id="path9241-03_2_" class="st1" d="M7235.6-2090.2c-7.9,0-15,1.7-20,4.2c0.4-0.3-0.2-3.2-0.7-5.4
								c-0.6-2.7-1.5-3.1-1.5-3.1c5.5-2.7,13.8-4.6,22.3-4.6c8.6,0,16.8,1.9,22.4,4.6c0,0-1.1,0.6-1.7,3.3c-0.5,2.2-0.9,5-0.5,5.3
								C7250.8-2088.5,7243.6-2090.1,7235.6-2090.2"/>
							<path id="path9243-6_2_" class="st0" d="M7235.7-2098.4c-8.6,0-16.3,1.7-21.8,4.4c-0.4,0.2-0.8-0.1-0.9-0.6
								c-0.1-0.6,0.1-1.2,0.4-1.4c5.6-2.8,13.5-4.6,22.2-4.6c8.8,0,16.7,1.8,22.3,4.6c0.4,0.2,0.6,0.8,0.4,1.4
								c-0.1,0.6-0.5,0.8-0.9,0.6C7252-2096.7,7244.3-2098.4,7235.7-2098.4"/>
							<path id="path9371-96_2_" class="st1" d="M7235.7-2079.5c-7.8,0-14.8-1.5-19.8-4c-0.4-0.2-0.6-0.7-0.5-1.3
								c0-0.6,0.2-1.1,0.5-1.2c5-2.5,12-4,19.8-4s14.8,1.5,19.8,4c0.4,0.2,0.5,0.7,0.5,1.2c0,0.6-0.2,1.1-0.5,1.3
								C7250.5-2081.1,7243.5-2079.6,7235.7-2079.5"/>
							<path id="path9373-9_2_" class="st0" d="M7235.7-2081.2c-7.1,0-13.4-1.4-18.3-3.4c4.9-2.1,11.2-3.3,18.3-3.4
								c7.1,0,13.5,1.3,18.3,3.4C7249.2-2082.6,7242.8-2081.2,7235.7-2081.2"/>
							<path id="path9375-6_2_" class="st9" d="M7235.7-2091.7c-1.8,0-3.3-1.1-3.3-2.5s1.5-2.5,3.3-2.5s3.3,1.1,3.3,2.5
								C7239-2092.9,7237.5-2091.7,7235.7-2091.7"/>
							<path id="path9379-95_2_" class="st9" d="M7256.8-2092.6c-0.1,0-0.1-0.1-0.2-0.1c-1.8-0.8-3.4-0.4-3.6,0.9
								c-0.2,1.3,1,3.1,2.7,4c0.1-0.2,0.2-0.3,0.3-0.5c0.1-0.3,0.2-0.6,0.3-0.9c0.1-0.3,0.2-0.6,0.2-0.9c0.1-0.3,0.1-0.6,0.1-0.9
								c0-0.3,0.1-0.6,0.1-0.8C7256.8-2092.1,7256.8-2092.3,7256.8-2092.6L7256.8-2092.6z"/>
							<path id="path9383-42_2_" class="st9" d="M7214.7-2092.7c1.8-0.8,3.4-0.4,3.6,0.9c0.2,1.3-1,3.1-2.7,4
								c-0.1-0.2-0.2-0.3-0.3-0.5c-0.1-0.3-0.2-0.6-0.3-0.9c-0.1-0.3-0.2-0.6-0.2-0.9c-0.1-0.3-0.1-0.6-0.1-0.9
								c0-0.3-0.1-0.6-0.1-0.8c0-0.3,0-0.5,0-0.8C7214.5-2092.6,7214.6-2092.7,7214.7-2092.7z"/>
						</g>
						<g id="g84776-5_3_" transform="matrix(0.156684,0,0,0.189706,-492.101,245.296)">
							<g>
								<g>
									<g>
										<g>
											<defs>
												<polygon id="SVGID_8_" points="7248,-2044.8 7241.2,-2069.7 7254.1,-2057.2 7256.8,-2073.4 7262.9,-2058.7 
													7268.3,-2075.6 7273.8,-2058.7 7279.9,-2073.4 7282.6,-2057.2 7295.4,-2069.7 7288.7,-2044.8 7288.7,-2032.3 
													7248,-2032.3 												"/>
											</defs>
											<clipPath id="SVGID_9_">
												<use xlink:href="#SVGID_8_"  style="overflow:visible;"/>
											</clipPath>
											<ellipse id="circle7886-1_3_" class="st10" cx="7268.3" cy="-2092" rx="7.5" ry="9.9"/>
										</g>
									</g>
								</g>
							</g>
							<path id="path3929-42-2-1_3_" class="st1" d="M7238-2065.8c3,5.8,6,11.6,8.9,17.4h44c3.3-5.8,5.8-11.6,9.1-17.4l-11.2,9.7
								l-1-15.4l-11.9,14.2l-6.2-15.9l-6.8,15.9l-10.9-14.2l-2.1,15.4L7238-2065.8z"/>
							<path id="path9241-03_3_" class="st1" d="M7269-2043.9c-7.9,0-15,1.7-20,4.2c0.4-0.3-0.2-3.2-0.7-5.4
								c-0.6-2.7-1.5-3.1-1.5-3.1c5.5-2.7,13.8-4.6,22.3-4.6c8.6,0,16.8,1.9,22.4,4.6c0,0-1.1,0.6-1.7,3.3c-0.5,2.2-0.9,5-0.5,5.3
								C7284.1-2042.2,7276.9-2043.9,7269-2043.9"/>
							<path id="path9243-6_3_" class="st0" d="M7269-2052.2c-8.6,0-16.3,1.7-21.8,4.4c-0.4,0.2-0.8-0.1-0.9-0.6
								c-0.1-0.6,0.1-1.2,0.4-1.4c5.6-2.8,13.5-4.6,22.2-4.6c8.8,0,16.7,1.8,22.3,4.6c0.4,0.2,0.6,0.8,0.4,1.4
								c-0.1,0.6-0.5,0.8-0.9,0.6C7285.3-2050.5,7277.6-2052.2,7269-2052.2"/>
							<path id="path9371-96_3_" class="st1" d="M7269-2033.3c-7.8,0-14.8-1.5-19.8-4c-0.4-0.2-0.6-0.7-0.5-1.3
								c0-0.6,0.2-1.1,0.5-1.2c5-2.5,12-4,19.8-4s14.8,1.5,19.8,4c0.4,0.2,0.5,0.7,0.5,1.2c0,0.6-0.2,1.1-0.5,1.3
								C7283.9-2034.8,7276.9-2033.3,7269-2033.3"/>
							<path id="path9373-9_3_" class="st0" d="M7269-2035c-7.1,0-13.4-1.4-18.3-3.4c4.9-2.1,11.2-3.3,18.3-3.4
								c7.1,0,13.5,1.3,18.3,3.4C7282.5-2036.3,7276.1-2035,7269-2035"/>
							<path id="path9375-6_3_" class="st7" d="M7269-2045.5c-1.8,0-3.3-1.1-3.3-2.5c0-1.4,1.5-2.5,3.3-2.5s3.3,1.1,3.3,2.5
								C7272.3-2046.6,7270.9-2045.5,7269-2045.5"/>
							<path id="path9379-95_3_" class="st7" d="M7290.1-2046.3c-0.1,0-0.1-0.1-0.2-0.1c-1.8-0.8-3.4-0.4-3.6,0.9
								c-0.2,1.3,1,3.1,2.7,4c0.1-0.2,0.2-0.3,0.3-0.5c0.1-0.3,0.2-0.6,0.3-0.9c0.1-0.3,0.2-0.6,0.2-0.9c0.1-0.3,0.1-0.6,0.1-0.9
								c0-0.3,0.1-0.6,0.1-0.8C7290.1-2045.8,7290.1-2046.1,7290.1-2046.3L7290.1-2046.3z"/>
							<path id="path9383-42_3_" class="st7" d="M7248-2046.4c1.8-0.8,3.4-0.4,3.6,0.9c0.2,1.3-1,3.1-2.7,4
								c-0.1-0.2-0.2-0.3-0.3-0.5c-0.1-0.3-0.2-0.6-0.3-0.9c-0.1-0.3-0.2-0.6-0.2-0.9c-0.1-0.3-0.1-0.6-0.1-0.9
								c0-0.3-0.1-0.6-0.1-0.8c0-0.3,0-0.5,0-0.8L7248-2046.4z"/>
						</g>
					</g>
					<g>
						<path id="path7014-6-7-28-3-2-4-5-1-1-1_1_" class="st5" d="M90,65c0.1,3.3,0.2,5.9,1.9,7.9c2,2.4,5.3,4.2,9.6,5.9
							c4.3-1.7,7.6-3.5,9.6-5.9c1.7-2,1.9-4.6,1.9-7.9c0.1-3.4,0.1-7.8,0-11.2c-3.6,2.7-9.5,1.8-11.6,0.1c-2.9,2-8.2,2.7-11.5-0.1
							C90,57.1,90,61.5,90,65L90,65z"/>
						<path id="path63519_4_" class="st11" d="M98.6,77.4v-2.5c0-1.5,0-3.6,0-4.8v-2.2h-4.2h-4.1"/>
						<path id="path63519_3_" class="st11" d="M113,68h-4.1h-4.1v1.1c0,0.9,0.1,7.6,0.1,8.3"/>
						<path id="path63519_5_" class="st11" d="M104.7,55.2v3.2v3.2h4.2h4.3"/>
						<path id="path63519_1_" class="st11" d="M90,61.5h4.3h4.2V59c0-1.4,0-2.8,0-3.2v-0.6"/>
						<path id="path7014-6-7-28-2-87_1_" class="st12" d="M97.3,59.5c0,1.6,0,3.3,0,4.9c0,1.6,0.1,2.8,0.7,3.8c0.7,1.2,2,2,3.5,2.8
							c1.6-0.8,2.8-1.7,3.5-2.8c0.6-1,0.7-2.2,0.7-3.8s0-3.3,0-4.9H97.3L97.3,59.5z"/>
						<g id="g9597-9_1_" transform="matrix(-0.234377,0,0,0.231606,-73.243,415.548)">
							<g id="g10725-5_1_">
								<g id="g3657-9_1_" transform="matrix(1.21977,0,0,1.21977,-43.0033,-4.45441)">
									<path id="path8616-8_1_" class="st13" d="M-580.9-1241.2c-0.1-0.3-0.3-1.1-0.3-1.3c-0.2-1.1-1.7-1.7-2.3-1.1
										c-0.4,0.3,0.1,1.4,0.1,2.1c0,0.6-0.8,2.3-0.8,3.1s0.2,4.7,0.2,5.7c0,1.1,1.1,2,1.7,2.8c0.6,0.9,1.2,1.5,1.4,2.8
										c0.3,1.5,0.1,1.8-0.2,3.6c0.1,0.4,7,1.6,9.9-0.1c-0.3-1.3-0.4-2.4-0.2-4.2c0.9-1.7,2.4-2.9,2.8-4.1
										c0.4-1.2,0.4-3.9,0.2-4.9c-0.1-0.5-0.3-3.3-0.4-3.5c0-0.3-0.1-3.3-0.1-3.4s0-3.1-0.1-3.4c-0.3-1.4-2.5-1.3-2.7,0
										c-0.1,0.3-0.1,4.2-0.1,4.2c0,0.1,0,2.6,0,2.9c-0.1-0.3,0-4.7,0-5.4c0-1.6,0.1-4.7,0-5c0-1.2-2.4-1.6-2.8,0
										c-0.1,0.4-0.1,5-0.1,4.9c0,0.1-0.1,4.4-0.1,4.5c-0.1,0.3,0.1-7.1,0.1-7.2s0-2.4,0-3.6c-0.1-1.6-3-1.7-3,0.1
										c0,0.1-0.1,3.1-0.1,3.2v0.9c0,0-0.1,6-0.1,6.3c0-0.3,0-2.8,0-2.8s0.2-6.1,0-6.5c-0.3-1-2.4-1.1-2.6,0.3
										c-0.1,0.1-0.1,2.9-0.1,3s-0.1,3.1-0.1,3.3c0,0.1,0,1.1,0,1.2C-580.9-1241.6-580.9-1241.2-580.9-1241.2L-580.9-1241.2z"/>
									<path id="path8681-8_1_" class="st14" d="M-580.9-1241.5c0.3,1.1-0.2,2-0.2,2.6s0.3,2,0.3,2l0.1,0.2c0,0,2.1,0.3,2.9,0.9
										c0.8,0.6,1.7,3.6,1.4,5.7"/>
								</g>
							</g>
						</g>
						<path id="path46369_1_" class="st15" d="M113,66.9L113,66.9L113,66.9L113,66.9L113,66.9z"/>
						<path id="path46371_1_" class="st15" d="M113,66.9L113,66.9L113,66.9L113,66.9L113,66.9z"/>
					</g>
					<g>
						<path id="path7014-6-7-28-3-2-4-5-1-1_1_" class="st16" d="M153.7,65c0.1,3.3,0.2,5.9,1.9,7.9c2,2.4,5.4,4.2,9.7,5.9
							c4.3-1.7,7.6-3.5,9.7-5.9c1.7-2,1.9-4.6,1.9-7.9c0.1-3.4,0.1-7.8,0-11.2c-3.6,2.7-9.5,1.8-11.6,0.1c-2.9,2-8.2,2.7-11.5-0.1
							C153.7,57.1,153.7,61.5,153.7,65L153.7,65z"/>
						<g id="g113300_1_" transform="matrix(0.87394196,0,0,0.90257648,-176.44322,55.820288)">
							<g id="g30394-4_1_" transform="matrix(0.03554807,-0.00735372,0.00789863,0.0334871,968.97343,435.61974)">
								<g id="g28386-1-5_1_" transform="matrix(8.9876989,0,0,9.1852387,-7108.3373,1263.1939)">
									<path id="path10147-8-3-7-4-6-1_1_" class="st17" d="M-629.5-1800.1c-2.2-0.1-2.3-0.1-2.9-0.3c-0.3-0.1-0.7-0.2-0.7-0.2
										l-0.2-0.1c-0.1,0-0.3-0.1-0.3-0.1s3.4-8.3,7.5-18.3l7.4-18.1l-0.2-0.4c-0.2-0.6-0.4-0.9-0.8-1.2c-0.1-0.1-0.2-0.1-0.3-0.2
										s-0.2-0.1-0.4-0.1c-0.1,0-0.3-0.1-0.4-0.1c-0.1,0-0.3-0.1-0.5-0.1l-0.2-0.1l0.2-0.2c0.2-0.2,0.5-0.3,0.6-0.3
										c0.2,0,1.8,0.3,2.4,0.5c0.8,0.2,1.6,0.6,2.3,1.2l0.6,0.4l0.1,0.5c0.2,0.7,0.2,1,0,1.4c-0.1,0.2-2.6,8-5.7,17.4
										c-3.1,9.4-5.7,17.4-5.9,17.8c-0.2,0.6-0.2,0.8-0.3,0.8C-627.1-1799.8-628.3-1800-629.5-1800.1z"/>
									<path id="path10163-2-7-5-7-0-4_1_" class="st17" d="M-645.2-1840.8c0.7-1,2.3-2.9,3.2-4.1c0.4-0.6,0.9-1.2,1.4-1.8
										l0.1,0.1l-2.3,2.9c-2.1,2.7-2.2,2.9-2.2,2.9C-645.1-1840.7-645.2-1840.7-645.2-1840.8z"/>
									<path id="path10157-4-6-6-3-2-1_1_" class="st17" d="M-641.2-1794.6c-0.7-0.1-0.8-0.3-1.5-1.5l-0.1-0.1l-0.1,0.1
										c-0.3,0.4-1.2,0.4-1.8,0.3c-0.6-0.2-1.1-1.1-1.1-1.7c0.1-0.8,0.8-1.3,1.6-1.1c0.3,0.1,0.8,0.5,0.9,0.8
										c0.1,0.3,0.1,0.4,0,0.6c-0.1,0.1-0.2,0.2-0.4,0.3c-0.2,0.1-0.4,0.1-0.7,0c-0.4-0.1-0.4-0.2-0.4,0c0,0.1,0.4,0.2,0.7,0.2
										c0.3,0.1,0.7-0.1,0.9-0.3c0.2-0.2,0-0.9-0.1-0.9c-0.1-0.1-0.4-0.7-1-1.6c-0.5-0.9-1.3-2.1-2-3.4l-2.7-4.7h-0.4
										c-0.4,0-0.7-0.3-0.7-0.5c0-0.1,0.1-0.3,0.2-0.4c0.2-0.2,0.2-0.2,0-0.4s-0.2-0.4,0-0.6c0.1-0.1,0.2-0.2,0.2-0.3
										c0-0.1-0.4-0.7-0.6-1.3c-0.9-2.7-1.3-5.1-1.6-7.7c-0.3-2.1,0-5.5,0.4-8c0.7-4.5,2.7-8.7,5.1-11.7c0.2-0.2,0.3-0.4,0.3-0.4
										s-0.1-0.1-0.2-0.2c-0.2-0.2-0.2-0.4-0.1-0.5c0.1-0.1,0.1-0.4,0-0.4l-0.2,0l0.2-0.3c0.1-0.2,0.5-0.2,1-0.1
										c0.2,0,0.2,0,2.4-2.8c1.2-1.6,2.3-3,2.3-3s0.9,0.8,1.9,1.8l1.8,1.8l-0.7,0.6c-4.9,4.5-8.6,10.8-9.3,16.7
										c-0.2,1.6-0.2,4,0.1,5.6c0.5,3.2,1.6,6.2,3.8,10.9l0.6,1.1l1.5,1.6c0.8,0.9,1.7,1.9,2,2.3l0.6,0.7l-0.6,0.7
										c-2.1,2.4-3.1,4.7-3.3,6c-0.1,0.9,0.1,1.4,0.8,1.7c1.5,0.6,4.1-0.7,8-4c0.5-0.4,1.2-1.1,1.2-1.1s0.2,0-0.1,0.3
										c-0.8,0.8-1.7,1.6-2.5,2.3c-0.8,0.7-1.6,1.3-2.4,1.7c-0.8,0.4-1.9,1.1-2.1,1C-639.7-1794.5-640.9-1794.6-641.2-1794.6
										L-641.2-1794.6z"/>
									<path id="path10151-5-3-0-4-4-2_1_" class="st17" d="M-640.3-1805.9c-1.1-1.2-2.1-2.3-2.1-2.4c0,0,3-4.5,6.7-10.1
										c5.9-9,7.1-10.7,10.3-15.4c2-2.9,3.7-5.4,3.7-5.4c0.3-0.3,2.1,0.4,2.1,0.8c0,0-18.6,34.7-18.7,34.8
										C-638.3-1803.6-639.2-1804.6-640.3-1805.9L-640.3-1805.9z"/>
									<path id="path10167-2-8-6-0-9-6_1_" class="st17" d="M-644-1798.7l-0.7-1.2c-0.8-1.4-1.4-2.4-2.1-3.6
										c-0.7-1.2-1.4-2.5-1.9-3.5l-0.4-0.6h0.1c0,0,0.1,0,0.1,0.1c0,0,1.3,2.2,2.6,4.5c1.3,2.2,2.6,4.5,2.6,4.5
										C-643.7-1798.6-644-1798.7-644-1798.7L-644-1798.7z"/>
									<path id="path10159-9-5-0-8-0-6-4_1_" class="st1" d="M-641-1795.1c-0.7-0.1-1-0.5-1.1-1.2c-0.2-1.2,0.8-3.3,2.7-5.7
										c0.4-0.5,1.2-1.4,1.2-1.4s1,0.6,2.2,1.4l2.1,1.4l0.7,0.2c0.4,0.1,0.7,0.2,0.7,0.2c0,0.1-2.2,1.9-3,2.6
										c-2.4,1.9-4.1,2.7-5.3,2.6L-641-1795.1z"/>
									<path id="path10149-9-9-4-8-2-3_1_" class="st17" d="M-635.9-1802.1c-1.2-0.7-2.2-1.3-2.2-1.3c0-0.1,18.6-34.8,18.6-34.9
										c0-0.1,0.3,0.4,0.4,0.9l0.2,0.4l-7.4,18.1c-4.1,10-7.4,18.2-7.5,18.2C-633.8-1800.8-634.8-1801.4-635.9-1802.1z"/>
									<path id="path4728-1-5-2-8-2-6-5-1-0_1_" class="st17" d="M-642.5-1848.4v-0.7l5-3.5l0.4,0.4"/>
									<path id="path3000-3-5-2-6-0-2-0-3-5_1_" class="st17" d="M-619.5-1841.1c-0.2-0.6-1-1.3-1.6-1.3c-0.2,0-0.4,0.2-0.9,0.4
										c-0.3,0.2-0.6,0.3-1,0.5c-0.7,0.3-1.4,0.6-2.1,0.9c-0.7,0.3-1.4,0.5-2.1,0.7c-0.7,0.2-1.3,0.3-1.9,0.4
										c-0.8,0-1.6,0-2.3-0.2c-1.4-0.4-2.7-1.1-3.6-1.8l-1.7-1.4l-5.6-5.5l5.4-3.7c0.3,0.4,0.7,1,1.2,1.6s1.1,1.3,1.7,2
										c0.6,0.7,1.3,1.4,1.9,2c1.2,1.1,2.6,1.8,4.1,1.8c0.7,0,1.3-0.1,1.8-0.3c1.2-0.3,2.3-0.9,3.8-1.1c1.6-0.3,3-0.1,4.2,0.5
										c0.6,0.3,1.1,0.7,1.6,1.2c1.5,1.9,1.7,2.6,1.2,4.6"/>
									<path id="path2996-5-7-5-4-9-4-4-8-2-6_1_" class="st17" d="M-620.7-1839.9c3.4,0.6,3.8,1,5.3,2.1l-0.2-2
										c-1.7-1-2.4-1.1-4.3-1.4L-620.7-1839.9z"/>
									<path id="path3002-1-5-3-6-4-1-2-3-0_1_" class="st18" d="M-631.9-1800.1c-2.1,2-6.7,6.5-9.7,5.5c-0.2-0.1-0.4-0.2-0.5-0.4
										c-0.3-0.3-0.5-0.7-0.7-1.1c-0.4,0.4-1.1,0.5-1.6,0.4c-0.3-0.1-0.6-0.2-0.8-0.4c-0.5-0.5-0.7-1.2-0.4-1.8
										c0.1-0.3,0.3-0.5,0.6-0.6c0.5-0.3,1.2-0.3,1.6,0.3l-5.5-9.5c-1,0.1-1.5-0.5-0.8-1.1c-0.5-0.4-0.4-0.7,0-1.1
										c-1.2-3.4-2-6.9-2.2-10.4c-0.1-5.4,0.9-10.2,3.2-14.7c0.8-1.5,1.7-2.9,2.7-4.1c-0.4-0.4-0.4-0.6-0.1-0.9
										c0-0.1-0.3-0.1-0.3-0.2s0.1-0.2,0.1-0.3c0.4-0.4,0.8-0.2,1.3-0.2l4.5-5.8"/>
									<path id="path3026-8-6-2-5-4-1-9-1-8_1_" class="st19" d="M-644.8-1797.1c0.3,0.2,0.6,0.3,0.9,0.3c0.6-0.1,0.9-0.4,0.8-0.9
										c-0.1-0.2-0.2-0.4-0.4-0.6"/>
									<polygon id="rect4657-4-2-1-9-8-3-2-8-2_1_" class="st17" points="-640.9,-1850.8 -640.3,-1850.2 -641.7,-1849.2 
										-642.2,-1849.8 									"/>
									<polygon id="rect4657-0-0-3-0-9-3-9-7-8-1-7_1_" class="st17" points="-638.6,-1852.4 -638,-1851.8 -639.4,-1850.8 
										-639.9,-1851.4 									"/>
									<path id="path4634-0-1-1-2-0-1-3-9-4_1_" class="st1" d="M-638.5-1846.2l0.4,39.8l-0.5,0.2l-0.4-40.2L-638.5-1846.2z"/>
									<path id="path4634-0-1-1-2-0-1-4-4-0_1_" class="st1" d="M-637.1-1844.8l0.4,35.7l-0.5,0.2l-0.4-36.1L-637.1-1844.8z"/>
									<path id="path4634-0-1-1-2-0-1-0-6-9-6_1_" class="st1" d="M-635.6-1843.5l0.3,32.1l-0.5,0.2l-0.3-32.4L-635.6-1843.5z"/>
									<path id="path4634-0-1-1-2-0-1-8-3-4_1_" class="st1" d="M-634.2-1842.3l0.3,28.4l-0.5,0.2l-0.3-28.7L-634.2-1842.3z"/>
									<path id="path4634-0-1-1-2-0-1-5-4-4_1_" class="st1" d="M-632.9-1841.6l0.1,25.3l-0.5,0.1l-0.1-25.6L-632.9-1841.6z"/>
									<path id="path4634-0-1-1-2-0-1-81-29-0-4-9-3_1_" class="st1" d="M-621.6-1843.2l0.2,6.3h-0.5l-0.2-6.4L-621.6-1843.2z"/>
									<path id="path4634-0-1-1-2-0-1-81-29-0-0-5_1_" class="st1" d="M-622.8-1842.6l0.2,7.7h-0.5l-0.2-7.7H-622.8z"/>
									<path id="path4634-0-1-1-2-0-1-81-29-5-8_1_" class="st1" d="M-624.1-1842l0.3,9.6l-0.5,0.1l-0.3-9.7H-624.1z"/>
									<path id="path4634-0-1-1-2-0-1-81-66-3-4_1_" class="st1" d="M-625.4-1841.5l0.3,11.3l-0.5,0.1l-0.3-11.4H-625.4z"/>
									<path id="path4634-0-1-1-2-0-1-81-6-9-1_1_" class="st1" d="M-626.8-1841l0.4,13l-0.5,0.1l-0.4-13.1H-626.8z"/>
									<path id="path4634-0-1-1-2-0-1-81-24-1-0_1_" class="st1" d="M-628-1840.7l0.3,15.1l-0.5,0.1l-0.3-15.3L-628-1840.7z"/>
									<path id="path4634-0-1-1-2-0-1-81-3-2-3_1_" class="st1" d="M-629.2-1840.5l0.3,17.3l-0.5,0.1l-0.3-17.5L-629.2-1840.5z"/>
									<path id="path4634-0-1-1-2-0-1-81-2-8-3_1_" class="st1" d="M-630.4-1840.6l0.3,19.7l-0.5,0.1l-0.3-19.9L-630.4-1840.6z"/>
									<path id="path4634-0-1-1-2-0-1-81-8-4_1_" class="st1" d="M-631.7-1840.9l0.3,22.5l-0.5,0.1l-0.3-22.7L-631.7-1840.9z"/>
									<path id="path3024-3-4-0-5-3-0-1-6-2-8_1_" class="st19" d="M-631.9-1800.2l-1.8-0.5l-4.4-2.8c-1.8,2-5.2,6.5-3.5,8.1
										c0.4,0.3,1,0.4,1.7,0.3c0.9-0.1,1.9-0.6,2.9-1.3c1-0.6,2-1.4,2.9-2.1c0.9-0.7,1.6-1.4,2.1-1.8"/>
								</g>
							</g>
						</g>
					</g>
					<g id="g78883_1_" transform="translate(-544.93403,251.396)">
						<path id="path64764_1_" class="st20" d="M706.5-137.6c-0.5-0.3-0.7-0.3-1-0.5s-0.3-0.2-0.5-0.3s-0.9-0.5-1-0.6
							s-0.2-0.1-0.3-0.2c-0.2-0.1-0.4-0.2-0.7-0.4s-0.7-0.5-1.3-1.1c-0.9-0.9-1.6-1.6-2-2.5s-0.6-2-0.8-3.5c-0.1-0.4-0.2-1.7-0.2-3
							c-0.1-2.4,0-11.2,0-11.3c0,0,0.2,0.1,0.2,0.2c0.3,0.2,1,0.7,1.5,0.9c1,0.4,1.6,0.6,2.3,0.7c1.1,0.2,2.2,0.2,3.5-0.1
							c1.6-0.3,2.2-0.5,3.5-1.2c0.2-0.1,0.3-0.2,0.5-0.3c0.1,12.1,0.1,12,0,24.9c-0.3-0.1-0.6-0.2-0.9-0.4
							C708.4-136.7,707.4-137.1,706.5-137.6L706.5-137.6z"/>
						<g id="g29973-7_1_" transform="matrix(0.2176,0,0,0.253848,1096.44,547.586)">
							<polygon id="rect29401-0_1_" class="st0" points="-1782.2,-2767.9 -1782.2,-2767.8 -1782.3,-2767.8 -1782.3,-2767.9 							
								"/>
							<path id="path9379-7-3_1_" class="st0" d="M-1790.4-2765.4c-0.2,0-0.2-0.1,0.1-0.2c0.1,0,0.2-0.1,0.2-0.1
								c0.4-0.1,0.6-0.3,1-0.5s0.7-0.4,1-0.6c0.5-0.3,0.8-0.5,1.2-0.8c1.2-0.7,2.5-1.1,3.8-1.4c0.5-0.1,1.1-0.1,1.5-0.1
								c0.1,0,1.5-0.1,1.5-0.1l0,0c0,0.2,0.1,0.4,0,0.6c0,0.2,0,0.3-0.1,0.4l0,0c0,0-0.1,0-0.2-0.1c-0.1,0-0.3,0.5-0.5,0.5
								c-1.3,0-1.5-0.6-2.7-0.3c-0.3,0.1-0.5,0.1-0.8,0.1c-0.3,0.1-0.5,0.2-0.8,0.3s-0.5,0.2-0.8,0.3c-0.6,0.2-1.1,0.5-1.8,0.9
								c-0.4,0.2-0.4,0.2-0.6,0.3c-0.7,0.3-1.2,0.6-1.6,0.6C-1790.1-2765.4-1790.3-2765.4-1790.4-2765.4L-1790.4-2765.4z"/>
							<g id="g5919-4_1_" transform="matrix(3.83783,0,0,3.74193,-962.708,-15.542)">
								<g id="g64-0_1_">
									<path id="path7155_12-0_1_" class="st21" d="M-214.9-726.8c0-0.2,0.3-0.6,0.3-0.8c0.3-0.8,0.3-3.6,0.3-4.4
										c0.2,0,0.4-0.1,0.6-0.1c0.2,0.7,0.1,3.5-0.4,4.3c0.4-0.8,0.5-3.5,0.4-4.3c0.3-0.1,0.3-0.1,0.6-0.2c0,0.8,0.1,3.6-0.5,4.5
										c-0.2,0.3-0.5,0.6-0.9,0.9C-214.6-726.8-214.8-726.7-214.9-726.8L-214.9-726.8z"/>
									<path id="path7155_13-5_1_" class="st21" d="M-216.7-726.2c0-0.3,0.4-0.9,0.5-1.1c0.5-1.2,0.7-2.6,0.7-3.8
										c0.2-0.1,0.5-0.2,0.7-0.3c0.2,1,0,2.7-0.7,3.8c0.7-1,0.9-2.8,0.7-3.8c0.4-0.1,0.5-0.1,0.8-0.2c0,1.2,0,2.9-0.8,4.1
										c-0.3,0.4-0.8,0.8-1.3,1.2C-216.3-726.2-216.6-726-216.7-726.2L-216.7-726.2z"/>
									<path id="path7155_14-3_1_" class="st21" d="M-219-726.1c0.1-0.3,0.6-0.8,0.8-1.1c0.8-1.2,1.4-2.7,1.7-4
										c0.3-0.1,0.5-0.1,0.8-0.2c-0.1,1.1-0.7,2.9-1.7,4c0.9-1,1.5-2.8,1.7-4c0.4,0,0.4,0,0.7-0.1c-0.2,1.3-0.6,3.1-1.8,4.2
										c-0.4,0.4-1,0.7-1.6,1C-218.6-726.1-218.9-726-219-726.1L-219-726.1L-219-726.1L-219-726.1z"/>
									<path id="path7153_15-1_1_" class="st21" d="M-219.6-727.6c0.1-0.2,0.2-0.4,0.4-0.6c0.2-0.4,0.5-0.8,0.8-1.2
										s0.5-0.7,0.6-1.1c0.1-0.3,0.2-0.5,0.3-0.8c0.1-0.1,0.3-0.4,0.4-0.4c0.1,0.1,0.3,0.1,0.4,0.1c-0.2,1-0.9,2.4-1.7,3
										c0.8-0.6,1.5-2,1.7-3c0.4-0.1,0.4-0.1,0.7-0.1c-0.3,1-0.7,2.1-1.5,2.9c-0.5,0.5-1.2,1-1.9,1.4
										C-219.6-727.4-219.6-727.4-219.6-727.6L-219.6-727.6L-219.6-727.6z"/>
									<path id="path7155_16-0_1_" class="st21" d="M-221-729.1c0.2-0.2,0.7-0.5,0.9-0.6c1-0.6,1.9-1.7,2.5-2.6c0.2,0,0.4,0,0.6,0
										c-0.5,0.8-1.4,2-2.5,2.6c1-0.5,2-1.7,2.5-2.6c0.3,0.1,0.4,0.1,0.6,0.2c-0.6,0.8-1,1.4-1.8,2.1c-0.2,0.2-0.6,0.5-0.9,0.6
										c-0.4,0.2-0.9,0.2-1.5,0.3C-220.8-728.9-221.1-729-221-729.1L-221-729.1L-221-729.1z"/>
									<path id="path7155_17-6_1_" class="st21" d="M-221.5-730.3c0.2-0.2,0.7-0.4,0.9-0.5c1-0.5,1.9-1.4,2.7-2.2
										c0.2,0,0.3,0,0.5,0.1c-0.5,0.7-1.6,1.8-2.6,2.2c1-0.4,2-1.5,2.6-2.2c0.2,0.1,0.3,0.1,0.5,0.2c-0.6,0.7-1.1,1.2-1.9,1.9
										c-0.2,0.2-0.6,0.4-0.9,0.5c-0.4,0.1-0.9,0.1-1.4,0.2C-221.4-730.1-221.6-730.2-221.5-730.3L-221.5-730.3L-221.5-730.3z"/>
									<path id="path7155_18-7_1_" class="st21" d="M-222-732.1c0.2-0.1,0.8-0.2,1-0.2c1-0.2,1.9-0.7,2.8-1.3
										c0.1,0.1,0.2,0.4,0.3,0.4c-0.7,0.5-1.7,1.1-2.7,1.2c1-0.2,1.9-0.7,2.7-1.2c0.2,0,0.4-0.1,0.5-0.2c0,0.1,0.1,0.2,0.2,0.3
										c-0.9,0.7-2.1,1.5-3.3,1.6c-0.4,0-0.8-0.1-1.3-0.2C-221.9-731.8-222.1-732-222-732.1L-222-732.1L-222-732.1L-222-732.1z"/>
									<path id="path7155_19-5_1_" class="st21" d="M-221.7-734c0.3-0.1,0.5-0.1,0.7,0c1.1,0.2,2.2-0.1,3.2-0.2
										c0.1,0.2,0.1,0.4,0.4,0.5c-0.9,0.2-1.9,0.3-2.9,0.2c1,0.1,1.9,0,2.9-0.2c0.1,0,0.3,0.2,0.5,0.2c-1.2,0.3-2.5,0.8-3.7,0.4
										c-0.4-0.1-0.7-0.3-1.1-0.6C-221.9-733.8-221.9-733.9-221.7-734L-221.7-734L-221.7-734z"/>
									<path id="path7155_20-0_1_" class="st21" d="M-221.1-735.1c0.2,0,0.4,0,0.6,0c0.8,0.2,1.8,0.3,2.7,0.3v0.1
										c0.1,0.1,0.1,0.2,0.2,0.2c-0.8,0-1.6,0.1-2.5-0.2c0.9,0.3,1.7,0.2,2.5,0.2c0,0,0.2,0.2,0.3,0.3c-1.2,0.1-2.2,0.2-3.1-0.2
										c-0.3-0.1-0.6-0.3-0.9-0.5C-221.2-735-221.2-735.1-221.1-735.1L-221.1-735.1L-221.1-735.1L-221.1-735.1z"/>
									<path id="path7153_21-0_1_" class="st21" d="M-220.6-736.1c0.2,0.1,0.3,0.1,0.5,0.2c0.3,0.1,0.6,0.1,0.9,0.3
										c0.4,0.2,1.5,0.7,1.9,0.8c-0.1,0-0.3,0.1-0.3,0.2c-0.8-0.1-1.7-0.4-2.3-0.8c0.7,0.4,1.5,0.7,2.3,0.8c0,0.1,0.1,0.1,0.1,0.1
										c-0.8-0.1-1.6-0.2-2.3-0.6C-220.1-735.4-220.4-735.6-220.6-736.1C-220.7-736.1-220.6-736.2-220.6-736.1L-220.6-736.1
										L-220.6-736.1z"/>
									<path id="path7153_22-4_1_" class="st21" d="M-220.2-736.8c0.2,0.1,0.3,0.1,0.5,0.2c0.3,0.1,0.6,0.2,0.9,0.3
										c0.4,0.2,1.4,0.8,1.9,0.9c-0.1,0-0.3,0.1-0.3,0.1c-0.8-0.2-1.6-0.5-2.2-1c0.6,0.5,1.4,0.8,2.2,1c0,0.1-0.1,0.2-0.1,0.3
										c-0.8-0.2-1.4-0.4-2.1-0.8C-219.8-736-220.1-736.3-220.2-736.8C-220.3-736.8-220.3-736.8-220.2-736.8L-220.2-736.8
										L-220.2-736.8z"/>
									<path id="path7153_23-5_1_" class="st21" d="M-219.8-737.5c0.1,0.1,0.2,0.2,0.4,0.3c0.3,0.2,0.5,0.2,0.8,0.5s1.2,1,1.6,1.2
										c-0.1,0-0.3,0.1-0.3,0.1c-0.7-0.3-1.4-0.7-1.9-1.3c0.5,0.5,1.2,1,1.9,1.3c0,0.1,0.1,0.2,0,0.3c-0.7-0.3-1.3-0.5-2-1.1
										c-0.3-0.4-0.5-0.6-0.6-1.1C-219.9-737.5-219.9-737.6-219.8-737.5L-219.8-737.5L-219.8-737.5z"/>
									<path id="path7153_24-4_1_" class="st21" d="M-219.1-738.4c0.1,0.1,0.1,0.2,0.3,0.4c0.2,0.3,0.4,0.4,0.6,0.7
										c0.2,0.4,0.7,1.3,1,1.7c-0.1,0-0.2-0.1-0.2,0c-0.6-0.5-1.1-1.1-1.4-1.7c0.3,0.7,0.8,1.3,1.4,1.7c0,0.1,0,0.2-0.1,0.2
										c-0.5-0.5-1.2-0.8-1.5-1.6c-0.2-0.5-0.3-0.8-0.2-1.3C-219.2-738.4-219.1-738.5-219.1-738.4L-219.1-738.4L-219.1-738.4z"/>
									<path id="path7151_25-9_1_" class="st21" d="M-217.7-739.2c-0.3,0.4-0.3,1-0.2,1.4c0.1,0.3,0.3,0.6,0.5,0.9
										c0.1,0.2,0.2,0.3,0.3,0.5c0,0.1,0.1,0.3,0,0.3c0,0.1-0.1,0.1-0.1,0.1c-0.1,0-0.2,0-0.2-0.1c-0.4-0.6-0.9-1.3-0.8-1.9
										c-0.1,0.6,0.4,1.3,0.8,1.9c0.1,0,0.2,0.1,0.2,0.1l-0.1,0.2c-0.3-0.2-1-1-1.2-1.6C-218.6-737.8-218.6-738.7-217.7-739.2
										L-217.7-739.2L-217.7-739.2L-217.7-739.2z"/>
									<g id="g80-4-5_1_">
										<path id="path7151_26-6_1_" class="st21" d="M-216.9-736.4c-0.2-0.1-0.5-0.3-0.6-0.5c-0.1-0.1-0.5-0.7-0.1-1.2
											c0,0.3,0.1,0.6,0.4,0.9c0.1,0.2,0.4,0.3,0.5,0.4c0,0,0.1,0,0.1,0.1L-216.9-736.4L-216.9-736.4L-216.9-736.4L-216.9-736.4z
											"/>
									</g>
								</g>
								<g id="g84-8_1_">
									<path id="_38899352-2_1_" class="st21" d="M-216.4-731.4c-0.3,0.9,0.6,1.3,1.1,0.7c0.2,0.9,1.2,0.7,1.3,0.1l-0.2-0.5
										c0.4-0.4,0.6-0.9,0.8-1.1l-0.2-0.4c-0.3,0.1-0.6,0.3-1.1,0.4c-0.3,0-0.6-0.2-0.7-0.5c-0.7-1.1-0.4-2.1-0.3-2.6
										c0.3-1.3-1.3-1.5-1.2-2.3c-0.1,0.2-0.2,0.3-0.1,0.5c-0.4,0.1-0.7,0.4-0.5,0.8c-0.2,0-0.5,0-0.7,0.2
										c-0.3,0.3-0.2,0.8,0.3,1.1c-0.1,0-0.3,0.1-0.4,0.2c-0.4,0.3-0.1,1,0.7,1.1c-0.8,0.6-0.1,1.2,0.7,1.1
										C-217.8-731.7-217.2-731.1-216.4-731.4L-216.4-731.4L-216.4-731.4L-216.4-731.4z"/>
								</g>
							</g>
							<path id="path3043-4_1_" class="st0" d="M-1797.2-2725c-0.5,0.1-1.3,0.1-1.8-0.1c-0.7-0.3-1.3-1.4-2-1.7
								c-0.5-0.2-1.1-0.1-1.3,0.3c-0.2,0.5,0,1,0.4,1.1c0.3,0.1,0.7-0.1,1,0.1c0.2,0.1,0.3,0.4,0.5,0.6c0.2,0.1,0.4,0.2,0.7,0.3
								C-1798.9-2724.2-1798-2724.7-1797.2-2725L-1797.2-2725z"/>
							<path id="path3035-9-5_1_" class="st0" d="M-1800.3-2723.4c-1.1,0.2-2.2,0.2-2.6,0.7c-0.3,0.3-0.2,0.9,0,1.4
								c0.2,0.4,0.7,0.7,1.2,0.4c0.6-0.3,0.8-1.4,1.5-1.6c0.7-0.2,1.1,0,1.8,0.1c0.6,0.1,1.2,0,1.8-0.5c0.3,0,0.7,0.1,1,0.4
								c0.2,0.3,0.3,0.8,0.7,1c0.4,0.2,1.1,0.1,1.4-0.4c0.3-0.7,0.2-1.6-0.5-1.8c-0.4-0.2-1.5-0.1-2.1,0c1.6-0.7,4.3-1.3,6.2-2.1
								c0.4-0.2,1.8,0.3,2.6-0.1l3.3-2.1l-3.4-1.8l-2.2,1.6c-2.1,1.3-5,2.3-7.9,3.3c-1.5,0.6-2.1,0.5-2.9,0.5
								c-0.8-0.3-1.8-1-2.3-0.7l-0.5,1c0.2,0.5,0.7,1.2,1.7,0.3c0,0,0.1-0.1,0.1,0C-1801.1-2723.7-1800.6-2723.4-1800.3-2723.4
								L-1800.3-2723.4z"/>
							<path id="path3441-7-7_1_" class="st0" d="M-1802.3-2727.4c-0.8-0.3-1.7,0.3-1.2,1.3c0.1-0.5,0.8-0.6,1.2,0
								c0.3,0,0.7-0.4,0.6-0.7S-1802-2727.3-1802.3-2727.4L-1802.3-2727.4z M-1792.7-2723.2c-0.2-0.1-0.5-0.1-0.8-0.1
								c-0.6,0.2-0.7,0.9-0.2,1.3c0.7-0.4,1.5,0.2,1.1,0.9c0.9-0.4,1-1,0.8-1.4C-1792-2722.8-1792.3-2723-1792.7-2723.2
								L-1792.7-2723.2L-1792.7-2723.2z M-1803-2725.4c-0.1,0-0.1,0-0.2-0.1c-0.4-0.1-0.8-0.1-1.1,0.1c-0.5,0.3-0.7,1.1-0.1,1.5
								c0-0.6,0.8-1,1.4-0.3c0.3-0.1,0.6-0.5,0.5-0.9C-1802.7-2725.2-1802.8-2725.3-1803-2725.4z M-1802.6-2722.6
								c-0.7,0-1.3,0.3-1.6,0.8c-0.2,0.5-0.1,1.2,0.7,1.4c-0.3-0.6,0.4-1.2,1.1-0.9C-1801.9-2721.7-1802-2722.4-1802.6-2722.6
								L-1802.6-2722.6z"/>
							<path id="path4215-3_1_" class="st21" d="M-1774.3-2759.8c-0.3,1-0.5,1-0.8,0s-0.1-1.6-0.9-2.5c0.2-0.2,0.4-0.1,0.6-0.1
								c-0.5-0.4-0.8-0.9-1-1.3c0.7,0.4,1.2,0.2,1.4-0.7c-0.2,0.3-0.5,0.4-0.9,0.3c-0.4-0.3-0.5-0.7-0.5-1.1c0.1-0.7,0-1-0.2-1.7
								c0.3-0.1,0.3-0.1,0.6,0c-0.2-0.2-0.9-0.6-1.2-0.9c0-0.6-0.4-1.2-0.7-1.7c0.5,0,0.5,0.3,0.8,0.3c-0.5-0.9-1.4-1.8-2.5-2.4
								c0.5-0.2,0.7-0.4,0.8-0.7c-0.3,0.1-1.1,0.4-1.5,0.4c-1.3,0.1-1.5,0-2.8-0.2c-1.2,0-1.9,0.1-2.8,0.9l0.7,0.7l1.1,1.7
								c0.4,0.1,2.3,0,1.8,1.1l-0.5,0.6c2,0,0.7,3.4-1,2.4c0.4,0.9,1,1.2,1.6,1c-0.2,0.2-0.3,0.6-0.2,1c-0.3,0.3-0.5,0.6-0.5,0.9
								c0,0.1-0.2,0.2-0.6,0.1c0.3,0.3,0.7,0.4,1,0.2c0.2-0.1,0.3-0.2,0.4-0.3c-0.5,0.4-2,2.4-1.9,3.1c0,0.3,0,0.6,0,0.9
								c-0.1,0.5-0.3,0.9-0.6,1.1c0.4,0,0.8,0,1-0.2s0.4-0.4,0.4-0.8c0,0.3-0.1,0.7-0.2,1c0,0,0,0.1-0.1,0.1
								c-0.2,0.4-0.8,0.9-0.6,1.4c0.1-0.1,0.3-0.2,0.4-0.3s0.2-0.2,0.3-0.3c-0.1,0.2-0.1,0.4-0.2,0.6c-0.1,0.6,0.1,1.2,0.4,1.8
								c0.1-0.1,0.2-0.1,0.2-0.2c0.1-0.2,0.2-0.4,0.2-0.6c-0.1,0.4,0,0.8,0.1,1.2c-1,1.6-0.2,2.5,0.4,4.7c0.6,2,1.7,4.9,2.1,8.6
								c-1.8,0.6-1.6,2-2.7,3.8c-1.1,0.8-2,2.4-2.8,3.3c-0.6,0.7-1.2,1.4-2,2c-0.4,0.3-0.7,0.5-1.1,0.7c-0.9,0.3-1.8,0.5-3.1-0.2
								c0.6,0.7,1.3,1.3,2.3,1.4c-0.3,0.3-0.5,0.6-0.5,0.8c0.7,0,1.4-0.2,2-0.6c-0.6,0.4-0.9,0.9-1.3,1.3c0.9,0.2,1.6-0.2,2.7-1
								c-0.2,0.3-0.8,1.7-0.8,2.1c0.3-0.2,0.8-1.1,1.4-1.2c-0.3,0.6-0.5,1.6-0.3,2.3c1.1-2.3,4.6-3.2,6.3-5.4c0,0.4-0.1,0.7-0.4,1.1
								c0.5-0.3,1-0.8,1.3-1.4c1-0.1,0.8-0.3,1.5-0.9c-0.5,4-0.5,5.4-4.5,7.7c-0.6-0.6-1.4-0.4-2.3-0.2c0.6,0,1.2,0,1.6,0.5
								l-1.7,0.9c-0.8-0.7-1.9-0.8-3-0.8c0.8,0.4,1.9,0.4,2.1,1.4c-3.2,1.8-6.6,3.3-8,7.2c-1,0.9-1.8-0.6-2.3-1.2
								c0.5,1.3,1,2.8,2.6,2.7c1.6,2.3,4,1.7,5.2-0.5c0.7-0.4,1.5-0.2,2.3-0.2c-0.6-0.2-1.2-0.4-2-0.4c0.7-0.5,1.2-1.1,1.5-1.9
								c-0.7,0.4-1.3,0.7-2,1.4c0.1-0.5-0.4-1-0.6-1.5c-0.1,0.6,0.2,1.3,0.1,1.8c-2.5,4.4-6.2-1.3,0.2-3.9l0.4,1.6
								c0.5-1.3,1.1-2.4,3-3.3c-0.1,1.1,0.2,2,0.7,2.7c-0.1-1-0.3-2.1,0.3-3.1l4.5-2.6c0.4,0.5,0.1,1-0.1,1.5c0.7-0.5,1.2-1.1,1.2-2
								c0.7-0.5,1-0.6,1.4-1.1c-0.3,2.2-0.1,3.1-1.7,3.7c-0.6-0.3-1.2-0.2-1.8,0c0.4,0.1,0.8,0,1,0.4c-1.3,0.8-4.9,2.3-3.5,4.4
								c0.8,0.7,1.3,0.3,1.8,0.2c-0.6,0-1.7-0.3-1.4-1.3c0.5-1,1.5-1.5,2.5-1.9l2.8-0.6c-1.3,1.8-1.7,3.5-4.1,4.9
								c-2.2,1.2-5.1,1.9-5.7,3.7s0.6,3.3,1.8,3.4c2.2-0.2,1.7-1.1,2.5-1.8c0.5-0.4,1.4-0.6,2-1c-0.8,0.1-1.6,0-2.4,0.4
								c0.1-1-0.4-1.3-0.8-1.7c0.1,0.7,0.4,1.4,0.1,2.1c-0.3,0.6-0.6,0.8-1,0.7c-1.4-0.2-1.2-1.8-1.1-1.9c0.8-1.7,2.6-1.5,3.9-2.4
								c0.2,0.7-0.2,1.4-0.3,2.1c0.8-0.7,1.5-1.7,1.8-2.6c-0.2,0.7,0,1.3,0.2,1.8c0.1-0.9,0.3-2.1,1.1-2.3c0.9-0.2,2.1-0.6,2.5-1.2
								l-0.2,1.8c-0.1,2.9-2,4.5-4.4,5.8c-0.7,0.3-1.1,0.1-1.6,0c0.1,0.3,0.7,0.7,1.2,0.5c-0.2,0.6-0.2,1.2,0.2,1.7
								c0.6,0.8,2.2,0.1,2.1-0.9c-1,1.5-2.2,0.4-1.5-0.8c0.7-0.7,1.9-0.7,2.4-1.3c0.5,0.5,0.1,1.3,0.1,1.9c0.5-0.8,0.8-1.6,0.5-2.3
								c0.8-0.7,1-1,1.5-1.6c0.3,3.1-1.6,4.4-1.5,5.5c0.3-0.3,1.2-1.2,1.9-1.2c-1.3,2.6-1.2,3.8,1.2,5.6l0,0c2.4-1.8,2.5-3,1.2-5.6
								c0.6,0,1.6,0.9,1.9,1.2c0.1-1.1-1.8-2.4-1.5-5.5c0.4,0.6,0.7,0.9,1.5,1.6c-0.3,0.8,0,1.5,0.5,2.3c0-0.6-0.4-1.4,0.1-1.9
								c0.6,0.6,1.7,0.6,2.4,1.3c0.7,1.2-0.5,2.3-1.5,0.8c-0.1,1.1,1.5,1.7,2.1,0.9c0.5-0.5,0.4-1.1,0.2-1.7
								c0.6,0.2,1.1-0.2,1.2-0.5c-0.4,0.1-0.9,0.3-1.6,0c-2.4-1.3-4.3-3-4.4-5.8l-0.2-1.8c0.4,0.6,1.5,1,2.5,1.2
								c0.8,0.1,1,1.4,1.1,2.3c0.2-0.6,0.4-1.2,0.2-1.8c0.3,0.9,1,1.9,1.8,2.6c-0.1-0.7-0.5-1.4-0.3-2.1c1.3,0.9,3.1,0.7,3.9,2.4
								c0.1,0.1,0.3,1.8-1.1,1.9c-0.4,0.1-0.8-0.1-1-0.7c-0.3-0.7,0-1.4,0.1-2.1c-0.4,0.4-0.9,0.7-0.8,1.7c-0.9-0.5-1.6-0.4-2.4-0.4
								c0.6,0.4,1.5,0.6,2,1c0.7,0.6,0.2,1.6,2.5,1.8c1.2-0.1,2.4-1.6,1.8-3.4c-0.6-1.9-3.5-2.5-5.7-3.7c-2.3-1.4-2.8-3.1-4.1-4.9
								l2.8,0.6c1,0.4,2.1,0.9,2.5,1.9c0.3,1-0.7,1.3-1.4,1.3c0.5,0.1,1,0.5,1.8-0.2c1.4-2.1-2.2-3.6-3.5-4.4c0.2-0.3,0.7-0.3,1-0.4
								c-0.6-0.2-1.2-0.3-1.8,0c-1.6-0.6-1.5-1.6-1.7-3.7c0.4,0.5,0.7,0.6,1.4,1.1c0,0.9,0.5,1.6,1.2,2c-0.2-0.5-0.4-1.1-0.1-1.5
								l4.5,2.6c0.6,1,0.4,2.1,0.3,3.1c0.6-0.7,0.9-1.6,0.7-2.7c1.9,0.8,2.5,2,3,3.3l0.4-1.6c6.5,2.6,2.7,8.3,0.2,3.9
								c-0.1-0.6,0.1-1.2,0.1-1.8c-0.2,0.5-0.7,1-0.6,1.5c-0.7-0.8-1.3-1-2-1.4c0.3,0.8,0.8,1.4,1.5,1.9c-0.8-0.1-1.3,0.1-2,0.4
								c0.8,0,1.6-0.2,2.3,0.2c1.2,2.2,3.6,2.7,5.2,0.5c1.7,0.1,2.1-1.3,2.6-2.7c-0.5,0.6-1.4,2.1-2.3,1.2c-1.4-3.9-4.8-5.4-8-7.2
								c0.2-1,1.3-1,2.1-1.4c-1.1,0-2.2,0.1-3,0.8l-1.7-0.9c0.4-0.5,1-0.5,1.6-0.5c-0.8-0.2-1.7-0.4-2.3,0.2c-3.9-2.3-4-3.7-4.5-7.7
								c0.4,0.7,1,0.6,1.5,0.9c0.3,0.6,0.8,1.1,1.3,1.4c-0.2-0.4-0.3-0.7-0.4-1.1c1.7,2.2,5.2,3.1,6.3,5.4c0.1-0.6,0-1.6-0.3-2.3
								c0.5,0.1,1.1,1,1.4,1.2c0-0.4-0.6-1.8-0.8-2.1c1,0.8,1.8,1.2,2.7,1c-0.4-0.4-0.7-0.9-1.3-1.3c0.7,0.4,1.3,0.6,2,0.6
								c0-0.3-0.2-0.5-0.5-0.8c1,0,1.8-0.6,2.3-1.4c-1.4,0.7-2.3,0.4-3.1,0.2c-0.4-0.2-0.7-0.4-1.1-0.7c-0.8-0.6-1.3-1.3-2-2
								c-0.8-0.8-1.7-2.5-2.8-3.3c-1.1-1.8-0.8-3.2-2.7-3.8c0.4-3.8,1.5-6.6,2.1-8.6c0.6-2.1,1.5-3.1,0.4-4.7
								c0.1-0.4,0.1-0.8,0.1-1.2c0,0.3,0.1,0.5,0.2,0.6s0.1,0.2,0.2,0.2c0.4-0.6,0.5-1.2,0.4-1.8c0-0.2-0.1-0.4-0.2-0.6
								c0.1,0.1,0.2,0.2,0.3,0.3c0.1,0.1,0.3,0.2,0.4,0.3c0.2-0.5-0.4-1-0.6-1.4c0,0,0-0.1-0.1-0.1c-0.2-0.3-0.2-0.7-0.2-1
								c0.1,0.4,0.2,0.6,0.4,0.8c0.2,0.2,0.6,0.3,1,0.2c-0.3-0.3-0.6-0.6-0.6-1.1c0-0.3-0.1-0.6,0-0.9c0.1-0.7-1.4-2.7-1.9-3.1
								c0.1,0.1,0.3,0.2,0.4,0.3c0.3,0.2,0.7,0.1,1-0.2c-0.3,0-0.5,0-0.6-0.1c0-0.3-0.2-0.6-0.5-0.9c0-0.4,0-0.7-0.2-1
								c0.6,0.3,1.2-0.1,1.6-1c-1.7,1-3-2.5-1-2.5l-0.5-0.6c-0.5-1.1,1.4-1,1.8-1.1l1.3-1.8l0.5-0.6c-0.9-0.8-1.1-0.9-2.3-0.9
								c-1.4,0.2-2.3,0.1-3.1,0.2c-0.4,0-1-0.1-1.3-0.2c0.1,0.3,0.4,0.3,0.8,0.5c-1.1,0.6-2.2,1.4-2.6,2.3c0.2,0,0.4-0.3,0.9-0.2
								c-0.3,0.5-0.9,1.2-1,1.8c-0.3,0.2-0.9,0.6-1.1,0.9c0.3-0.1,0.3-0.1,0.6,0c-0.3,0.7-0.3,1-0.2,1.7c0,0.5-0.1,0.9-0.5,1.1
								c-0.4,0.1-0.7,0-0.9-0.3c0.2,0.9,0.6,1.1,1.4,0.7c-0.2,0.5-0.6,0.9-1,1.3c0.2,0.1,0.4-0.1,0.6,0.1
								C-1774.3-2761.3-1774-2760.7-1774.3-2759.8L-1774.3-2759.8L-1774.3-2759.8z"/>
							<path id="path4489-1_1_" class="st21" d="M-1778.5-2732.1L-1778.5-2732.1L-1778.5-2732.1z"/>
							<path id="path4523-7_1_" class="st21" d="M-1782.3-2752.1L-1782.3-2752.1L-1782.3-2752.1z"/>
							<path id="path4529-0_1_" class="st21" d="M-1780.9-2745.6L-1780.9-2745.6L-1780.9-2745.6z"/>
							<path id="path4390-5_1_" class="st21" d="M-1771-2733.6c-0.1,0.3,0.1,0.6,0.6,1C-1770.9-2733-1771.1-2733.3-1771-2733.6z"/>
							<path id="path4394-7_1_" class="st21" d="M-1770.9-2732.1L-1770.9-2732.1L-1770.9-2732.1z"/>
							<path id="path4402-9_1_" class="st21" d="M-1767.2-2752.1L-1767.2-2752.1L-1767.2-2752.1z"/>
							<path id="path4404-3_1_" class="st21" d="M-1769.6-2743L-1769.6-2743L-1769.6-2743z"/>
							<path id="path4406-0_1_" class="st21" d="M-1768.5-2745.6L-1768.5-2745.6L-1768.5-2745.6z"/>
							<path id="path7068-6_1_" class="st22" d="M-1771.4-2769.7L-1771.4-2769.7L-1771.4-2769.7z"/>
							<path id="path7082-6_1_" class="st22" d="M-1779.2-2758.3L-1779.2-2758.3L-1779.2-2758.3z"/>
							<path id="path7084-6_1_" class="st22" d="M-1779-2761.5L-1779-2761.5L-1779-2761.5z"/>
							<path id="path7096-9_1_" class="st22" d="M-1777.6-2765.2L-1777.6-2765.2L-1777.6-2765.2z"/>
							<path id="path7098-1_1_" class="st22" d="M-1780.6-2762.8L-1780.6-2762.8L-1780.6-2762.8z"/>
							<path id="path7100-6_1_" class="st22" d="M-1780.6-2766.6L-1780.6-2766.6L-1780.6-2766.6z"/>
							<path id="path7102-2_1_" class="st22" d="M-1778-2769.7L-1778-2769.7L-1778-2769.7z"/>
							<path id="path7204-7_1_" class="st21" d="M-1785.7-2771.3c-1.2,0.1-3.2,1.3-1.6,2.3c0-0.2,0-0.3,0.1-0.5s0.3-0.3,0.5-0.3
								c0.4-0.1,0.9,0.2,1.5,0.6c0.5,0.4,1.5,0.4,2.2,0.5C-1782.7-2769.3-1785-2770.2-1785.7-2771.3L-1785.7-2771.3L-1785.7-2771.3
								L-1785.7-2771.3z"/>
							<path id="path29377-1_1_" class="st0" d="M-1782.9-2767.9c-0.7,0-1.2,0.5-1.7,0.7s-1.1,0.3-1.5,0.2c0.1,0.3,0.2,0.5,0.5,0.7
								c0.3,0.1,0.7,0,1-0.1l0.8-0.3c0.3-0.1,0.6-0.2,0.9-0.3l0.6-0.8c0-0.1,0-0.1-0.2-0.1
								C-1782.6-2767.9-1782.8-2767.9-1782.9-2767.9z"/>
						</g>
						<path id="path64764-5_2_" class="st23" d="M710.2-135.9c0,0,0.3-0.1,0.4-0.2c0.2-0.1,0.5-0.2,0.5-0.2l0.4-0.2
							c1.8-0.8,3.2-1.5,4.3-2.1s2-1.3,2.8-2.1c1.8-1.6,2.6-3.1,2.9-6c0-0.4,0.1-1.7,0.1-3c0.1-2.4,0.1-11.2,0-11.2
							c0,0-0.2,0.1-0.2,0.2c-0.2,0.2-1,0.6-1.5,0.8c-0.6,0.2-1.6,0.5-2.3,0.6c-0.9,0.2-2.6,0.2-3.5,0c-1.5-0.3-2.8-0.6-3.5-1.1
							l-0.6-0.4"/>
						<g>
							<path id="path2201-2_2_" class="st1" d="M716.4-148.8l0.5-0.6l-5.1-8.4l-0.8-0.6l0.3,1.1L716.4-148.8z"/>
							<path id="path26736-3_2_" class="st1" d="M710.2-152.8c1-0.2,1.3,0.5,1.5,1.4c0,0.1,0,0.3,0.1,0.4l-0.7,1.9
								c-0.2,0.4-0.4,0.8-0.7,1.1c0-0.5-0.1-0.7-0.2-1.1L710.2-152.8z"/>
							<path id="path5796-9-2_2_" class="st1" d="M716.5-149.2l0.5-0.4c0,0.1,0,0.2-0.1,0.3c-0.1,0.4,0.6,1.6,1,2.5
								c0.1,0.2,0.2,0.2,0,0.4s-0.4,0.2-0.5-0.1c-0.4-0.7-0.8-2-1.1-1.9c-0.1,0-0.1,0.1-0.2,0L716.5-149.2z"/>
							<path id="path34841-7_2_" class="st1" d="M717.6-150.2c0.1,0,0.1,0,0.2,0.1c0.1,0.2,0,0.4-0.1,0.6c-0.1,0.2-0.3,0.1-0.4,0
								c0,0,0,0,0-0.1c0,0-0.1-0.1-0.1,0l0,0l-0.4,0.5c0,0,0,0,0,0.1v0.3h-0.2l0,0l-0.7,0.9c-0.1,0.2-0.3,0.1-0.4,0
								c-0.1-0.2,0-0.4,0.1-0.6c0.1-0.2,0.3-0.1,0.4,0c0,0,0,0,0,0.1c0,0,0.1,0.1,0.1,0l0,0l0.4-0.5c0,0,0,0,0-0.1v-0.3h0.2l0,0
								l0.7-0.9l0,0C717.5-150.2,717.5-150.2,717.6-150.2L717.6-150.2L717.6-150.2z"/>
							<path id="path5806-8-0_2_" class="st1" d="M717.2-149.4h0.3l0,0l0,0l0,0l0,0l0,0l0,0v0.1c0,0,0,0,0,0.1l0,0l0,0l0,0v0.1l0,0
								l0,0l0.2,0.1v0.1l0,0c0,0.1,0,0.2,0,0.3v0.1h0.1v0.1l0,0c0,0,0,0,0,0.1l0,0c0,0,0,0,0,0.1l0,0c0,0,0,0.1-0.1,0.2l0,0v0.1l0,0
								l0,0l0,0l0,0l0,0v0.1l0,0c0,0,0,0.1,0,0.2l0,0l0,0l0,0l0,0v0.1l0,0l-0.1,0.1l0,0l0,0l0,0l0,0l0,0c-0.1,0.1-0.2,0.2-0.3,0l0,0
								l0,0l0,0v-0.1v-0.1l0,0v-0.1h-0.1c-0.1,0-0.2,0-0.2-0.1l0,0v-0.1l0,0c0,0,0,0,0-0.1v-0.1l-0.1-0.1c0,0,0,0,0-0.1v-0.1l0,0
								l0,0v-0.1v-0.1l0,0c0,0,0-0.1,0-0.2l0,0l0.1-0.2h-0.1c-0.1,0-0.1,0-0.1,0s-0.1,0-0.1-0.1c0,0.2,0.1,0,0,0.2
								c0,0.1,0,0.1,0,0.1l0,0v0.2l0,0c0,0,0,0,0,0.1s0,0.1,0,0.2c0,0.1,0,0.1,0,0.1v0.1c0,0.1,0.3,0.6,0.3,0.7
								c-0.1,0.4-0.3,0.5-0.5,0.6l-0.4,0.3c-0.2,0.1-0.3,0.2-0.4-0.1c-0.2-0.2-0.2-0.9,0.1-1.5c0,0,0.1,0,0.1-0.1
								c0-0.4,0.2-0.7,0.3-1c0,0,0,0,0-0.1l0,0v-0.1l0,0l0,0l0,0l0,0l0,0c0,0,0,0,0.1,0l0,0l0,0c0,0,0-0.1,0.1-0.1v-0.1l0,0l0,0h0.1
								l0,0l0,0l0,0l0,0L717.2-149.4L717.2-149.4z"/>
							<path id="path10992-1_2_" class="st1" d="M711.9-150.9c0.3,0.3,0.3,1.5,0.7,2.1l-0.1,0.1c0.1,0.2,0.1,0.4,0.2,0.6
								c0,0,0,0,0,0.1v-0.1c0.1,0,0.1,0,0.1,0c0.1,0.1,0,0.2,0,0.3s0.1,0.3,0.1,0.4c0.1,0,0.2,0,0.3,0.1c0.1,0.2,0.2,0.8,0.2,1.3
								l0,0c0,0,0,0,0,0.1l0,0c0.1-0.3,0.2-0.5,0.4-0.7c0-0.1,0.1-0.1,0.1-0.1l0,0l0,0l0,0c0.1,0,0.2,0.1,0.3,0.3
								c0.7-0.3,1.5-0.5,1.8-0.9c0-0.1,0.1-0.1,0.1-0.1c-0.2,0.4-0.1,1.3,0.2,1.6l0.1,0.1c0,0,0,0,0.1,0c-0.1,0,0,0-0.1,0
								c-0.1,0.1-0.3,0.2-0.5,0.3c-0.3,0.3-0.6,0.7-1,1c-0.1,0.1-0.3,0.2-0.4,0.4c0,0.4-0.1,0.7-0.2,0.7c-0.2,0.1-0.6,0-0.8-0.1
								c-0.2,0.2-0.4,0.2-0.7,0.2c0,0.1,0,0.1-0.1,0.1c0,0,0,0,0-0.1c-0.2-0.2-0.3-0.6-0.5-0.9l0,0c-0.2-0.1-0.7-0.6-0.7-0.9
								c0-0.1,0-0.3,0-0.4c-0.1-0.1-0.2-0.3-0.2-0.4c-0.1,0-0.1,0-0.2-0.1c0-0.1,0-0.1,0-0.3c-0.1-0.3-0.2-0.5-0.3-0.8
								c0,0.1,0,0.2-0.1,0.2l0,0l0,0l0,0l0,0l0,0c-0.1,0.1-0.2,0-0.3-0.2c0-0.2,0-0.4,0.1-0.5h0.1c0-0.1-0.1,0-0.3-0.4
								c0.7-0.9,1-2,1.4-3.1C711.8-151,711.8-151,711.9-150.9L711.9-150.9z"/>
							<path id="path2210-7_2_" class="st1" d="M718.4-146.7c-0.2-0.3-0.5-0.4-0.7-0.2s-0.3,0.7-0.1,1s0.5,0.4,0.7,0.2
								C718.5-145.9,718.6-146.3,718.4-146.7L718.4-146.7L718.4-146.7z"/>
						</g>
					</g>
					<g>
						<path class="st1" d="M131.9,99.4c0.3,0.4,0.7,0.9,1,1.4s0.6,0.9,1.2,1.1c0,0,0,0,0,0.1c-0.1,0-0.1,0.1-0.2,0.1
							c-0.2,0-0.5,0-0.7,0c-0.3,0-0.6-0.2-0.8-0.5c-0.4-0.7-0.9-1.3-1.3-2c-0.2-0.3-0.2-0.4,0.2-0.4c0.8-0.1,1.3-0.7,1.1-1.5
							c0-0.2-0.2-0.4-0.3-0.5c-0.3-0.3-1-0.4-1.4-0.3c0,0.1,0,0.1,0,0.2c0,1.2,0,2.4,0,3.7c0,0.1,0,0.2,0,0.4
							c0.1,0.4,0.1,0.5,0.5,0.5c0.1,0,0.2,0,0.2,0.2c0,0.1-0.2,0.1-0.2,0.1c-0.6,0-1.2,0-1.8,0c-0.1,0-0.2-0.1-0.2-0.1
							c0-0.1,0.1-0.2,0.2-0.2c0.4-0.1,0.5-0.2,0.5-0.6c0-1.2,0-2.4,0-3.7c0-0.5-0.1-0.5-0.5-0.6c-0.1,0-0.2-0.1-0.2-0.2
							c0-0.2,0.1-0.1,0.2-0.1c0.7,0,1.3,0,2,0c0.3,0,0.7,0.1,1,0.2c0.5,0.2,0.8,0.5,0.9,1.1c0.1,0.6-0.1,1.1-0.6,1.4
							C132.4,99.2,132.2,99.3,131.9,99.4z"/>
						<path class="st1" d="M142.7,99c0-0.6,0-1.2,0-1.8c0-0.3-0.1-0.4-0.4-0.4c-0.1,0-0.1,0-0.1,0c-0.1-0.1-0.1-0.1-0.1-0.2
							c0.1,0,0.1-0.1,0.2-0.1c0.5,0,1.1,0,1.6,0c0.1,0,0.1,0.1,0.2,0.1c0,0.1-0.1,0.1-0.1,0.2h-0.1c-0.2,0-0.3,0.2-0.3,0.4
							c0,0.3,0,0.5,0,0.8c0,0.8,0,1.5,0,2.3c0,1-0.4,1.5-1.4,1.7c-0.5,0.1-1,0.1-1.4,0c-0.9-0.2-1.4-0.8-1.4-1.8c0-0.8,0-1.5,0-2.3
							c0-0.3,0-0.5,0-0.8c0-0.2-0.1-0.3-0.3-0.4c-0.1,0-0.1,0-0.2,0c-0.1,0-0.1-0.1-0.2-0.2c0.1,0,0.1-0.1,0.2-0.1
							c0.6,0,1.2,0,1.8,0c0.1,0,0.1,0.1,0.2,0.1c0,0.1-0.1,0.1-0.2,0.2c0,0-0.1,0-0.2,0c-0.2,0-0.3,0.1-0.3,0.3c0,0.1,0,0.3,0,0.4
							c0,0.9,0,1.7,0,2.6c0,0.2,0,0.4,0.1,0.7c0.1,0.4,0.4,0.6,0.7,0.7c0.5,0.2,1,0.1,1.5-0.1c0.4-0.2,0.6-0.5,0.6-0.9
							C142.7,99.9,142.7,99.4,142.7,99L142.7,99z"/>
						<path class="st1" d="M135.8,99.3c0,0.6,0,1.2,0,1.8c0,0.2,0.1,0.3,0.3,0.4c0.2,0,0.3,0.1,0.5,0.1c0.1,0,0.1,0.1,0.2,0.2
							c-0.1,0-0.1,0.1-0.2,0.1c-0.7,0-1.5,0-2.2,0c-0.1,0-0.1-0.1-0.2-0.1c0.1-0.1,0.1-0.1,0.2-0.2c0.1,0,0.1,0,0.2-0.1
							c0.2,0,0.3-0.2,0.3-0.4c0-0.3,0-0.7,0-1c0-1,0-2,0-3c0-0.3-0.1-0.4-0.4-0.5c-0.1,0-0.1,0-0.1,0s-0.1-0.1-0.1-0.2
							c0,0,0.1-0.1,0.2-0.1c0.2,0,0.5,0,0.7,0c0.9,0,1.8,0,2.7,0c0.3,0,0.3,0.1,0.3,0.3c0,0.3,0,0.6,0,0.9c0,0.1-0.1,0.2-0.1,0.2
							c-0.1-0.1-0.1-0.1-0.2-0.2c0-0.1,0-0.2-0.1-0.3c-0.1-0.4-0.3-0.5-0.7-0.6c-0.4,0-0.7,0-1.1,0c-0.2,0-0.2,0-0.2,0.2
							c0,0.5,0,1.1,0,1.6c0,0.1,0,0.2,0.1,0.2c0.3,0,0.6,0,1,0c0.3,0,0.4-0.2,0.5-0.4v-0.1c0-0.1,0.1-0.1,0.2-0.1
							c0,0.1,0.1,0.1,0.1,0.2c0,0.2,0,0.3,0,0.5c0,0.3,0,0.6,0,0.9c0,0.1-0.1,0.2-0.1,0.2c-0.1-0.1-0.2-0.1-0.2-0.2
							c-0.1-0.4-0.2-0.5-0.6-0.5C136.4,99.3,136.1,99.3,135.8,99.3z"/>
						<path class="st1" d="M126.9,99.1c0-0.6,0-1.2,0-1.9c0-0.4-0.1-0.5-0.5-0.6h-0.1c0,0-0.1-0.1-0.1-0.2c0,0,0.1-0.1,0.2-0.1
							c0.6,0,1.3,0,1.9,0l0.1,0.1c0,0.1-0.1,0.1-0.1,0.2l0,0c-0.4,0-0.5,0.3-0.5,0.6c0,0.3,0,0.5,0,0.8c0,0.9,0,1.7,0,2.6
							c0,0.1,0,0.2,0,0.3c0.1,0.4,0.1,0.5,0.5,0.6c0.1,0,0.1,0.1,0.2,0.2c-0.1,0-0.1,0.1-0.2,0.1c-0.6,0-1.2,0-1.9,0
							c-0.1,0-0.2-0.1-0.2-0.1c0.1-0.1,0.1-0.1,0.2-0.2c0.4-0.1,0.5-0.2,0.5-0.6C126.9,100.4,126.9,99.7,126.9,99.1L126.9,99.1z"/>
						<path class="st1" d="M140.9,84.5c-0.7,0.9-1.6,1.3-2.7,1.6c-0.4,0.1-0.6,0.3-0.9,0.6c-0.5,0.6-0.7,1.2-0.8,1.9
							c-0.2,1.4-0.1,2.9,0.2,4.3c0.1,0.5,0.2,1,0.3,1.4c0,0.2,0,0.2-0.2,0.2c-1.3,0-2.6,0-3.9,0c-0.1,0-0.1,0-0.2,0
							c0.1-0.1,0.1-0.2,0.1-0.3c0.6-1,1.1-2.1,1.3-3.4c0.3-2-0.2-3.7-1.4-5.2c-0.4-0.5-0.9-1-1.5-1.3c-0.5-0.3-1-0.7-1.5-1
							c0.1,0.5,0.3,1,0.4,1.5c0.1,0.7,0.1,1.3-0.2,1.9s-0.7,0.8-1.4,0.7c-0.4-0.1-0.8-0.3-1.1-0.6c-0.2-0.2-0.4-0.2-0.6-0.2
							c-0.5,0-0.9,0-1.3-0.3c-0.5-0.3-0.7-0.7-0.6-1.2c0.2-0.8,0.7-1.5,1.3-2c0.1-0.1,0.2-0.2,0.4-0.3c0,0,0,0,0-0.1
							c-0.1,0-0.2,0-0.2,0.1c-0.7,0.2-1.5,0.4-2.2,0.3c-0.3-0.1-0.7-0.2-1-0.3c-0.5-0.2-0.6-0.7-0.4-1.3c0.1-0.4,0.3-0.8,0.6-1.1
							c0.2-0.2,0.2-0.4,0.2-0.6c0-0.5,0-1,0.3-1.4c0.3-0.5,0.7-0.7,1.2-0.6c0.8,0.2,1.4,0.7,1.9,1.3c0.2,0.3,0.4,0.5,0.7,0.8
							c0-0.2-0.1-0.4-0.1-0.6c-0.1-0.7-0.2-1.4,0.1-2.1s0.7-1,1.5-0.8c0.4,0.1,0.7,0.3,1.1,0.6c0.2,0.2,0.4,0.2,0.6,0.1
							c1-0.5,2-0.6,3.1-0.6c0.1,0,0.2,0,0.3,0c0-0.6-0.1-1.2-0.1-1.9c-0.1,0.1-0.2,0.1-0.2,0.2c-0.5,0.7-1.3,1-2.1,1.2
							c-0.6,0.2-1.2,0.2-1.8,0.1c-0.7-0.1-1-0.6-0.9-1.3c0-0.4,0.1-0.8,0.3-1.1c0.1-0.2,0.1-0.4,0.1-0.7c-0.2-0.5-0.2-1,0-1.5
							s0.5-0.7,1-0.8c0.7,0,1.3,0.2,1.9,0.6c0.2,0.1,0.4,0.3,0.7,0.5c0,0,0.1,0.1,0.2,0.1c-0.1-0.1-0.1-0.2-0.1-0.2
							c-0.4-0.7-0.7-1.4-0.8-2.2c0-0.4,0-0.8,0.1-1.1c0.1-0.5,0.6-0.7,1.1-0.6c0.4,0,0.8,0.1,1.2,0.3c0.2,0.1,0.4,0.1,0.7,0.1
							c0.4-0.1,0.9-0.2,1.3-0.1c0.6,0.1,0.9,0.5,0.9,1.2c0,0.5-0.1,1-0.4,1.4c-0.3,0.5-0.6,0.9-1,1.4c0,0.1-0.1,0.1-0.1,0.2
							c0.1,0,0.2-0.1,0.3-0.1c0.6-0.3,1.2-0.5,1.9-0.5c0.3,0,0.5,0,0.8,0.1c0.6,0.1,0.9,0.7,0.8,1.4c-0.1,0.3-0.2,0.7-0.3,1
							c-0.1,0.2-0.1,0.4-0.1,0.6c0.1,0.5,0.2,0.9,0.1,1.4c-0.1,0.6-0.5,0.9-1.1,0.9c-0.8,0-1.5-0.3-2.1-0.8
							c-0.5-0.4-0.9-0.8-1.2-1.3c0-0.1-0.1-0.1-0.1-0.1s0,0-0.1-0.1c0,0.1-0.1,0.2-0.1,0.3c0,0.5,0.1,1,0.1,1.5
							c0,0.1,0.1,0.1,0.2,0.2c1.4,0.2,2.6,0.7,3.7,1.5c0,0,0,0,0.1,0c0.1-0.1,0.2-0.2,0.3-0.4c0.2-0.4,0.6-0.7,1-0.8
							c0.5-0.2,0.9-0.2,1.3,0.3c0.4,0.5,0.6,1,0.7,1.6c0.1,0.3,0.1,0.7,0.1,1.1c0,0,0,0.1,0.1,0.2c0-0.1,0.1-0.1,0.1-0.2
							c0.2-0.7,0.5-1.3,1-1.8c0.3-0.3,0.6-0.5,0.9-0.7c0.4-0.2,0.8-0.2,1.2,0.2c0.4,0.4,0.6,0.8,0.7,1.3c0,0.2,0.2,0.4,0.4,0.5
							c0.4,0.2,0.7,0.6,0.9,1c0.3,0.6,0.2,1-0.3,1.4c-0.5,0.5-1.1,0.7-1.8,0.7c-0.5,0.1-0.9,0.1-1.4,0.1c0.1,0.1,0.2,0.1,0.2,0.1
							c0.5,0.3,0.9,0.5,1.3,0.8c0.4,0.2,0.6,0.6,0.8,1s0.1,0.8-0.2,1.1c-0.4,0.4-0.8,0.6-1.3,0.7c-0.3,0.1-0.5,0.2-0.6,0.4
							c-0.3,0.4-0.6,0.7-1.1,0.9c-0.5,0.2-0.9,0.1-1.2-0.3c-0.4-0.4-0.6-0.9-0.7-1.5C141,85.5,141,85,140.9,84.5z M133.9,80.2
							c0,0.1-0.1,0.1-0.2,0.1c-0.1,0-0.1-0.1-0.1-0.2s0-0.1,0-0.2c0-0.2-0.1-0.2-0.2-0.3c-0.9-0.2-1.7-0.3-2.6-0.3
							c-0.3,0-0.6,0.1-0.9,0.2c-0.3,0.1-0.4,0.3-0.5,0.6c-0.1,1,0.2,1.8,0.9,2.5c1.7,1.4,3.6,2.3,5.8,2.6c0.8,0.1,1.7,0,2.5-0.3
							c0.5-0.2,1-0.4,1.3-0.9s0.3-0.9-0.1-1.3c-0.6-0.6-1.3-1.1-2-1.5c-0.6-0.3-1.2-0.6-1.9-0.9c-0.1,0.2-0.1,0.4-0.2,0.5
							c0,0.1-0.1,0.1-0.2,0.2c-0.1-0.1-0.1-0.1-0.2-0.2c0-0.2,0-0.4-0.1-0.6c-0.4-0.2-0.4-0.2-0.5,0.3c0,0.1-0.1,0.1-0.2,0.2
							c-0.1-0.1-0.1-0.1-0.2-0.2v-0.1c0-0.4,0-0.4-0.4-0.5c0,0,0,0-0.1,0C134,80,134,80.1,133.9,80.2z M135.8,79.8
							c0.2-0.1,0.4,0,0.4,0.1c0,0.2,0.1,0.2,0.2,0.3c0.9,0.4,1.8,0.8,2.5,1.4c0.4,0.3,0.8,0.7,1.2,1.1c0.1,0.1,0.2,0.1,0.3,0.1
							c0-0.1,0.1-0.2,0.1-0.3c-0.1-0.8-0.5-1.5-1-2.2c-1.1-1.5-2.6-2.4-4.5-2.7c-1.5-0.3-3-0.2-4.4,0.6c-0.3,0.1-0.5,0.3-0.7,0.5
							c-0.1,0.1-0.1,0.2-0.1,0.3c0,0.1,0.2,0.1,0.3,0.1s0.1,0,0.2,0c0.3,0,0.6-0.1,0.8,0c0.8,0.1,1.6,0.2,2.4,0.3
							c0.1,0,0.2,0,0.2-0.1c0.1-0.1,0.2-0.2,0.4-0.2c0.1,0,0.2,0,0.2,0.1s0,0.2,0,0.2s0,0.1-0.1,0.1c0.2,0.1,0.4,0.1,0.6,0
							c0.1-0.1,0.2-0.1,0.3,0c0.1,0,0.1,0.2,0.1,0.3C135.5,79.9,135.5,79.9,135.8,79.8z M133.6,85.7c0.2,0.3,0.4,0.6,0.6,0.9
							c0.5,1.1,0.6,2.3,0.6,3.5c0,0.8-0.1,1.5-0.1,2.4c0.2-0.4,0.4-0.7,0.5-1.1c0.5-1.4,0.6-2.9,0.5-4.3c0-0.3-0.1-0.5-0.2-0.8
							c0-0.2-0.2-0.2-0.4-0.3c-0.5-0.1-0.9-0.3-1.4-0.4c-0.1,0-0.2-0.1-0.3-0.1C133.6,85.6,133.6,85.6,133.6,85.7z"/>
					</g>
				</g>
			</g>
		</g>
	</g>
	<g>
		<path class="st24" d="M182.5,62.1c0,0,9.1,76.1-49,88.5c-58-12.4-49-88.5-49-88.5s32.9-30.6,88.5-41.4
			C173,20.7,180.4,38.5,182.5,62.1z"/>
	</g>
</g>
<image style="overflow:visible;enable-background:new    ;" width="600" height="649" xlink:href="dt-ire.png"  transform="matrix(0.188 0 0 0.188 223 24.7118)">
</image>
</svg>
