<?xml version="1.0" encoding="utf-8"?>
<!-- Generator: Adobe Illustrator 24.1.2, SVG Export Plug-In . SVG Version: 6.00 Build 0)  -->
<svg version="1.1" id="Layer_1" xmlns="http://www.w3.org/2000/svg" xmlns:xlink="http://www.w3.org/1999/xlink" x="0px" y="0px"
	 viewBox="0 0 425 211.5" style="enable-background:new 0 0 425 211.5;" xml:space="preserve">
<style type="text/css">
	.st0{fill:#24B865;}
	.st1{clip-path:url(#SVGID_8_);}
	.st2{fill:none;stroke:#FFFFFF;stroke-width:0.75;stroke-linecap:round;stroke-linejoin:round;stroke-miterlimit:10;}
	.st3{clip-path:url(#SVGID_10_);fill:none;}
	.st4{fill:#FFFFFF;}
	.st5{fill:#FFFFFF;stroke:#24B865;stroke-width:0.3;stroke-linecap:round;stroke-linejoin:round;}
	.st6{clip-path:url(#SVGID_12_);fill:none;}
	.st7{fill:#FFFFFF;stroke:#24B865;stroke-width:0.3;stroke-linecap:round;}
	.st8{clip-path:url(#SVGID_14_);fill:none;}
	.st9{fill:none;stroke:#FFFFFF;stroke-width:0.5;stroke-miterlimit:10;}
	.st10{fill:#FFFFFF;stroke:#FFFFFF;stroke-width:0.5;stroke-linecap:round;stroke-linejoin:round;}
	
		.st11{fill-rule:evenodd;clip-rule:evenodd;fill:#24B865;stroke:#FFFFFF;stroke-width:0.3;stroke-linecap:round;stroke-linejoin:round;}
	.st12{fill:none;stroke:#FFFFFF;stroke-width:0.3;stroke-linecap:round;stroke-linejoin:round;}
	.st13{fill:#CC0000;}
	.st14{fill:none;stroke:#FFFFFF;stroke-width:0.75;stroke-linecap:round;stroke-linejoin:round;}
	.st15{fill:#FFFFFF;stroke:#FFFFFF;stroke-width:4.077249e-02;stroke-linecap:round;stroke-linejoin:round;stroke-miterlimit:10;}
	.st16{fill:none;stroke:#FFFFFF;stroke-width:4.077249e-02;stroke-linecap:round;stroke-linejoin:round;stroke-miterlimit:10;}
	.st17{fill:none;stroke:#FFFFFF;stroke-width:1.630452e-02;stroke-miterlimit:10;}
	.st18{fill:#FFFFFF;stroke:#FFFFFF;stroke-width:0.75;stroke-linecap:round;stroke-linejoin:round;}
	.st19{fill-rule:evenodd;clip-rule:evenodd;fill:#24B865;}
	.st20{fill:none;stroke:#646464;stroke-width:1.5041;}
	.st21{fill:#24B865;stroke:#FFFFFF;stroke-width:0.75;stroke-linecap:round;stroke-linejoin:round;}
	.st22{fill:none;stroke:#FFFFFF;stroke-width:1.25;stroke-linecap:round;stroke-linejoin:round;stroke-miterlimit:10;}
	.st23{display:none;}
	.st24{display:inline;fill:#FFFFFF;}
	.st25{font-family:'Roboto-Bold';}
	.st26{font-size:12px;}
	.st27{display:inline;}
	.st28{clip-path:url(#SVGID_16_);}
	.st29{fill-rule:evenodd;clip-rule:evenodd;fill:#FFFFFF;}
	.st30{fill-rule:evenodd;clip-rule:evenodd;fill:#EC1C24;}
	.st31{opacity:0.2;fill-rule:evenodd;clip-rule:evenodd;fill:#FFFFFF;enable-background:new    ;}
	.st32{clip-path:url(#SVGID_18_);}
	
		.st33{fill-rule:evenodd;clip-rule:evenodd;fill:#FFFFFF;stroke:#FFFFFF;stroke-width:2;stroke-linecap:round;stroke-linejoin:round;stroke-miterlimit:10;}
	
		.st34{fill-rule:evenodd;clip-rule:evenodd;fill:#24B865;stroke:#FFFFFF;stroke-width:2;stroke-linecap:round;stroke-linejoin:round;stroke-miterlimit:10;}
	.st35{font-size:12.0026px;}
	.st36{clip-path:url(#SVGID_20_);fill:#FFFFFF;}
	.st37{clip-path:url(#SVGID_22_);}
	.st38{fill:#FFFFFF;stroke:#FFFFFF;stroke-width:0.3;stroke-linecap:round;stroke-linejoin:round;}
	.st39{clip-path:url(#SVGID_24_);}
</style>
<rect x="-0.1" y="-0.6" class="st0" width="425.3" height="211.7"/>
<text transform="matrix(1 0 0 1 456.743 166.9266)" class="st4 st25 st26">COACH:</text>
<text transform="matrix(1 0 0 1 426.243 181.3266)" class="st4 st25 st26">JOE SCHMIDT (NZ)</text>
<text transform="matrix(1 0 0 1 -99.0242 166.9274)" class="st4 st25 st26">IRELAND</text>
<g>
	<g>
		<path id="SVGID_1_" class="st0" d="M-25.6,62.1c0,0,9.1,76.1-49,88.5c-58-12.4-49-88.5-49-88.5s32.9-30.6,88.5-41.4
			C-35.1,20.7-27.7,38.5-25.6,62.1z"/>
	</g>
	<g>
		<g>
			<g>
				<defs>
					<path id="SVGID_2_" d="M-25.6,62.1c0,0,9.1,76.1-49,88.5c-58-12.4-49-88.5-49-88.5s32.9-30.6,88.5-41.4
						C-35.1,20.7-27.7,38.5-25.6,62.1z"/>
				</defs>
				<clipPath id="SVGID_8_">
					<use xlink:href="#SVGID_2_"  style="overflow:visible;"/>
				</clipPath>
				<g class="st1">
					<g id="g78822" transform="translate(-544.934,251.396)">
						<path id="path7014-6-7-28-3-2-4-5-1" class="st2" d="M427.2-149.7c0.1,3.3,0.2,5.9,1.9,7.9c2,2.4,5.4,4.2,9.7,5.9
							c4.3-1.7,7.6-3.5,9.7-5.9c1.7-2,1.9-4.6,1.9-7.9c0.1-3.4,0.1-7.8,0-11.2c-3.6,2.7-9.5,1.8-11.6,0.1c-2.9,2-8.2,2.7-11.5-0.1
							C427.1-157.5,427.1-153.1,427.2-149.7L427.2-149.7z"/>
						<g id="g84776-5_1_" transform="matrix(0.156684,0,0,0.189706,-492.101,245.296)">
							<g>
								<g>
									<g>
										<g>
											<defs>
												<polygon id="SVGID_9_" points="5952.8,-2091 5946.1,-2116 5958.9,-2103.5 5961.6,-2119.6 5967.7,-2105 5973.2,-2121.8 
													5978.6,-2105 5984.7,-2119.6 5987.4,-2103.5 6000.3,-2116 5993.5,-2091 5993.5,-2078.5 5952.8,-2078.5 												"/>
											</defs>
											<clipPath id="SVGID_10_">
												<use xlink:href="#SVGID_9_"  style="overflow:visible;"/>
											</clipPath>
											<ellipse id="circle7886-1_1_" class="st3" cx="5973.2" cy="-2138.2" rx="7.5" ry="9.9"/>
										</g>
									</g>
								</g>
							</g>
							<path id="path3929-42-2-1_1_" class="st4" d="M5942.8-2112c3,5.8,6,11.6,8.9,17.4h44c3.3-5.8,5.8-11.6,9.1-17.4l-11.2,9.7
								l-1-15.4l-11.9,14.2l-6.2-15.9l-6.8,15.9l-10.9-14.2l-2.1,15.4L5942.8-2112z"/>
							<path id="path9241-03_1_" class="st4" d="M5973.8-2090.2c-7.9,0-15,1.7-20,4.2c0.4-0.3-0.2-3.2-0.7-5.4
								c-0.6-2.7-1.5-3.1-1.5-3.1c5.5-2.7,13.8-4.6,22.3-4.6c8.6,0,16.8,1.9,22.4,4.6c0,0-1.1,0.6-1.7,3.3c-0.5,2.2-0.9,5-0.5,5.3
								C5988.9-2088.5,5981.7-2090.1,5973.8-2090.2"/>
							<path id="path9243-6_1_" class="st0" d="M5973.8-2098.4c-8.6,0-16.3,1.7-21.8,4.4c-0.4,0.2-0.8-0.1-0.9-0.6
								c-0.1-0.6,0.1-1.2,0.4-1.4c5.6-2.8,13.5-4.6,22.2-4.6c8.8,0,16.7,1.8,22.3,4.6c0.4,0.2,0.6,0.8,0.4,1.4
								c-0.1,0.6-0.5,0.8-0.9,0.6C5990.1-2096.7,5982.4-2098.4,5973.8-2098.4"/>
							<path id="path9371-96_1_" class="st4" d="M5973.9-2079.5c-7.8,0-14.8-1.5-19.8-4c-0.4-0.2-0.6-0.7-0.5-1.3
								c0-0.6,0.2-1.1,0.5-1.2c5-2.5,12-4,19.8-4s14.8,1.5,19.8,4c0.4,0.2,0.5,0.7,0.5,1.2c0,0.6-0.2,1.1-0.5,1.3
								C5988.7-2081.1,5981.7-2079.6,5973.9-2079.5"/>
							<path id="path9373-9_1_" class="st0" d="M5973.8-2081.2c-7.1,0-13.4-1.4-18.3-3.4c4.9-2.1,11.2-3.3,18.3-3.4
								c7.1,0,13.5,1.3,18.3,3.4C5987.3-2082.6,5980.9-2081.2,5973.8-2081.2"/>
							<path id="path9375-6_1_" class="st5" d="M5973.9-2091.7c-1.8,0-3.3-1.1-3.3-2.5s1.5-2.5,3.3-2.5s3.3,1.1,3.3,2.5
								C5977.2-2092.9,5975.7-2091.7,5973.9-2091.7"/>
							<path id="path9379-95_1_" class="st5" d="M5994.9-2092.6c-0.1,0-0.1-0.1-0.2-0.1c-1.8-0.8-3.4-0.4-3.6,0.9
								c-0.2,1.3,1,3.1,2.7,4c0.1-0.2,0.2-0.3,0.3-0.5c0.1-0.3,0.2-0.6,0.3-0.9c0.1-0.3,0.2-0.6,0.2-0.9c0.1-0.3,0.1-0.6,0.1-0.9
								c0-0.3,0.1-0.6,0.1-0.8C5995-2092.1,5994.9-2092.3,5994.9-2092.6L5994.9-2092.6z"/>
							<path id="path9383-42_1_" class="st5" d="M5952.8-2092.7c1.8-0.8,3.4-0.4,3.6,0.9c0.2,1.3-1,3.1-2.7,4
								c-0.1-0.2-0.2-0.3-0.3-0.5c-0.1-0.3-0.2-0.6-0.3-0.9c-0.1-0.3-0.2-0.6-0.2-0.9c-0.1-0.3-0.1-0.6-0.1-0.9
								c0-0.3-0.1-0.6-0.1-0.8c0-0.3,0-0.5,0-0.8C5952.7-2092.6,5952.8-2092.7,5952.8-2092.7z"/>
						</g>
						<g id="g84776-5_2_" transform="matrix(0.156684,0,0,0.189706,-492.101,245.296)">
							<g>
								<g>
									<g>
										<g>
											<defs>
												<polygon id="SVGID_11_" points="5886.2,-2091 5879.4,-2116 5892.3,-2103.5 5895,-2119.6 5901.1,-2105 5906.5,-2121.8 
													5911.9,-2105 5918,-2119.6 5920.7,-2103.5 5933.6,-2116 5926.8,-2091 5926.8,-2078.5 5886.2,-2078.5 												"/>
											</defs>
											<clipPath id="SVGID_12_">
												<use xlink:href="#SVGID_11_"  style="overflow:visible;"/>
											</clipPath>
											<ellipse id="circle7886-1_2_" class="st6" cx="5906.5" cy="-2138.2" rx="7.5" ry="9.9"/>
										</g>
									</g>
								</g>
							</g>
							<path id="path3929-42-2-1_2_" class="st4" d="M5876.2-2112c3,5.8,6,11.6,8.9,17.4h44c3.3-5.8,5.8-11.6,9.1-17.4l-11.2,9.7
								l-1-15.4l-11.9,14.2l-6.2-15.9l-6.8,15.9l-10.9-14.2l-2.1,15.4L5876.2-2112z"/>
							<path id="path9241-03_2_" class="st4" d="M5907.1-2090.2c-7.9,0-15,1.7-20,4.2c0.4-0.3-0.2-3.2-0.7-5.4
								c-0.6-2.7-1.5-3.1-1.5-3.1c5.5-2.7,13.8-4.6,22.3-4.6c8.6,0,16.8,1.9,22.4,4.6c0,0-1.1,0.6-1.7,3.3c-0.5,2.2-0.9,5-0.5,5.3
								C5922.3-2088.5,5915.1-2090.1,5907.1-2090.2"/>
							<path id="path9243-6_2_" class="st0" d="M5907.2-2098.4c-8.6,0-16.3,1.7-21.8,4.4c-0.4,0.2-0.8-0.1-0.9-0.6
								c-0.1-0.6,0.1-1.2,0.4-1.4c5.6-2.8,13.5-4.6,22.2-4.6c8.8,0,16.7,1.8,22.3,4.6c0.4,0.2,0.6,0.8,0.4,1.4
								c-0.1,0.6-0.5,0.8-0.9,0.6C5923.5-2096.7,5915.8-2098.4,5907.2-2098.4"/>
							<path id="path9371-96_2_" class="st4" d="M5907.2-2079.5c-7.8,0-14.8-1.5-19.8-4c-0.4-0.2-0.6-0.7-0.5-1.3
								c0-0.6,0.2-1.1,0.5-1.2c5-2.5,12-4,19.8-4s14.8,1.5,19.8,4c0.4,0.2,0.5,0.7,0.5,1.2c0,0.6-0.2,1.1-0.5,1.3
								C5922-2081.1,5915-2079.6,5907.2-2079.5"/>
							<path id="path9373-9_2_" class="st0" d="M5907.2-2081.2c-7.1,0-13.4-1.4-18.3-3.4c4.9-2.1,11.2-3.3,18.3-3.4
								c7.1,0,13.5,1.3,18.3,3.4C5920.7-2082.6,5914.3-2081.2,5907.2-2081.2"/>
							<path id="path9375-6_2_" class="st7" d="M5907.2-2091.7c-1.8,0-3.3-1.1-3.3-2.5s1.5-2.5,3.3-2.5s3.3,1.1,3.3,2.5
								C5910.5-2092.9,5909-2091.7,5907.2-2091.7"/>
							<path id="path9379-95_2_" class="st7" d="M5928.3-2092.6c-0.1,0-0.1-0.1-0.2-0.1c-1.8-0.8-3.4-0.4-3.6,0.9
								c-0.2,1.3,1,3.1,2.7,4c0.1-0.2,0.2-0.3,0.3-0.5c0.1-0.3,0.2-0.6,0.3-0.9c0.1-0.3,0.2-0.6,0.2-0.9c0.1-0.3,0.1-0.6,0.1-0.9
								c0-0.3,0.1-0.6,0.1-0.8C5928.3-2092.1,5928.3-2092.3,5928.3-2092.6L5928.3-2092.6z"/>
							<path id="path9383-42_2_" class="st7" d="M5886.2-2092.7c1.8-0.8,3.4-0.4,3.6,0.9c0.2,1.3-1,3.1-2.7,4
								c-0.1-0.2-0.2-0.3-0.3-0.5c-0.1-0.3-0.2-0.6-0.3-0.9c-0.1-0.3-0.2-0.6-0.2-0.9c-0.1-0.3-0.1-0.6-0.1-0.9
								c0-0.3-0.1-0.6-0.1-0.8c0-0.3,0-0.5,0-0.8C5886-2092.6,5886.1-2092.7,5886.2-2092.7z"/>
						</g>
						<g id="g84776-5_3_" transform="matrix(0.156684,0,0,0.189706,-492.101,245.296)">
							<g>
								<g>
									<g>
										<g>
											<defs>
												<polygon id="SVGID_13_" points="5919.5,-2044.8 5912.7,-2069.7 5925.6,-2057.2 5928.3,-2073.4 5934.4,-2058.7 
													5939.8,-2075.6 5945.3,-2058.7 5951.4,-2073.4 5954.1,-2057.2 5966.9,-2069.7 5960.2,-2044.8 5960.2,-2032.3 
													5919.5,-2032.3 												"/>
											</defs>
											<clipPath id="SVGID_14_">
												<use xlink:href="#SVGID_13_"  style="overflow:visible;"/>
											</clipPath>
											<ellipse id="circle7886-1_3_" class="st8" cx="5939.8" cy="-2092" rx="7.5" ry="9.9"/>
										</g>
									</g>
								</g>
							</g>
							<path id="path3929-42-2-1_3_" class="st4" d="M5909.5-2065.8c3,5.8,6,11.6,8.9,17.4h44c3.3-5.8,5.8-11.6,9.1-17.4l-11.2,9.7
								l-1-15.4l-11.9,14.2l-6.2-15.9l-6.8,15.9l-10.9-14.2l-2.1,15.4L5909.5-2065.8z"/>
							<path id="path9241-03_3_" class="st4" d="M5940.5-2043.9c-7.9,0-15,1.7-20,4.2c0.4-0.3-0.2-3.2-0.7-5.4
								c-0.6-2.7-1.5-3.1-1.5-3.1c5.5-2.7,13.8-4.6,22.3-4.6c8.6,0,16.8,1.9,22.4,4.6c0,0-1.1,0.6-1.7,3.3c-0.5,2.2-0.9,5-0.5,5.3
								C5955.6-2042.2,5948.4-2043.9,5940.5-2043.9"/>
							<path id="path9243-6_3_" class="st0" d="M5940.5-2052.2c-8.6,0-16.3,1.7-21.8,4.4c-0.4,0.2-0.8-0.1-0.9-0.6
								c-0.1-0.6,0.1-1.2,0.4-1.4c5.6-2.8,13.5-4.6,22.2-4.6c8.8,0,16.7,1.8,22.3,4.6c0.4,0.2,0.6,0.8,0.4,1.4
								c-0.1,0.6-0.5,0.8-0.9,0.6C5956.8-2050.5,5949.1-2052.2,5940.5-2052.2"/>
							<path id="path9371-96_3_" class="st4" d="M5940.5-2033.3c-7.8,0-14.8-1.5-19.8-4c-0.4-0.2-0.6-0.7-0.5-1.3
								c0-0.6,0.2-1.1,0.5-1.2c5-2.5,12-4,19.8-4s14.8,1.5,19.8,4c0.4,0.2,0.5,0.7,0.5,1.2c0,0.6-0.2,1.1-0.5,1.3
								C5955.4-2034.8,5948.4-2033.3,5940.5-2033.3"/>
							<path id="path9373-9_3_" class="st0" d="M5940.5-2035c-7.1,0-13.4-1.4-18.3-3.4c4.9-2.1,11.2-3.3,18.3-3.4
								c7.1,0,13.5,1.3,18.3,3.4C5954-2036.3,5947.6-2035,5940.5-2035"/>
							<path id="path9375-6_3_" class="st5" d="M5940.5-2045.5c-1.8,0-3.3-1.1-3.3-2.5c0-1.4,1.5-2.5,3.3-2.5s3.3,1.1,3.3,2.5
								C5943.8-2046.6,5942.4-2045.5,5940.5-2045.5"/>
							<path id="path9379-95_3_" class="st5" d="M5961.6-2046.3c-0.1,0-0.1-0.1-0.2-0.1c-1.8-0.8-3.4-0.4-3.6,0.9
								c-0.2,1.3,1,3.1,2.7,4c0.1-0.2,0.2-0.3,0.3-0.5c0.1-0.3,0.2-0.6,0.3-0.9c0.1-0.3,0.2-0.6,0.2-0.9c0.1-0.3,0.1-0.6,0.1-0.9
								c0-0.3,0.1-0.6,0.1-0.8C5961.6-2045.8,5961.6-2046.1,5961.6-2046.3L5961.6-2046.3z"/>
							<path id="path9383-42_3_" class="st5" d="M5919.5-2046.4c1.8-0.8,3.4-0.4,3.6,0.9c0.2,1.3-1,3.1-2.7,4
								c-0.1-0.2-0.2-0.3-0.3-0.5c-0.1-0.3-0.2-0.6-0.3-0.9c-0.1-0.3-0.2-0.6-0.2-0.9c-0.1-0.3-0.1-0.6-0.1-0.9
								c0-0.3-0.1-0.6-0.1-0.8c0-0.3,0-0.5,0-0.8L5919.5-2046.4z"/>
						</g>
					</g>
					<g>
						<path id="path7014-6-7-28-3-2-4-5-1-1-1_1_" class="st2" d="M-118.1,65c0.1,3.3,0.2,5.9,1.9,7.9c2,2.4,5.3,4.2,9.6,5.9
							c4.3-1.7,7.6-3.5,9.6-5.9c1.7-2,1.9-4.6,1.9-7.9c0.1-3.4,0.1-7.8,0-11.2c-3.6,2.7-9.5,1.8-11.6,0.1c-2.9,2-8.2,2.7-11.5-0.1
							C-118.1,57.1-118.1,61.5-118.1,65L-118.1,65z"/>
						<path id="path63519_4_" class="st9" d="M-109.5,77.4v-2.5c0-1.5,0-3.6,0-4.8v-2.2h-4.2h-4.1"/>
						<path id="path63519_3_" class="st9" d="M-95.1,68h-4.1h-4.1v1.1c0,0.9,0.1,7.6,0.1,8.3"/>
						<path id="path63519_5_" class="st9" d="M-103.4,55.2v3.2v3.2h4.2h4.3"/>
						<path id="path63519_1_" class="st9" d="M-118.1,61.5h4.3h4.2V59c0-1.4,0-2.8,0-3.2v-0.6"/>
						<path id="path7014-6-7-28-2-87_1_" class="st10" d="M-110.8,59.5c0,1.6,0,3.3,0,4.9c0,1.6,0.1,2.8,0.7,3.8
							c0.7,1.2,2,2,3.5,2.8c1.6-0.8,2.8-1.7,3.5-2.8c0.6-1,0.7-2.2,0.7-3.8s0-3.3,0-4.9H-110.8L-110.8,59.5z"/>
						<g id="g9597-9_1_" transform="matrix(-0.234377,0,0,0.231606,-73.243,415.548)">
							<g id="g10725-5_1_">
								<g id="g3657-9_1_" transform="matrix(1.21977,0,0,1.21977,-43.0033,-4.45441)">
									<path id="path8616-8_1_" class="st11" d="M147.2-1241.2c-0.1-0.3-0.3-1.1-0.3-1.3c-0.2-1.1-1.7-1.7-2.3-1.1
										c-0.4,0.3,0.1,1.4,0.1,2.1c0,0.6-0.8,2.3-0.8,3.1s0.2,4.7,0.2,5.7c0,1.1,1.1,2,1.7,2.8c0.6,0.9,1.2,1.5,1.4,2.8
										c0.3,1.5,0.1,1.8-0.2,3.6c0.1,0.4,7,1.6,9.9-0.1c-0.3-1.3-0.4-2.4-0.2-4.2c0.9-1.7,2.4-2.9,2.8-4.1
										c0.4-1.2,0.4-3.9,0.2-4.9c-0.1-0.5-0.3-3.3-0.4-3.5c0-0.3-0.1-3.3-0.1-3.4s0-3.1-0.1-3.4c-0.3-1.4-2.5-1.3-2.7,0
										c-0.1,0.3-0.1,4.2-0.1,4.2c0,0.1,0,2.6,0,2.9c-0.1-0.3,0-4.7,0-5.4c0-1.6,0.1-4.7,0-5c0-1.2-2.4-1.6-2.8,0
										c-0.1,0.4-0.1,5-0.1,4.9c0,0.1-0.1,4.4-0.1,4.5c-0.1,0.3,0.1-7.1,0.1-7.2s0-2.4,0-3.6c-0.1-1.6-3-1.7-3,0.1
										c0,0.1-0.1,3.1-0.1,3.2v0.9c0,0-0.1,6-0.1,6.3c0-0.3,0-2.8,0-2.8s0.2-6.1,0-6.5c-0.3-1-2.4-1.1-2.6,0.3
										c-0.1,0.1-0.1,2.9-0.1,3s-0.1,3.1-0.1,3.3c0,0.1,0,1.1,0,1.2C147.2-1241.6,147.2-1241.2,147.2-1241.2L147.2-1241.2z"/>
									<path id="path8681-8_1_" class="st12" d="M147.2-1241.5c0.3,1.1-0.2,2-0.2,2.6s0.3,2,0.3,2l0.1,0.2c0,0,2.1,0.3,2.9,0.9
										c0.8,0.6,1.7,3.6,1.4,5.7"/>
								</g>
							</g>
						</g>
						<path id="path46369_1_" class="st13" d="M-95.1,66.9L-95.1,66.9L-95.1,66.9L-95.1,66.9L-95.1,66.9z"/>
						<path id="path46371_1_" class="st13" d="M-95.1,66.9L-95.1,66.9L-95.1,66.9L-95.1,66.9L-95.1,66.9z"/>
					</g>
					<g>
						<path id="path7014-6-7-28-3-2-4-5-1-1_1_" class="st14" d="M-54.4,65c0.1,3.3,0.2,5.9,1.9,7.9c2,2.4,5.4,4.2,9.7,5.9
							c4.3-1.7,7.6-3.5,9.7-5.9c1.7-2,1.9-4.6,1.9-7.9c0.1-3.4,0.1-7.8,0-11.2c-3.6,2.7-9.5,1.8-11.6,0.1c-2.9,2-8.2,2.7-11.5-0.1
							C-54.4,57.1-54.4,61.5-54.4,65L-54.4,65z"/>
						<g id="g113300_1_" transform="matrix(0.87394196,0,0,0.90257648,-176.44322,55.820288)">
							<g id="g30394-4_1_" transform="matrix(0.03554807,-0.00735372,0.00789863,0.0334871,968.97343,435.61974)">
								<g id="g28386-1-5_1_" transform="matrix(8.9876989,0,0,9.1852387,-7108.3373,1263.1939)">
									<path id="path10147-8-3-7-4-6-1_1_" class="st15" d="M-1340.3-1952.8c-2.2-0.1-2.3-0.1-2.9-0.3c-0.3-0.1-0.7-0.2-0.7-0.2
										l-0.2-0.1c-0.1,0-0.3-0.1-0.3-0.1s3.4-8.3,7.5-18.3l7.4-18.1l-0.2-0.4c-0.2-0.6-0.4-0.9-0.8-1.2c-0.1-0.1-0.2-0.1-0.3-0.2
										s-0.2-0.1-0.4-0.1c-0.1,0-0.3-0.1-0.4-0.1s-0.3-0.1-0.5-0.1l-0.2-0.1l0.2-0.2c0.2-0.2,0.5-0.3,0.6-0.3
										c0.2,0,1.8,0.3,2.4,0.5c0.8,0.2,1.6,0.6,2.3,1.2l0.6,0.4l0.1,0.5c0.2,0.7,0.2,1,0,1.4c-0.1,0.2-2.6,8-5.7,17.4
										c-3.1,9.4-5.7,17.4-5.9,17.8c-0.2,0.6-0.2,0.8-0.3,0.8C-1337.9-1952.5-1339.1-1952.7-1340.3-1952.8z"/>
									<path id="path10163-2-7-5-7-0-4_1_" class="st15" d="M-1356-1993.5c0.7-1,2.3-2.9,3.2-4.1c0.4-0.6,0.9-1.2,1.4-1.8l0.1,0.1
										l-2.3,2.9c-2.1,2.7-2.2,2.9-2.2,2.9C-1355.9-1993.4-1356-1993.4-1356-1993.5z"/>
									<path id="path10157-4-6-6-3-2-1_1_" class="st15" d="M-1352-1947.3c-0.7-0.1-0.8-0.3-1.5-1.5l-0.1-0.1l-0.1,0.1
										c-0.3,0.4-1.2,0.4-1.8,0.3c-0.6-0.2-1.1-1.1-1.1-1.7c0.1-0.8,0.8-1.3,1.6-1.1c0.3,0.1,0.8,0.5,0.9,0.8
										c0.1,0.3,0.1,0.4,0,0.6c-0.1,0.1-0.2,0.2-0.4,0.3c-0.2,0.1-0.4,0.1-0.7,0c-0.4-0.1-0.4-0.2-0.4,0c0,0.1,0.4,0.2,0.7,0.2
										c0.3,0.1,0.7-0.1,0.9-0.3c0.2-0.2,0-0.9-0.1-0.9c-0.1-0.1-0.4-0.7-1-1.6c-0.5-0.9-1.3-2.1-2-3.4l-2.7-4.7h-0.4
										c-0.4,0-0.7-0.3-0.7-0.5c0-0.1,0.1-0.3,0.2-0.4c0.2-0.2,0.2-0.2,0-0.4c-0.2-0.2-0.2-0.4,0-0.6c0.1-0.1,0.2-0.2,0.2-0.3
										c0-0.1-0.4-0.7-0.6-1.3c-0.9-2.7-1.3-5.1-1.6-7.7c-0.3-2.1,0-5.5,0.4-8c0.7-4.5,2.7-8.7,5.1-11.7c0.2-0.2,0.3-0.4,0.3-0.4
										s-0.1-0.1-0.2-0.2c-0.2-0.2-0.2-0.4-0.1-0.5s0.1-0.4,0-0.4h-0.2l0.2-0.3c0.1-0.2,0.5-0.2,1-0.1c0.2,0,0.2,0,2.4-2.8
										c1.2-1.6,2.3-3,2.3-3s0.9,0.8,1.9,1.8l1.8,1.8l-0.7,0.6c-4.9,4.5-8.6,10.8-9.3,16.7c-0.2,1.6-0.2,4,0.1,5.6
										c0.5,3.2,1.6,6.2,3.8,10.9l0.6,1.1l1.5,1.6c0.8,0.9,1.7,1.9,2,2.3l0.6,0.7l-0.6,0.7c-2.1,2.4-3.1,4.7-3.3,6
										c-0.1,0.9,0.1,1.4,0.8,1.7c1.5,0.6,4.1-0.7,8-4c0.5-0.4,1.2-1.1,1.2-1.1s0.2,0-0.1,0.3c-0.8,0.8-1.7,1.6-2.5,2.3
										c-0.8,0.7-1.6,1.3-2.4,1.7c-0.8,0.4-1.9,1.1-2.1,1C-1350.5-1947.2-1351.7-1947.3-1352-1947.3L-1352-1947.3z"/>
									<path id="path10151-5-3-0-4-4-2_1_" class="st15" d="M-1351.1-1958.6c-1.1-1.2-2.1-2.3-2.1-2.4c0,0,3-4.5,6.7-10.1
										c5.9-9,7.1-10.7,10.3-15.4c2-2.9,3.7-5.4,3.7-5.4c0.3-0.3,2.1,0.4,2.1,0.8c0,0-18.6,34.7-18.7,34.8
										C-1349.1-1956.3-1350-1957.3-1351.1-1958.6L-1351.1-1958.6z"/>
									<path id="path10167-2-8-6-0-9-6_1_" class="st15" d="M-1354.8-1951.4l-0.7-1.2c-0.8-1.4-1.4-2.4-2.1-3.6s-1.4-2.5-1.9-3.5
										l-0.4-0.6h0.1c0,0,0.1,0,0.1,0.1c0,0,1.3,2.2,2.6,4.5c1.3,2.2,2.6,4.5,2.6,4.5C-1354.5-1951.3-1354.8-1951.4-1354.8-1951.4
										L-1354.8-1951.4z"/>
									<path id="path10159-9-5-0-8-0-6-4_1_" class="st4" d="M-1351.8-1947.8c-0.7-0.1-1-0.5-1.1-1.2c-0.2-1.2,0.8-3.3,2.7-5.7
										c0.4-0.5,1.2-1.4,1.2-1.4s1,0.6,2.2,1.4l2.1,1.4l0.7,0.2c0.4,0.1,0.7,0.2,0.7,0.2c0,0.1-2.2,1.9-3,2.6
										c-2.4,1.9-4.1,2.7-5.3,2.6L-1351.8-1947.8z"/>
									<path id="path10149-9-9-4-8-2-3_1_" class="st15" d="M-1346.7-1954.8c-1.2-0.7-2.2-1.3-2.2-1.3c0-0.1,18.6-34.8,18.6-34.9
										s0.3,0.4,0.4,0.9l0.2,0.4l-7.4,18.1c-4.1,10-7.4,18.2-7.5,18.2C-1344.6-1953.5-1345.6-1954.1-1346.7-1954.8z"/>
									<path id="path4728-1-5-2-8-2-6-5-1-0_1_" class="st15" d="M-1353.3-2001.1v-0.7l5-3.5l0.4,0.4"/>
									<path id="path3000-3-5-2-6-0-2-0-3-5_1_" class="st15" d="M-1330.3-1993.8c-0.2-0.6-1-1.3-1.6-1.3c-0.2,0-0.4,0.2-0.9,0.4
										c-0.3,0.2-0.6,0.3-1,0.5c-0.7,0.3-1.4,0.6-2.1,0.9c-0.7,0.3-1.4,0.5-2.1,0.7c-0.7,0.2-1.3,0.3-1.9,0.4
										c-0.8,0-1.6,0-2.3-0.2c-1.4-0.4-2.7-1.1-3.6-1.8l-1.7-1.4l-5.6-5.5l5.4-3.7c0.3,0.4,0.7,1,1.2,1.6c0.5,0.6,1.1,1.3,1.7,2
										c0.6,0.7,1.3,1.4,1.9,2c1.2,1.1,2.6,1.8,4.1,1.8c0.7,0,1.3-0.1,1.8-0.3c1.2-0.3,2.3-0.9,3.8-1.1c1.6-0.3,3-0.1,4.2,0.5
										c0.6,0.3,1.1,0.7,1.6,1.2c1.5,1.9,1.7,2.6,1.2,4.6"/>
									<path id="path2996-5-7-5-4-9-4-4-8-2-6_1_" class="st15" d="M-1331.5-1992.6c3.4,0.6,3.8,1,5.3,2.1l-0.2-2
										c-1.7-1-2.4-1.1-4.3-1.4L-1331.5-1992.6z"/>
									<path id="path3002-1-5-3-6-4-1-2-3-0_1_" class="st16" d="M-1342.7-1952.8c-2.1,2-6.7,6.5-9.7,5.5
										c-0.2-0.1-0.4-0.2-0.5-0.4c-0.3-0.3-0.5-0.7-0.7-1.1c-0.4,0.4-1.1,0.5-1.6,0.4c-0.3-0.1-0.6-0.2-0.8-0.4
										c-0.5-0.5-0.7-1.2-0.4-1.8c0.1-0.3,0.3-0.5,0.6-0.6c0.5-0.3,1.2-0.3,1.6,0.3l-5.5-9.5c-1,0.1-1.5-0.5-0.8-1.1
										c-0.5-0.4-0.4-0.7,0-1.1c-1.2-3.4-2-6.9-2.2-10.4c-0.1-5.4,0.9-10.2,3.2-14.7c0.8-1.5,1.7-2.9,2.7-4.1
										c-0.4-0.4-0.4-0.6-0.1-0.9c0-0.1-0.3-0.1-0.3-0.2s0.1-0.2,0.1-0.3c0.4-0.4,0.8-0.2,1.3-0.2l4.5-5.8"/>
									<path id="path3026-8-6-2-5-4-1-9-1-8_1_" class="st17" d="M-1355.6-1949.8c0.3,0.2,0.6,0.3,0.9,0.3
										c0.6-0.1,0.9-0.4,0.8-0.9c-0.1-0.2-0.2-0.4-0.4-0.6"/>
									<polygon id="rect4657-4-2-1-9-8-3-2-8-2_1_" class="st15" points="-1351.7,-2003.5 -1351.1,-2002.9 -1352.5,-2001.9 
										-1353,-2002.5 									"/>
									<polygon id="rect4657-0-0-3-0-9-3-9-7-8-1-7_1_" class="st15" points="-1349.4,-2005.1 -1348.8,-2004.5 -1350.2,-2003.5 
										-1350.7,-2004.1 									"/>
									<path id="path4634-0-1-1-2-0-1-3-9-4_1_" class="st4" d="M-1349.3-1998.9l0.4,39.8l-0.5,0.2l-0.4-40.2L-1349.3-1998.9z"/>
									<path id="path4634-0-1-1-2-0-1-4-4-0_1_" class="st4" d="M-1347.9-1997.5l0.4,35.7l-0.5,0.2l-0.4-36.1L-1347.9-1997.5z"/>
									<path id="path4634-0-1-1-2-0-1-0-6-9-6_1_" class="st4" d="M-1346.4-1996.2l0.3,32.1l-0.5,0.2l-0.3-32.4L-1346.4-1996.2z"
										/>
									<path id="path4634-0-1-1-2-0-1-8-3-4_1_" class="st4" d="M-1345-1995l0.3,28.4l-0.5,0.2l-0.3-28.7L-1345-1995z"/>
									<path id="path4634-0-1-1-2-0-1-5-4-4_1_" class="st4" d="M-1343.7-1994.3l0.1,25.3l-0.5,0.1l-0.1-25.6L-1343.7-1994.3z"/>
									<path id="path4634-0-1-1-2-0-1-81-29-0-4-9-3_1_" class="st4" d="M-1332.4-1995.9l0.2,6.3l-0.5,0l-0.2-6.4L-1332.4-1995.9z
										"/>
									<path id="path4634-0-1-1-2-0-1-81-29-0-0-5_1_" class="st4" d="M-1333.6-1995.3l0.2,7.7h-0.5l-0.2-7.7H-1333.6z"/>
									<path id="path4634-0-1-1-2-0-1-81-29-5-8_1_" class="st4" d="M-1334.9-1994.7l0.3,9.6l-0.5,0.1l-0.3-9.7H-1334.9z"/>
									<path id="path4634-0-1-1-2-0-1-81-66-3-4_1_" class="st4" d="M-1336.2-1994.2l0.3,11.3l-0.5,0.1l-0.3-11.4H-1336.2z"/>
									<path id="path4634-0-1-1-2-0-1-81-6-9-1_1_" class="st4" d="M-1337.6-1993.7l0.4,13l-0.5,0.1l-0.4-13.1H-1337.6z"/>
									<path id="path4634-0-1-1-2-0-1-81-24-1-0_1_" class="st4" d="M-1338.8-1993.4l0.3,15.1l-0.5,0.1l-0.3-15.3L-1338.8-1993.4z
										"/>
									<path id="path4634-0-1-1-2-0-1-81-3-2-3_1_" class="st4" d="M-1340-1993.2l0.3,17.3l-0.5,0.1l-0.3-17.5L-1340-1993.2z"/>
									<path id="path4634-0-1-1-2-0-1-81-2-8-3_1_" class="st4" d="M-1341.2-1993.3l0.3,19.7l-0.5,0.1l-0.3-19.9L-1341.2-1993.3z"
										/>
									<path id="path4634-0-1-1-2-0-1-81-8-4_1_" class="st4" d="M-1342.5-1993.6l0.3,22.5l-0.5,0.1l-0.3-22.7L-1342.5-1993.6z"/>
									<path id="path3024-3-4-0-5-3-0-1-6-2-8_1_" class="st17" d="M-1342.7-1952.9l-1.8-0.5l-4.4-2.8c-1.8,2-5.2,6.5-3.5,8.1
										c0.4,0.3,1,0.4,1.7,0.3c0.9-0.1,1.9-0.6,2.9-1.3c1-0.6,2-1.4,2.9-2.1s1.6-1.4,2.1-1.8"/>
								</g>
							</g>
						</g>
					</g>
					<g id="g78883_1_" transform="translate(-544.93403,251.396)">
						<path id="path64764_1_" class="st18" d="M498.4-137.6c-0.5-0.3-0.7-0.3-1-0.5s-0.3-0.2-0.5-0.3s-0.9-0.5-1-0.6
							s-0.2-0.1-0.3-0.2c-0.2-0.1-0.4-0.2-0.7-0.4s-0.7-0.5-1.3-1.1c-0.9-0.9-1.6-1.6-2-2.5s-0.6-2-0.8-3.5c-0.1-0.4-0.2-1.7-0.2-3
							c-0.1-2.4,0-11.2,0-11.3c0,0,0.2,0.1,0.2,0.2c0.3,0.2,1,0.7,1.5,0.9c1,0.4,1.6,0.6,2.3,0.7c1.1,0.2,2.2,0.2,3.5-0.1
							c1.6-0.3,2.2-0.5,3.5-1.2c0.2-0.1,0.3-0.2,0.5-0.3c0.1,12.1,0.1,12,0,24.9c-0.3-0.1-0.6-0.2-0.9-0.4
							C500.3-136.7,499.3-137.1,498.4-137.6L498.4-137.6z"/>
						<g id="g29973-7_1_" transform="matrix(0.2176,0,0,0.253848,1096.44,547.586)">
							<polygon id="rect29401-0_1_" class="st0" points="-2738.8,-2767.9 -2738.8,-2767.8 -2738.9,-2767.8 -2738.9,-2767.9 							
								"/>
							<path id="path9379-7-3_1_" class="st0" d="M-2747-2765.4c-0.2,0-0.2-0.1,0.1-0.2c0.1,0,0.2-0.1,0.2-0.1
								c0.4-0.1,0.6-0.3,1-0.5c0.4-0.2,0.7-0.4,1-0.6c0.5-0.3,0.8-0.5,1.2-0.8c1.2-0.7,2.5-1.1,3.8-1.4c0.5-0.1,1.1-0.1,1.5-0.1
								c0.1,0,1.5-0.1,1.5-0.1l0,0c0,0.2,0.1,0.4,0,0.6c0,0.2,0,0.3-0.1,0.4l0,0c0,0-0.1,0-0.2-0.1c-0.1,0-0.3,0.5-0.5,0.5
								c-1.3,0-1.5-0.6-2.7-0.3c-0.3,0.1-0.5,0.1-0.8,0.1c-0.3,0.1-0.5,0.2-0.8,0.3s-0.5,0.2-0.8,0.3c-0.6,0.2-1.1,0.5-1.8,0.9
								c-0.4,0.2-0.4,0.2-0.6,0.3c-0.7,0.3-1.2,0.6-1.6,0.6C-2746.7-2765.4-2746.9-2765.4-2747-2765.4L-2747-2765.4z"/>
							<g id="g5919-4_1_" transform="matrix(3.83783,0,0,3.74193,-962.708,-15.542)">
								<g id="g64-0_1_">
									<path id="path7155_12-0_1_" class="st19" d="M-464.1-726.8c0-0.2,0.3-0.6,0.3-0.8c0.3-0.8,0.3-3.6,0.3-4.4
										c0.2,0,0.4-0.1,0.6-0.1c0.2,0.7,0.1,3.5-0.4,4.3c0.4-0.8,0.5-3.5,0.4-4.3c0.3-0.1,0.3-0.1,0.6-0.2c0,0.8,0.1,3.6-0.5,4.5
										c-0.2,0.3-0.5,0.6-0.9,0.9C-463.8-726.8-464-726.7-464.1-726.8L-464.1-726.8z"/>
									<path id="path7155_13-5_1_" class="st19" d="M-465.9-726.2c0-0.3,0.4-0.9,0.5-1.1c0.5-1.2,0.7-2.6,0.7-3.8
										c0.2-0.1,0.5-0.2,0.7-0.3c0.2,1,0,2.7-0.7,3.8c0.7-1,0.9-2.8,0.7-3.8c0.4-0.1,0.5-0.1,0.8-0.2c0,1.2,0,2.9-0.8,4.1
										c-0.3,0.4-0.8,0.8-1.3,1.2C-465.5-726.2-465.8-726-465.9-726.2L-465.9-726.2z"/>
									<path id="path7155_14-3_1_" class="st19" d="M-468.2-726.1c0.1-0.3,0.6-0.8,0.8-1.1c0.8-1.2,1.4-2.7,1.7-4
										c0.3-0.1,0.5-0.1,0.8-0.2c-0.1,1.1-0.7,2.9-1.7,4c0.9-1,1.5-2.8,1.7-4c0.4,0,0.4,0,0.7-0.1c-0.2,1.3-0.6,3.1-1.8,4.2
										c-0.4,0.4-1,0.7-1.6,1C-467.8-726.1-468.1-726-468.2-726.1L-468.2-726.1L-468.2-726.1L-468.2-726.1z"/>
									<path id="path7153_15-1_1_" class="st19" d="M-468.8-727.6c0.1-0.2,0.2-0.4,0.4-0.6c0.2-0.4,0.5-0.8,0.8-1.2
										c0.3-0.4,0.5-0.7,0.6-1.1c0.1-0.3,0.2-0.5,0.3-0.8c0.1-0.1,0.3-0.4,0.4-0.4c0.1,0.1,0.3,0.1,0.4,0.1c-0.2,1-0.9,2.4-1.7,3
										c0.8-0.6,1.5-2,1.7-3c0.4-0.1,0.4-0.1,0.7-0.1c-0.3,1-0.7,2.1-1.5,2.9c-0.5,0.5-1.2,1-1.9,1.4
										C-468.8-727.4-468.8-727.4-468.8-727.6L-468.8-727.6L-468.8-727.6z"/>
									<path id="path7155_16-0_1_" class="st19" d="M-470.2-729.1c0.2-0.2,0.7-0.5,0.9-0.6c1-0.6,1.9-1.7,2.5-2.6
										c0.2,0,0.4,0,0.6,0c-0.5,0.8-1.4,2-2.5,2.6c1-0.5,2-1.7,2.5-2.6c0.3,0.1,0.4,0.1,0.6,0.2c-0.6,0.8-1,1.4-1.8,2.1
										c-0.2,0.2-0.6,0.5-0.9,0.6c-0.4,0.2-0.9,0.2-1.5,0.3C-470-728.9-470.3-729-470.2-729.1L-470.2-729.1L-470.2-729.1z"/>
									<path id="path7155_17-6_1_" class="st19" d="M-470.7-730.3c0.2-0.2,0.7-0.4,0.9-0.5c1-0.5,1.9-1.4,2.7-2.2
										c0.2,0,0.3,0,0.5,0.1c-0.5,0.7-1.6,1.8-2.6,2.2c1-0.4,2-1.5,2.6-2.2c0.2,0.1,0.3,0.1,0.5,0.2c-0.6,0.7-1.1,1.2-1.9,1.9
										c-0.2,0.2-0.6,0.4-0.9,0.5c-0.4,0.1-0.9,0.1-1.4,0.2C-470.6-730.1-470.8-730.2-470.7-730.3L-470.7-730.3L-470.7-730.3z"/>
									<path id="path7155_18-7_1_" class="st19" d="M-471.2-732.1c0.2-0.1,0.8-0.2,1-0.2c1-0.2,1.9-0.7,2.8-1.3
										c0.1,0.1,0.2,0.4,0.3,0.4c-0.7,0.5-1.7,1.1-2.7,1.2c1-0.2,1.9-0.7,2.7-1.2c0.2,0,0.4-0.1,0.5-0.2c0,0.1,0.1,0.2,0.2,0.3
										c-0.9,0.7-2.1,1.5-3.3,1.6c-0.4,0-0.8-0.1-1.3-0.2C-471.1-731.8-471.3-732-471.2-732.1L-471.2-732.1L-471.2-732.1
										L-471.2-732.1z"/>
									<path id="path7155_19-5_1_" class="st19" d="M-470.9-734c0.3-0.1,0.5-0.1,0.7,0c1.1,0.2,2.2-0.1,3.2-0.2
										c0.1,0.2,0.1,0.4,0.4,0.5c-0.9,0.2-1.9,0.3-2.9,0.2c1,0.1,1.9,0,2.9-0.2c0.1,0,0.3,0.2,0.5,0.2c-1.2,0.3-2.5,0.8-3.7,0.4
										c-0.4-0.1-0.7-0.3-1.1-0.6C-471.1-733.8-471.1-733.9-470.9-734L-470.9-734L-470.9-734z"/>
									<path id="path7155_20-0_1_" class="st19" d="M-470.3-735.1c0.2,0,0.4,0,0.6,0c0.8,0.2,1.8,0.3,2.7,0.3v0.1
										c0.1,0.1,0.1,0.2,0.2,0.2c-0.8,0-1.6,0.1-2.5-0.2c0.9,0.3,1.7,0.2,2.5,0.2c0,0,0.2,0.2,0.3,0.3c-1.2,0.1-2.2,0.2-3.1-0.2
										c-0.3-0.1-0.6-0.3-0.9-0.5C-470.4-735-470.4-735.1-470.3-735.1L-470.3-735.1L-470.3-735.1L-470.3-735.1z"/>
									<path id="path7153_21-0_1_" class="st19" d="M-469.8-736.1c0.2,0.1,0.3,0.1,0.5,0.2c0.3,0.1,0.6,0.1,0.9,0.3
										c0.4,0.2,1.5,0.7,1.9,0.8c-0.1,0-0.3,0.1-0.3,0.2c-0.8-0.1-1.7-0.4-2.3-0.8c0.7,0.4,1.5,0.7,2.3,0.8c0,0.1,0.1,0.1,0.1,0.1
										c-0.8-0.1-1.6-0.2-2.3-0.6C-469.3-735.4-469.6-735.6-469.8-736.1C-469.9-736.1-469.8-736.2-469.8-736.1L-469.8-736.1
										L-469.8-736.1z"/>
									<path id="path7153_22-4_1_" class="st19" d="M-469.4-736.8c0.2,0.1,0.3,0.1,0.5,0.2c0.3,0.1,0.6,0.2,0.9,0.3
										c0.4,0.2,1.4,0.8,1.9,0.9c-0.1,0-0.3,0.1-0.3,0.1c-0.8-0.2-1.6-0.5-2.2-1c0.6,0.5,1.4,0.8,2.2,1c0,0.1-0.1,0.2-0.1,0.3
										c-0.8-0.2-1.4-0.4-2.1-0.8C-469-736-469.3-736.3-469.4-736.8C-469.5-736.8-469.5-736.8-469.4-736.8L-469.4-736.8
										L-469.4-736.8z"/>
									<path id="path7153_23-5_1_" class="st19" d="M-469-737.5c0.1,0.1,0.2,0.2,0.4,0.3c0.3,0.2,0.5,0.2,0.8,0.5
										c0.3,0.3,1.2,1,1.6,1.2c-0.1,0-0.3,0.1-0.3,0.1c-0.7-0.3-1.4-0.7-1.9-1.3c0.5,0.5,1.2,1,1.9,1.3c0,0.1,0.1,0.2,0,0.3
										c-0.7-0.3-1.3-0.5-2-1.1c-0.3-0.4-0.5-0.6-0.6-1.1C-469.1-737.5-469.1-737.6-469-737.5L-469-737.5L-469-737.5z"/>
									<path id="path7153_24-4_1_" class="st19" d="M-468.3-738.4c0.1,0.1,0.1,0.2,0.3,0.4c0.2,0.3,0.4,0.4,0.6,0.7
										c0.2,0.4,0.7,1.3,1,1.7c-0.1,0-0.2-0.1-0.2,0c-0.6-0.5-1.1-1.1-1.4-1.7c0.3,0.7,0.8,1.3,1.4,1.7c0,0.1,0,0.2-0.1,0.2
										c-0.5-0.5-1.2-0.8-1.5-1.6c-0.2-0.5-0.3-0.8-0.2-1.3C-468.4-738.4-468.3-738.5-468.3-738.4L-468.3-738.4L-468.3-738.4z"/>
									<path id="path7151_25-9_1_" class="st19" d="M-466.9-739.2c-0.3,0.4-0.3,1-0.2,1.4c0.1,0.3,0.3,0.6,0.5,0.9
										c0.1,0.2,0.2,0.3,0.3,0.5c0,0.1,0.1,0.3,0,0.3c0,0.1-0.1,0.1-0.1,0.1c-0.1,0-0.2,0-0.2-0.1c-0.4-0.6-0.9-1.3-0.8-1.9
										c-0.1,0.6,0.4,1.3,0.8,1.9c0.1,0,0.2,0.1,0.2,0.1l-0.1,0.2c-0.3-0.2-1-1-1.2-1.6C-467.8-737.8-467.8-738.7-466.9-739.2
										L-466.9-739.2L-466.9-739.2L-466.9-739.2z"/>
									<g id="g80-4-5_1_">
										<path id="path7151_26-6_1_" class="st19" d="M-466.1-736.4c-0.2-0.1-0.5-0.3-0.6-0.5c-0.1-0.1-0.5-0.7-0.1-1.2
											c0,0.3,0.1,0.6,0.4,0.9c0.1,0.2,0.4,0.3,0.5,0.4c0,0,0.1,0,0.1,0.1L-466.1-736.4L-466.1-736.4L-466.1-736.4L-466.1-736.4z
											"/>
									</g>
								</g>
								<g id="g84-8_1_">
									<path id="_38899352-2_1_" class="st19" d="M-465.6-731.4c-0.3,0.9,0.6,1.3,1.1,0.7c0.2,0.9,1.2,0.7,1.3,0.1l-0.2-0.5
										c0.4-0.4,0.6-0.9,0.8-1.1l-0.2-0.4c-0.3,0.1-0.6,0.3-1.1,0.4c-0.3,0-0.6-0.2-0.7-0.5c-0.7-1.1-0.4-2.1-0.3-2.6
										c0.3-1.3-1.3-1.5-1.2-2.3c-0.1,0.2-0.2,0.3-0.1,0.5c-0.4,0.1-0.7,0.4-0.5,0.8c-0.2,0-0.5,0-0.7,0.2
										c-0.3,0.3-0.2,0.8,0.3,1.1c-0.1,0-0.3,0.1-0.4,0.2c-0.4,0.3-0.1,1,0.7,1.1c-0.8,0.6-0.1,1.2,0.7,1.1
										C-467-731.7-466.4-731.1-465.6-731.4L-465.6-731.4L-465.6-731.4L-465.6-731.4z"/>
								</g>
							</g>
							<path id="path3043-4_1_" class="st0" d="M-2753.8-2725c-0.5,0.1-1.3,0.1-1.8-0.1c-0.7-0.3-1.3-1.4-2-1.7
								c-0.5-0.2-1.1-0.1-1.3,0.3c-0.2,0.5,0,1,0.4,1.1c0.3,0.1,0.7-0.1,1,0.1c0.2,0.1,0.3,0.4,0.5,0.6c0.2,0.1,0.4,0.2,0.7,0.3
								C-2755.5-2724.2-2754.6-2724.7-2753.8-2725L-2753.8-2725z"/>
							<path id="path3035-9-5_1_" class="st0" d="M-2756.9-2723.4c-1.1,0.2-2.2,0.2-2.6,0.7c-0.3,0.3-0.2,0.9,0,1.4
								c0.2,0.4,0.7,0.7,1.2,0.4c0.6-0.3,0.8-1.4,1.5-1.6c0.7-0.2,1.1,0,1.8,0.1c0.6,0.1,1.2,0,1.8-0.5c0.3,0,0.7,0.1,1,0.4
								c0.2,0.3,0.3,0.8,0.7,1c0.4,0.2,1.1,0.1,1.4-0.4c0.3-0.7,0.2-1.6-0.5-1.8c-0.4-0.2-1.5-0.1-2.1,0c1.6-0.7,4.3-1.3,6.2-2.1
								c0.4-0.2,1.8,0.3,2.6-0.1l3.3-2.1l-3.4-1.8l-2.2,1.6c-2.1,1.3-5,2.3-7.9,3.3c-1.5,0.6-2.1,0.5-2.9,0.5
								c-0.8-0.3-1.8-1-2.3-0.7l-0.5,1c0.2,0.5,0.7,1.2,1.7,0.3c0,0,0.1-0.1,0.1,0C-2757.7-2723.7-2757.2-2723.4-2756.9-2723.4
								L-2756.9-2723.4z"/>
							<path id="path3441-7-7_1_" class="st0" d="M-2758.9-2727.4c-0.8-0.3-1.7,0.3-1.2,1.3c0.1-0.5,0.8-0.6,1.2,0
								c0.3,0,0.7-0.4,0.6-0.7C-2758.4-2727.1-2758.6-2727.3-2758.9-2727.4L-2758.9-2727.4z M-2749.3-2723.2
								c-0.2-0.1-0.5-0.1-0.8-0.1c-0.6,0.2-0.7,0.9-0.2,1.3c0.7-0.4,1.5,0.2,1.1,0.9c0.9-0.4,1-1,0.8-1.4
								C-2748.6-2722.8-2748.9-2723-2749.3-2723.2L-2749.3-2723.2L-2749.3-2723.2z M-2759.6-2725.4c-0.1,0-0.1,0-0.2-0.1
								c-0.4-0.1-0.8-0.1-1.1,0.1c-0.5,0.3-0.7,1.1-0.1,1.5c0-0.6,0.8-1,1.4-0.3c0.3-0.1,0.6-0.5,0.5-0.9
								C-2759.3-2725.2-2759.4-2725.3-2759.6-2725.4z M-2759.2-2722.6c-0.7,0-1.3,0.3-1.6,0.8c-0.2,0.5-0.1,1.2,0.7,1.4
								c-0.3-0.6,0.4-1.2,1.1-0.9C-2758.5-2721.7-2758.6-2722.4-2759.2-2722.6L-2759.2-2722.6z"/>
							<path id="path4215-3_1_" class="st19" d="M-2730.9-2759.8c-0.3,1-0.5,1-0.8,0s-0.1-1.6-0.9-2.5c0.2-0.2,0.4-0.1,0.6-0.1
								c-0.5-0.4-0.8-0.9-1-1.3c0.7,0.4,1.2,0.2,1.4-0.7c-0.2,0.3-0.5,0.4-0.9,0.3c-0.4-0.3-0.5-0.7-0.5-1.1c0.1-0.7,0-1-0.2-1.7
								c0.3-0.1,0.3-0.1,0.6,0c-0.2-0.2-0.9-0.6-1.2-0.9c0-0.6-0.4-1.2-0.7-1.7c0.5,0,0.5,0.3,0.8,0.3c-0.5-0.9-1.4-1.8-2.5-2.4
								c0.5-0.2,0.7-0.4,0.8-0.7c-0.3,0.1-1.1,0.4-1.5,0.4c-1.3,0.1-1.5,0-2.8-0.2c-1.2,0-1.9,0.1-2.8,0.9l0.7,0.7l1.1,1.7
								c0.4,0.1,2.3,0,1.8,1.1l-0.5,0.6c2,0,0.7,3.4-1,2.4c0.4,0.9,1,1.2,1.6,1c-0.2,0.2-0.3,0.6-0.2,1c-0.3,0.3-0.5,0.6-0.5,0.9
								c0,0.1-0.2,0.2-0.6,0.1c0.3,0.3,0.7,0.4,1,0.2c0.2-0.1,0.3-0.2,0.4-0.3c-0.5,0.4-2,2.4-1.9,3.1c0,0.3,0,0.6,0,0.9
								c-0.1,0.5-0.3,0.9-0.6,1.1c0.4,0,0.8,0,1-0.2s0.4-0.4,0.4-0.8c0,0.3-0.1,0.7-0.2,1c0,0,0,0.1-0.1,0.1
								c-0.2,0.4-0.8,0.9-0.6,1.4c0.1-0.1,0.3-0.2,0.4-0.3c0.1-0.1,0.2-0.2,0.3-0.3c-0.1,0.2-0.1,0.4-0.2,0.6
								c-0.1,0.6,0.1,1.2,0.4,1.8c0.1-0.1,0.2-0.1,0.2-0.2c0.1-0.2,0.2-0.4,0.2-0.6c-0.1,0.4,0,0.8,0.1,1.2c-1,1.6-0.2,2.5,0.4,4.7
								c0.6,2,1.7,4.9,2.1,8.6c-1.8,0.6-1.6,2-2.7,3.8c-1.1,0.8-2,2.4-2.8,3.3c-0.6,0.7-1.2,1.4-2,2c-0.4,0.3-0.7,0.5-1.1,0.7
								c-0.9,0.3-1.8,0.5-3.1-0.2c0.6,0.7,1.3,1.3,2.3,1.4c-0.3,0.3-0.5,0.6-0.5,0.8c0.7,0,1.4-0.2,2-0.6c-0.6,0.4-0.9,0.9-1.3,1.3
								c0.9,0.2,1.6-0.2,2.7-1c-0.2,0.3-0.8,1.7-0.8,2.1c0.3-0.2,0.8-1.1,1.4-1.2c-0.3,0.6-0.5,1.6-0.3,2.3c1.1-2.3,4.6-3.2,6.3-5.4
								c0,0.4-0.1,0.7-0.4,1.1c0.5-0.3,1-0.8,1.3-1.4c1-0.1,0.8-0.3,1.5-0.9c-0.5,4-0.5,5.4-4.5,7.7c-0.6-0.6-1.4-0.4-2.3-0.2
								c0.6,0,1.2,0,1.6,0.5l-1.7,0.9c-0.8-0.7-1.9-0.8-3-0.8c0.8,0.4,1.9,0.4,2.1,1.4c-3.2,1.8-6.6,3.3-8,7.2
								c-1,0.9-1.8-0.6-2.3-1.2c0.5,1.3,1,2.8,2.6,2.7c1.6,2.3,4,1.7,5.2-0.5c0.7-0.4,1.5-0.2,2.3-0.2c-0.6-0.2-1.2-0.4-2-0.4
								c0.7-0.5,1.2-1.1,1.5-1.9c-0.7,0.4-1.3,0.7-2,1.4c0.1-0.5-0.4-1-0.6-1.5c-0.1,0.6,0.2,1.3,0.1,1.8c-2.5,4.4-6.2-1.3,0.2-3.9
								l0.4,1.6c0.5-1.3,1.1-2.4,3-3.3c-0.1,1.1,0.2,2,0.7,2.7c-0.1-1-0.3-2.1,0.3-3.1l4.5-2.6c0.4,0.5,0.1,1-0.1,1.5
								c0.7-0.5,1.2-1.1,1.2-2c0.7-0.5,1-0.6,1.4-1.1c-0.3,2.2-0.1,3.1-1.7,3.7c-0.6-0.3-1.2-0.2-1.8,0c0.4,0.1,0.8,0,1,0.4
								c-1.3,0.8-4.9,2.3-3.5,4.4c0.8,0.7,1.3,0.3,1.8,0.2c-0.6,0-1.7-0.3-1.4-1.3c0.5-1,1.5-1.5,2.5-1.9l2.8-0.6
								c-1.3,1.8-1.7,3.5-4.1,4.9c-2.2,1.2-5.1,1.9-5.7,3.7c-0.6,1.8,0.6,3.3,1.8,3.4c2.2-0.2,1.7-1.1,2.5-1.8c0.5-0.4,1.4-0.6,2-1
								c-0.8,0.1-1.6,0-2.4,0.4c0.1-1-0.4-1.3-0.8-1.7c0.1,0.7,0.4,1.4,0.1,2.1c-0.3,0.6-0.6,0.8-1,0.7c-1.4-0.2-1.2-1.8-1.1-1.9
								c0.8-1.7,2.6-1.5,3.9-2.4c0.2,0.7-0.2,1.4-0.3,2.1c0.8-0.7,1.5-1.7,1.8-2.6c-0.2,0.7,0,1.3,0.2,1.8c0.1-0.9,0.3-2.1,1.1-2.3
								c0.9-0.2,2.1-0.6,2.5-1.2l-0.2,1.8c-0.1,2.9-2,4.5-4.4,5.8c-0.7,0.3-1.1,0.1-1.6,0c0.1,0.3,0.7,0.7,1.2,0.5
								c-0.2,0.6-0.2,1.2,0.2,1.7c0.6,0.8,2.2,0.1,2.1-0.9c-1,1.5-2.2,0.4-1.5-0.8c0.7-0.7,1.9-0.7,2.4-1.3c0.5,0.5,0.1,1.3,0.1,1.9
								c0.5-0.8,0.8-1.6,0.5-2.3c0.8-0.7,1-1,1.5-1.6c0.3,3.1-1.6,4.4-1.5,5.5c0.3-0.3,1.2-1.2,1.9-1.2c-1.3,2.6-1.2,3.8,1.2,5.6
								l0,0c2.4-1.8,2.5-3,1.2-5.6c0.6,0,1.6,0.9,1.9,1.2c0.1-1.1-1.8-2.4-1.5-5.5c0.4,0.6,0.7,0.9,1.5,1.6c-0.3,0.8,0,1.5,0.5,2.3
								c0-0.6-0.4-1.4,0.1-1.9c0.6,0.6,1.7,0.6,2.4,1.3c0.7,1.2-0.5,2.3-1.5,0.8c-0.1,1.1,1.5,1.7,2.1,0.9c0.5-0.5,0.4-1.1,0.2-1.7
								c0.6,0.2,1.1-0.2,1.2-0.5c-0.4,0.1-0.9,0.3-1.6,0c-2.4-1.3-4.3-3-4.4-5.8l-0.2-1.8c0.4,0.6,1.5,1,2.5,1.2
								c0.8,0.1,1,1.4,1.1,2.3c0.2-0.6,0.4-1.2,0.2-1.8c0.3,0.9,1,1.9,1.8,2.6c-0.1-0.7-0.5-1.4-0.3-2.1c1.3,0.9,3.1,0.7,3.9,2.4
								c0.1,0.1,0.3,1.8-1.1,1.9c-0.4,0.1-0.8-0.1-1-0.7c-0.3-0.7,0-1.4,0.1-2.1c-0.4,0.4-0.9,0.7-0.8,1.7c-0.9-0.5-1.6-0.4-2.4-0.4
								c0.6,0.4,1.5,0.6,2,1c0.7,0.6,0.2,1.6,2.5,1.8c1.2-0.1,2.4-1.6,1.8-3.4c-0.6-1.9-3.5-2.5-5.7-3.7c-2.3-1.4-2.8-3.1-4.1-4.9
								l2.8,0.6c1,0.4,2.1,0.9,2.5,1.9c0.3,1-0.7,1.3-1.4,1.3c0.5,0.1,1,0.5,1.8-0.2c1.4-2.1-2.2-3.6-3.5-4.4c0.2-0.3,0.7-0.3,1-0.4
								c-0.6-0.2-1.2-0.3-1.8,0c-1.6-0.6-1.5-1.6-1.7-3.7c0.4,0.5,0.7,0.6,1.4,1.1c0,0.9,0.5,1.6,1.2,2c-0.2-0.5-0.4-1.1-0.1-1.5
								l4.5,2.6c0.6,1,0.4,2.1,0.3,3.1c0.6-0.7,0.9-1.6,0.7-2.7c1.9,0.8,2.5,2,3,3.3l0.4-1.6c6.5,2.6,2.7,8.3,0.2,3.9
								c-0.1-0.6,0.1-1.2,0.1-1.8c-0.2,0.5-0.7,1-0.6,1.5c-0.7-0.8-1.3-1-2-1.4c0.3,0.8,0.8,1.4,1.5,1.9c-0.8-0.1-1.3,0.1-2,0.4
								c0.8,0,1.6-0.2,2.3,0.2c1.2,2.2,3.6,2.7,5.2,0.5c1.7,0.1,2.1-1.3,2.6-2.7c-0.5,0.6-1.4,2.1-2.3,1.2c-1.4-3.9-4.8-5.4-8-7.2
								c0.2-1,1.3-1,2.1-1.4c-1.1,0-2.2,0.1-3,0.8l-1.7-0.9c0.4-0.5,1-0.5,1.6-0.5c-0.8-0.2-1.7-0.4-2.3,0.2c-3.9-2.3-4-3.7-4.5-7.7
								c0.4,0.7,1,0.6,1.5,0.9c0.3,0.6,0.8,1.1,1.3,1.4c-0.2-0.4-0.3-0.7-0.4-1.1c1.7,2.2,5.2,3.1,6.3,5.4c0.1-0.6,0-1.6-0.3-2.3
								c0.5,0.1,1.1,1,1.4,1.2c0-0.4-0.6-1.8-0.8-2.1c1,0.8,1.8,1.2,2.7,1c-0.4-0.4-0.7-0.9-1.3-1.3c0.7,0.4,1.3,0.6,2,0.6
								c0-0.3-0.2-0.5-0.5-0.8c1,0,1.8-0.6,2.3-1.4c-1.4,0.7-2.3,0.4-3.1,0.2c-0.4-0.2-0.7-0.4-1.1-0.7c-0.8-0.6-1.3-1.3-2-2
								c-0.8-0.8-1.7-2.5-2.8-3.3c-1.1-1.8-0.8-3.2-2.7-3.8c0.4-3.8,1.5-6.6,2.1-8.6c0.6-2.1,1.5-3.1,0.4-4.7
								c0.1-0.4,0.1-0.8,0.1-1.2c0,0.3,0.1,0.5,0.2,0.6c0.1,0.1,0.1,0.2,0.2,0.2c0.4-0.6,0.5-1.2,0.4-1.8c0-0.2-0.1-0.4-0.2-0.6
								c0.1,0.1,0.2,0.2,0.3,0.3s0.3,0.2,0.4,0.3c0.2-0.5-0.4-1-0.6-1.4c0,0,0-0.1-0.1-0.1c-0.2-0.3-0.2-0.7-0.2-1
								c0.1,0.4,0.2,0.6,0.4,0.8s0.6,0.3,1,0.2c-0.3-0.3-0.6-0.6-0.6-1.1c0-0.3-0.1-0.6,0-0.9c0.1-0.7-1.4-2.7-1.9-3.1
								c0.1,0.1,0.3,0.2,0.4,0.3c0.3,0.2,0.7,0.1,1-0.2c-0.3,0-0.5,0-0.6-0.1c0-0.3-0.2-0.6-0.5-0.9c0-0.4,0-0.7-0.2-1
								c0.6,0.3,1.2-0.1,1.6-1c-1.7,1-3-2.5-1-2.5l-0.5-0.6c-0.5-1.1,1.4-1,1.8-1.1l1.3-1.8l0.5-0.6c-0.9-0.8-1.1-0.9-2.3-0.9
								c-1.4,0.2-2.3,0.1-3.1,0.2c-0.4,0-1-0.1-1.3-0.2c0.1,0.3,0.4,0.3,0.8,0.5c-1.1,0.6-2.2,1.4-2.6,2.3c0.2,0,0.4-0.3,0.9-0.2
								c-0.3,0.5-0.9,1.2-1,1.8c-0.3,0.2-0.9,0.6-1.1,0.9c0.3-0.1,0.3-0.1,0.6,0c-0.3,0.7-0.3,1-0.2,1.7c0,0.5-0.1,0.9-0.5,1.1
								c-0.4,0.1-0.7,0-0.9-0.3c0.2,0.9,0.6,1.1,1.4,0.7c-0.2,0.5-0.6,0.9-1,1.3c0.2,0.1,0.4-0.1,0.6,0.1
								C-2730.9-2761.3-2730.6-2760.7-2730.9-2759.8L-2730.9-2759.8L-2730.9-2759.8z"/>
							<path id="path4489-1_1_" class="st19" d="M-2735.1-2732.1L-2735.1-2732.1L-2735.1-2732.1z"/>
							<path id="path4523-7_1_" class="st19" d="M-2738.9-2752.1L-2738.9-2752.1L-2738.9-2752.1z"/>
							<path id="path4529-0_1_" class="st19" d="M-2737.5-2745.6L-2737.5-2745.6L-2737.5-2745.6z"/>
							<path id="path4390-5_1_" class="st19" d="M-2727.6-2733.6c-0.1,0.3,0.1,0.6,0.6,1C-2727.5-2733-2727.7-2733.3-2727.6-2733.6z
								"/>
							<path id="path4394-7_1_" class="st19" d="M-2727.5-2732.1L-2727.5-2732.1L-2727.5-2732.1z"/>
							<path id="path4402-9_1_" class="st19" d="M-2723.8-2752.1L-2723.8-2752.1L-2723.8-2752.1z"/>
							<path id="path4404-3_1_" class="st19" d="M-2726.2-2743L-2726.2-2743L-2726.2-2743z"/>
							<path id="path4406-0_1_" class="st19" d="M-2725.1-2745.6L-2725.1-2745.6L-2725.1-2745.6z"/>
							<path id="path7068-6_1_" class="st20" d="M-2728-2769.7L-2728-2769.7L-2728-2769.7z"/>
							<path id="path7082-6_1_" class="st20" d="M-2735.8-2758.3L-2735.8-2758.3L-2735.8-2758.3z"/>
							<path id="path7084-6_1_" class="st20" d="M-2735.6-2761.5L-2735.6-2761.5L-2735.6-2761.5z"/>
							<path id="path7096-9_1_" class="st20" d="M-2734.2-2765.2L-2734.2-2765.2L-2734.2-2765.2z"/>
							<path id="path7098-1_1_" class="st20" d="M-2737.2-2762.8L-2737.2-2762.8L-2737.2-2762.8z"/>
							<path id="path7100-6_1_" class="st20" d="M-2737.2-2766.6L-2737.2-2766.6L-2737.2-2766.6z"/>
							<path id="path7102-2_1_" class="st20" d="M-2734.6-2769.7L-2734.6-2769.7L-2734.6-2769.7z"/>
							<path id="path7204-7_1_" class="st19" d="M-2742.3-2771.3c-1.2,0.1-3.2,1.3-1.6,2.3c0-0.2,0-0.3,0.1-0.5
								c0.1-0.2,0.3-0.3,0.5-0.3c0.4-0.1,0.9,0.2,1.5,0.6c0.5,0.4,1.5,0.4,2.2,0.5C-2739.3-2769.3-2741.6-2770.2-2742.3-2771.3
								L-2742.3-2771.3L-2742.3-2771.3L-2742.3-2771.3z"/>
							<path id="path29377-1_1_" class="st0" d="M-2739.5-2767.9c-0.7,0-1.2,0.5-1.7,0.7s-1.1,0.3-1.5,0.2c0.1,0.3,0.2,0.5,0.5,0.7
								c0.3,0.1,0.7,0,1-0.1l0.8-0.3c0.3-0.1,0.6-0.2,0.9-0.3l0.6-0.8c0-0.1,0-0.1-0.2-0.1
								C-2739.2-2767.9-2739.4-2767.9-2739.5-2767.9z"/>
						</g>
						<path id="path64764-5_2_" class="st21" d="M502.1-135.9c0,0,0.3-0.1,0.4-0.2c0.2-0.1,0.5-0.2,0.5-0.2l0.4-0.2
							c1.8-0.8,3.2-1.5,4.3-2.1s2-1.3,2.8-2.1c1.8-1.6,2.6-3.1,2.9-6c0-0.4,0.1-1.7,0.1-3c0.1-2.4,0.1-11.2,0-11.2
							c0,0-0.2,0.1-0.2,0.2c-0.2,0.2-1,0.6-1.5,0.8c-0.6,0.2-1.6,0.5-2.3,0.6c-0.9,0.2-2.6,0.2-3.5,0c-1.5-0.3-2.8-0.6-3.5-1.1
							l-0.6-0.4"/>
						<g>
							<path id="path2201-2_2_" class="st4" d="M508.3-148.8l0.5-0.6l-5.1-8.4l-0.8-0.6l0.3,1.1L508.3-148.8z"/>
							<path id="path26736-3_2_" class="st4" d="M502.1-152.8c1-0.2,1.3,0.5,1.5,1.4c0,0.1,0,0.3,0.1,0.4l-0.7,1.9
								c-0.2,0.4-0.4,0.8-0.7,1.1c0-0.5-0.1-0.7-0.2-1.1L502.1-152.8z"/>
							<path id="path5796-9-2_2_" class="st4" d="M508.4-149.2l0.5-0.4c0,0.1,0,0.2-0.1,0.3c-0.1,0.4,0.6,1.6,1,2.5
								c0.1,0.2,0.2,0.2,0,0.4s-0.4,0.2-0.5-0.1c-0.4-0.7-0.8-2-1.1-1.9c-0.1,0-0.1,0.1-0.2,0L508.4-149.2z"/>
							<path id="path34841-7_2_" class="st4" d="M509.5-150.2c0.1,0,0.1,0,0.2,0.1c0.1,0.2,0,0.4-0.1,0.6c-0.1,0.2-0.3,0.1-0.4,0
								c0,0,0,0,0-0.1c0,0-0.1-0.1-0.1,0l0,0l-0.4,0.5c0,0,0,0,0,0.1v0.3h-0.2l0,0l-0.7,0.9c-0.1,0.2-0.3,0.1-0.4,0
								c-0.1-0.2,0-0.4,0.1-0.6c0.1-0.2,0.3-0.1,0.4,0c0,0,0,0,0,0.1c0,0,0.1,0.1,0.1,0l0,0l0.4-0.5c0,0,0,0,0-0.1v-0.3h0.2l0,0
								l0.7-0.9l0,0C509.4-150.2,509.4-150.2,509.5-150.2L509.5-150.2L509.5-150.2z"/>
							<path id="path5806-8-0_2_" class="st4" d="M509.1-149.4h0.3l0,0l0,0l0,0l0,0l0,0l0,0v0.1c0,0,0,0,0,0.1l0,0l0,0l0,0v0.1l0,0
								l0,0l0.2,0.1v0.1l0,0c0,0.1,0,0.2,0,0.3v0.1h0.1v0.1l0,0c0,0,0,0,0,0.1l0,0c0,0,0,0,0,0.1l0,0c0,0,0,0.1-0.1,0.2l0,0v0.1l0,0
								l0,0l0,0l0,0l0,0v0.1l0,0c0,0,0,0.1,0,0.2l0,0l0,0l0,0l0,0v0.1l0,0l-0.1,0.1l0,0l0,0l0,0l0,0l0,0c-0.1,0.1-0.2,0.2-0.3,0l0,0
								l0,0l0,0v-0.1v-0.1l0,0v-0.1h-0.1c-0.1,0-0.2,0-0.2-0.1l0,0v-0.1l0,0c0,0,0,0,0-0.1v-0.1l-0.1-0.1c0,0,0,0,0-0.1v-0.1l0,0
								l0,0v-0.1v-0.1l0,0c0,0,0-0.1,0-0.2l0,0l0.1-0.2h-0.1c-0.1,0-0.1,0-0.1,0s-0.1,0-0.1-0.1c0,0.2,0.1,0,0,0.2
								c0,0.1,0,0.1,0,0.1l0,0v0.2l0,0c0,0,0,0,0,0.1s0,0.1,0,0.2c0,0.1,0,0.1,0,0.1v0.1c0,0.1,0.3,0.6,0.3,0.7
								c-0.1,0.4-0.3,0.5-0.5,0.6l-0.4,0.3c-0.2,0.1-0.3,0.2-0.4-0.1c-0.2-0.2-0.2-0.9,0.1-1.5c0,0,0.1,0,0.1-0.1
								c0-0.4,0.2-0.7,0.3-1c0,0,0,0,0-0.1l0,0v-0.1l0,0l0,0l0,0l0,0l0,0c0,0,0,0,0.1,0l0,0l0,0c0,0,0-0.1,0.1-0.1v-0.1l0,0l0,0h0.1
								l0,0l0,0l0,0l0,0L509.1-149.4L509.1-149.4z"/>
							<path id="path10992-1_2_" class="st4" d="M503.8-150.9c0.3,0.3,0.3,1.5,0.7,2.1l-0.1,0.1c0.1,0.2,0.1,0.4,0.2,0.6
								c0,0,0,0,0,0.1v-0.1c0.1,0,0.1,0,0.1,0c0.1,0.1,0,0.2,0,0.3s0.1,0.3,0.1,0.4c0.1,0,0.2,0,0.3,0.1c0.1,0.2,0.2,0.8,0.2,1.3
								l0,0c0,0,0,0,0,0.1l0,0c0.1-0.3,0.2-0.5,0.4-0.7c0-0.1,0.1-0.1,0.1-0.1l0,0l0,0l0,0c0.1,0,0.2,0.1,0.3,0.3
								c0.7-0.3,1.5-0.5,1.8-0.9c0-0.1,0.1-0.1,0.1-0.1c-0.2,0.4-0.1,1.3,0.2,1.6l0.1,0.1c0,0,0,0,0.1,0c-0.1,0,0,0-0.1,0
								c-0.1,0.1-0.3,0.2-0.5,0.3c-0.3,0.3-0.6,0.7-1,1c-0.1,0.1-0.3,0.2-0.4,0.4c0,0.4-0.1,0.7-0.2,0.7c-0.2,0.1-0.6,0-0.8-0.1
								c-0.2,0.2-0.4,0.2-0.7,0.2c0,0.1,0,0.1-0.1,0.1c0,0,0,0,0-0.1c-0.2-0.2-0.3-0.6-0.5-0.9l0,0c-0.2-0.1-0.7-0.6-0.7-0.9
								c0-0.1,0-0.3,0-0.4c-0.1-0.1-0.2-0.3-0.2-0.4c-0.1,0-0.1,0-0.2-0.1c0-0.1,0-0.1,0-0.3c-0.1-0.3-0.2-0.5-0.3-0.8
								c0,0.1,0,0.2-0.1,0.2l0,0l0,0l0,0l0,0l0,0c-0.1,0.1-0.2,0-0.3-0.2c0-0.2,0-0.4,0.1-0.5h0.1c0-0.1-0.1,0-0.3-0.4
								c0.7-0.9,1-2,1.4-3.1C503.7-151,503.7-151,503.8-150.9L503.8-150.9z"/>
							<path id="path2210-7_2_" class="st4" d="M510.3-146.7c-0.2-0.3-0.5-0.4-0.7-0.2s-0.3,0.7-0.1,1s0.5,0.4,0.7,0.2
								C510.4-145.9,510.5-146.3,510.3-146.7L510.3-146.7L510.3-146.7z"/>
						</g>
					</g>
					<g>
						<path class="st4" d="M-76.2,99.4c0.3,0.4,0.7,0.9,1,1.4s0.6,0.9,1.2,1.1c0,0,0,0,0,0.1c-0.1,0-0.1,0.1-0.2,0.1
							c-0.2,0-0.5,0-0.7,0c-0.3,0-0.6-0.2-0.8-0.5c-0.4-0.7-0.9-1.3-1.3-2c-0.2-0.3-0.2-0.4,0.2-0.4c0.8-0.1,1.3-0.7,1.1-1.5
							c0-0.2-0.2-0.4-0.3-0.5c-0.3-0.3-1-0.4-1.4-0.3c0,0.1,0,0.1,0,0.2c0,1.2,0,2.4,0,3.7c0,0.1,0,0.2,0,0.4
							c0.1,0.4,0.1,0.5,0.5,0.5c0.1,0,0.2,0,0.2,0.2c0,0.1-0.2,0.1-0.2,0.1c-0.6,0-1.2,0-1.8,0c-0.1,0-0.2-0.1-0.2-0.1
							c0-0.1,0.1-0.2,0.2-0.2c0.4-0.1,0.5-0.2,0.5-0.6c0-1.2,0-2.4,0-3.7c0-0.5-0.1-0.5-0.5-0.6c-0.1,0-0.2-0.1-0.2-0.2
							c0-0.2,0.1-0.1,0.2-0.1c0.7,0,1.3,0,2,0c0.3,0,0.7,0.1,1,0.2c0.5,0.2,0.8,0.5,0.9,1.1c0.1,0.6-0.1,1.1-0.6,1.4
							C-75.7,99.2-75.9,99.3-76.2,99.4z"/>
						<path class="st4" d="M-65.4,99c0-0.6,0-1.2,0-1.8c0-0.3-0.1-0.4-0.4-0.4c-0.1,0-0.1,0-0.1,0c-0.1-0.1-0.1-0.1-0.1-0.2
							c0.1,0,0.1-0.1,0.2-0.1c0.5,0,1.1,0,1.6,0c0.1,0,0.1,0.1,0.2,0.1c0,0.1-0.1,0.1-0.1,0.2h-0.1c-0.2,0-0.3,0.2-0.3,0.4
							c0,0.3,0,0.5,0,0.8c0,0.8,0,1.5,0,2.3c0,1-0.4,1.5-1.4,1.7c-0.5,0.1-1,0.1-1.4,0c-0.9-0.2-1.4-0.8-1.4-1.8c0-0.8,0-1.5,0-2.3
							c0-0.3,0-0.5,0-0.8c0-0.2-0.1-0.3-0.3-0.4c-0.1,0-0.1,0-0.2,0c-0.1,0-0.1-0.1-0.2-0.2c0.1,0,0.1-0.1,0.2-0.1
							c0.6,0,1.2,0,1.8,0c0.1,0,0.1,0.1,0.2,0.1c0,0.1-0.1,0.1-0.2,0.2c0,0-0.1,0-0.2,0c-0.2,0-0.3,0.1-0.3,0.3c0,0.1,0,0.3,0,0.4
							c0,0.9,0,1.7,0,2.6c0,0.2,0,0.4,0.1,0.7c0.1,0.4,0.4,0.6,0.7,0.7c0.5,0.2,1,0.1,1.5-0.1c0.4-0.2,0.6-0.5,0.6-0.9
							C-65.4,99.9-65.4,99.4-65.4,99L-65.4,99z"/>
						<path class="st4" d="M-72.3,99.3c0,0.6,0,1.2,0,1.8c0,0.2,0.1,0.3,0.3,0.4c0.2,0,0.3,0.1,0.5,0.1c0.1,0,0.1,0.1,0.2,0.2
							c-0.1,0-0.1,0.1-0.2,0.1c-0.7,0-1.5,0-2.2,0c-0.1,0-0.1-0.1-0.2-0.1c0.1-0.1,0.1-0.1,0.2-0.2c0.1,0,0.1,0,0.2-0.1
							c0.2,0,0.3-0.2,0.3-0.4c0-0.3,0-0.7,0-1c0-1,0-2,0-3c0-0.3-0.1-0.4-0.4-0.5c-0.1,0-0.1,0-0.1,0s-0.1-0.1-0.1-0.2
							c0,0,0.1-0.1,0.2-0.1c0.2,0,0.5,0,0.7,0c0.9,0,1.8,0,2.7,0c0.3,0,0.3,0.1,0.3,0.3c0,0.3,0,0.6,0,0.9c0,0.1-0.1,0.2-0.1,0.2
							c-0.1-0.1-0.1-0.1-0.2-0.2c0-0.1,0-0.2-0.1-0.3c-0.1-0.4-0.3-0.5-0.7-0.6c-0.4,0-0.7,0-1.1,0c-0.2,0-0.2,0-0.2,0.2
							c0,0.5,0,1.1,0,1.6c0,0.1,0,0.2,0.1,0.2c0.3,0,0.6,0,1,0c0.3,0,0.4-0.2,0.5-0.4v-0.1c0-0.1,0.1-0.1,0.2-0.1
							c0,0.1,0.1,0.1,0.1,0.2c0,0.2,0,0.3,0,0.5c0,0.3,0,0.6,0,0.9c0,0.1-0.1,0.2-0.1,0.2c-0.1-0.1-0.2-0.1-0.2-0.2
							c-0.1-0.4-0.2-0.5-0.6-0.5C-71.7,99.3-72,99.3-72.3,99.3z"/>
						<path class="st4" d="M-81.2,99.1c0-0.6,0-1.2,0-1.9c0-0.4-0.1-0.5-0.5-0.6h-0.1c0,0-0.1-0.1-0.1-0.2c0,0,0.1-0.1,0.2-0.1
							c0.6,0,1.3,0,1.9,0l0.1,0.1c0,0.1-0.1,0.1-0.1,0.2l0,0c-0.4,0-0.5,0.3-0.5,0.6c0,0.3,0,0.5,0,0.8c0,0.9,0,1.7,0,2.6
							c0,0.1,0,0.2,0,0.3c0.1,0.4,0.1,0.5,0.5,0.6c0.1,0,0.1,0.1,0.2,0.2c-0.1,0-0.1,0.1-0.2,0.1c-0.6,0-1.2,0-1.9,0
							c-0.1,0-0.2-0.1-0.2-0.1c0.1-0.1,0.1-0.1,0.2-0.2c0.4-0.1,0.5-0.2,0.5-0.6C-81.2,100.4-81.2,99.7-81.2,99.1L-81.2,99.1z"/>
						<path class="st4" d="M-67.2,84.5c-0.7,0.9-1.6,1.3-2.7,1.6c-0.4,0.1-0.6,0.3-0.9,0.6c-0.5,0.6-0.7,1.2-0.8,1.9
							c-0.2,1.4-0.1,2.9,0.2,4.3c0.1,0.5,0.2,1,0.3,1.4c0,0.2,0,0.2-0.2,0.2c-1.3,0-2.6,0-3.9,0c-0.1,0-0.1,0-0.2,0
							c0.1-0.1,0.1-0.2,0.1-0.3c0.6-1,1.1-2.1,1.3-3.4c0.3-2-0.2-3.7-1.4-5.2c-0.4-0.5-0.9-1-1.5-1.3c-0.5-0.3-1-0.7-1.5-1
							c0.1,0.5,0.3,1,0.4,1.5c0.1,0.7,0.1,1.3-0.2,1.9s-0.7,0.8-1.4,0.7c-0.4-0.1-0.8-0.3-1.1-0.6c-0.2-0.2-0.4-0.2-0.6-0.2
							c-0.5,0-0.9,0-1.3-0.3c-0.5-0.3-0.7-0.7-0.6-1.2c0.2-0.8,0.7-1.5,1.3-2c0.1-0.1,0.2-0.2,0.4-0.3c0,0,0,0,0-0.1
							c-0.1,0-0.2,0-0.2,0.1c-0.7,0.2-1.5,0.4-2.2,0.3c-0.3-0.1-0.7-0.2-1-0.3c-0.5-0.2-0.6-0.7-0.4-1.3c0.1-0.4,0.3-0.8,0.6-1.1
							c0.2-0.2,0.2-0.4,0.2-0.6c0-0.5,0-1,0.3-1.4c0.3-0.5,0.7-0.7,1.2-0.6c0.8,0.2,1.4,0.7,1.9,1.3c0.2,0.3,0.4,0.5,0.7,0.8
							c0-0.2-0.1-0.4-0.1-0.6c-0.1-0.7-0.2-1.4,0.1-2.1s0.7-1,1.5-0.8c0.4,0.1,0.7,0.3,1.1,0.6c0.2,0.2,0.4,0.2,0.6,0.1
							c1-0.5,2-0.6,3.1-0.6c0.1,0,0.2,0,0.3,0c0-0.6-0.1-1.2-0.1-1.9c-0.1,0.1-0.2,0.1-0.2,0.2c-0.5,0.7-1.3,1-2.1,1.2
							c-0.6,0.2-1.2,0.2-1.8,0.1c-0.7-0.1-1-0.6-0.9-1.3c0-0.4,0.1-0.8,0.3-1.1c0.1-0.2,0.1-0.4,0.1-0.7c-0.2-0.5-0.2-1,0-1.5
							s0.5-0.7,1-0.8c0.7,0,1.3,0.2,1.9,0.6c0.2,0.1,0.4,0.3,0.7,0.5c0,0,0.1,0.1,0.2,0.1c-0.1-0.1-0.1-0.2-0.1-0.2
							c-0.4-0.7-0.7-1.4-0.8-2.2c0-0.4,0-0.8,0.1-1.1c0.1-0.5,0.6-0.7,1.1-0.6c0.4,0,0.8,0.1,1.2,0.3c0.2,0.1,0.4,0.1,0.7,0.1
							c0.4-0.1,0.9-0.2,1.3-0.1c0.6,0.1,0.9,0.5,0.9,1.2c0,0.5-0.1,1-0.4,1.4c-0.3,0.5-0.6,0.9-1,1.4c0,0.1-0.1,0.1-0.1,0.2
							c0.1,0,0.2-0.1,0.3-0.1c0.6-0.3,1.2-0.5,1.9-0.5c0.3,0,0.5,0,0.8,0.1c0.6,0.1,0.9,0.7,0.8,1.4c-0.1,0.3-0.2,0.7-0.3,1
							c-0.1,0.2-0.1,0.4-0.1,0.6c0.1,0.5,0.2,0.9,0.1,1.4c-0.1,0.6-0.5,0.9-1.1,0.9c-0.8,0-1.5-0.3-2.1-0.8
							c-0.5-0.4-0.9-0.8-1.2-1.3c0-0.1-0.1-0.1-0.1-0.1s0,0-0.1-0.1c0,0.1-0.1,0.2-0.1,0.3c0,0.5,0.1,1,0.1,1.5
							c0,0.1,0.1,0.1,0.2,0.2c1.4,0.2,2.6,0.7,3.7,1.5c0,0,0,0,0.1,0c0.1-0.1,0.2-0.2,0.3-0.4c0.2-0.4,0.6-0.7,1-0.8
							c0.5-0.2,0.9-0.2,1.3,0.3c0.4,0.5,0.6,1,0.7,1.6c0.1,0.3,0.1,0.7,0.1,1.1c0,0,0,0.1,0.1,0.2c0-0.1,0.1-0.1,0.1-0.2
							c0.2-0.7,0.5-1.3,1-1.8c0.3-0.3,0.6-0.5,0.9-0.7c0.4-0.2,0.8-0.2,1.2,0.2c0.4,0.4,0.6,0.8,0.7,1.3c0,0.2,0.2,0.4,0.4,0.5
							c0.4,0.2,0.7,0.6,0.9,1c0.3,0.6,0.2,1-0.3,1.4c-0.5,0.5-1.1,0.7-1.8,0.7c-0.5,0.1-0.9,0.1-1.4,0.1c0.1,0.1,0.2,0.1,0.2,0.1
							c0.5,0.3,0.9,0.5,1.3,0.8c0.4,0.2,0.6,0.6,0.8,1s0.1,0.8-0.2,1.1c-0.4,0.4-0.8,0.6-1.3,0.7c-0.3,0.1-0.5,0.2-0.6,0.4
							c-0.3,0.4-0.6,0.7-1.1,0.9c-0.5,0.2-0.9,0.1-1.2-0.3c-0.4-0.4-0.6-0.9-0.7-1.5C-67.1,85.5-67.1,85-67.2,84.5z M-74.2,80.2
							c0,0.1-0.1,0.1-0.2,0.1c-0.1,0-0.1-0.1-0.1-0.2s0-0.1,0-0.2c0-0.2-0.1-0.2-0.2-0.3c-0.9-0.2-1.7-0.3-2.6-0.3
							c-0.3,0-0.6,0.1-0.9,0.2c-0.3,0.1-0.4,0.3-0.5,0.6c-0.1,1,0.2,1.8,0.9,2.5c1.7,1.4,3.6,2.3,5.8,2.6c0.8,0.1,1.7,0,2.5-0.3
							c0.5-0.2,1-0.4,1.3-0.9s0.3-0.9-0.1-1.3c-0.6-0.6-1.3-1.1-2-1.5c-0.6-0.3-1.2-0.6-1.9-0.9c-0.1,0.2-0.1,0.4-0.2,0.5
							c0,0.1-0.1,0.1-0.2,0.2c-0.1-0.1-0.1-0.1-0.2-0.2c0-0.2,0-0.4-0.1-0.6c-0.4-0.2-0.4-0.2-0.5,0.3c0,0.1-0.1,0.1-0.2,0.2
							c-0.1-0.1-0.1-0.1-0.2-0.2v-0.1c0-0.4,0-0.4-0.4-0.5c0,0,0,0-0.1,0C-74.1,80-74.1,80.1-74.2,80.2z M-72.3,79.8
							c0.2-0.1,0.4,0,0.4,0.1c0,0.2,0.1,0.2,0.2,0.3c0.9,0.4,1.8,0.8,2.5,1.4c0.4,0.3,0.8,0.7,1.2,1.1c0.1,0.1,0.2,0.1,0.3,0.1
							c0-0.1,0.1-0.2,0.1-0.3c-0.1-0.8-0.5-1.5-1-2.2c-1.1-1.5-2.6-2.4-4.5-2.7c-1.5-0.3-3-0.2-4.4,0.6c-0.3,0.1-0.5,0.3-0.7,0.5
							c-0.1,0.1-0.1,0.2-0.1,0.3c0,0.1,0.2,0.1,0.3,0.1s0.1,0,0.2,0c0.3,0,0.6-0.1,0.8,0c0.8,0.1,1.6,0.2,2.4,0.3
							c0.1,0,0.2,0,0.2-0.1c0.1-0.1,0.2-0.2,0.4-0.2c0.1,0,0.2,0,0.2,0.1s0,0.2,0,0.2s0,0.1-0.1,0.1c0.2,0.1,0.4,0.1,0.6,0
							c0.1-0.1,0.2-0.1,0.3,0c0.1,0,0.1,0.2,0.1,0.3C-72.6,79.9-72.6,79.9-72.3,79.8z M-74.5,85.7c0.2,0.3,0.4,0.6,0.6,0.9
							c0.5,1.1,0.6,2.3,0.6,3.5c0,0.8-0.1,1.5-0.1,2.4c0.2-0.4,0.4-0.7,0.5-1.1c0.5-1.4,0.6-2.9,0.5-4.3c0-0.3-0.1-0.5-0.2-0.8
							c0-0.2-0.2-0.2-0.4-0.3c-0.5-0.1-0.9-0.3-1.4-0.4c-0.1,0-0.2-0.1-0.3-0.1C-74.5,85.6-74.5,85.6-74.5,85.7z"/>
					</g>
				</g>
			</g>
		</g>
	</g>
	<g>
		<path class="st22" d="M-25.6,62.1c0,0,9.1,76.1-49,88.5c-58-12.4-49-88.5-49-88.5s32.9-30.6,88.5-41.4
			C-35.1,20.7-27.7,38.5-25.6,62.1z"/>
	</g>
</g>
<image style="overflow:visible;enable-background:new    ;" width="600" height="649" xlink:href="dt-ire.png"  transform="matrix(0.188 0 0 0.188 434.2457 24.7118)">
</image>
<g class="st23">
	<text transform="matrix(1 0 0 1 246.7319 164.9026)" class="st24 st25 st26">COACH:</text>
	<text transform="matrix(1 0 0 1 216.2319 179.3026)" class="st24 st25 st26">STEVE HANSEN (NZ)</text>
	<text transform="matrix(1 0 0 1 88.707 164.9034)" class="st24 st25 st26">NEW ZEALAND</text>
	<g class="st27">
		<g>
			<path id="SVGID_3_" class="st0" d="M178.5,60.1c0,0,9.1,76.1-49,88.5c-58-12.4-49-88.5-49-88.5s32.9-30.6,88.5-41.4
				C169,18.7,176.4,36.5,178.5,60.1z"/>
		</g>
		<g>
			<g>
				<g>
					<g>
						<defs>
							<path id="SVGID_15_" d="M178.5,60.1c0,0,9.1,76.1-49,88.5c-58-12.4-49-88.5-49-88.5s32.9-30.6,88.5-41.4
								C169,18.7,176.4,36.5,178.5,60.1z"/>
						</defs>
						<clipPath id="SVGID_16_">
							<use xlink:href="#SVGID_15_"  style="overflow:visible;"/>
						</clipPath>
						<g class="st28">
							<polygon class="st14" points="171.2,60 171.8,59.6 176.3,56.3 170.8,56.3 170,56.3 169.7,55.5 168.1,50.2 166.4,55.5 
								166.1,56.3 165.3,56.3 159.9,56.3 164.3,59.6 164.9,60 164.7,60.8 163,66.1 167.4,62.9 168.1,62.4 168.7,62.9 173.1,66.1 
								171.4,60.8 							"/>
							<polygon class="st14" points="146.8,84.4 147.5,83.9 151.9,80.6 146.4,80.6 145.6,80.6 145.4,79.9 143.7,74.5 142,79.9 
								141.8,80.6 141,80.6 135.5,80.6 139.9,83.9 140.6,84.4 140.3,85.1 138.7,90.5 143.1,87.2 143.7,86.7 144.4,87.2 148.8,90.5 
								147.1,85.1 							"/>
							<polygon class="st14" points="171,123 171.6,122.5 176.1,119.2 170.6,119.2 169.8,119.2 169.5,118.4 167.9,113.1 
								166.2,118.4 165.9,119.2 165.1,119.2 159.7,119.2 164.1,122.5 164.7,123 164.5,123.7 162.8,129.1 167.3,125.8 167.9,125.3 
								168.6,125.8 172.9,129 171.2,123.7 							"/>
							<g>
								<polygon class="st29" points="52.8,19.2 52.8,35.4 20.8,19.2 6.7,19.2 43.8,37.9 35.5,37.9 6.7,23.4 6.7,26.1 30.1,37.9 
									6.7,37.9 6.7,41.6 56.5,41.6 56.5,19.2 								"/>
								<polygon class="st29" points="6.7,52.3 6.7,56 30.1,56 6.7,67.9 6.7,74.7 43.8,56 52.1,56 14.9,74.7 20.8,74.7 52.8,58.5 
									52.8,74.7 56.5,74.7 56.5,52.3 								"/>
								<polygon class="st4" points="117,52.3 67.1,52.3 67.1,74.7 70.8,74.7 70.8,58.5 102.8,74.7 117,74.7 79.8,56 88.1,56 
									117,70.5 117,67.9 93.5,56 117,56 								"/>
								<polygon class="st29" points="117,19.2 79.8,37.9 71.5,37.9 108.7,19.2 102.8,19.2 70.8,35.4 70.8,19.2 67.1,19.2 
									67.1,41.6 117,41.6 117,37.9 93.5,37.9 117,26.1 								"/>
								<polygon class="st30" points="43.8,37.9 6.7,19.2 6.7,23.4 35.5,37.9 								"/>
								<polygon class="st31" points="79.8,56 117,74.7 117,70.5 88.1,56 								"/>
								<polygon class="st30" points="79.8,37.9 117,19.2 108.7,19.2 71.5,37.9 								"/>
								<polygon class="st30" points="43.8,56 6.7,74.7 14.9,74.7 52.1,56 								"/>
								<polygon class="st31" points="67.1,41.6 67.1,19.2 56.5,19.2 56.5,41.6 6.7,41.6 6.7,52.3 56.5,52.3 56.5,74.7 67.1,74.7 
									67.1,52.3 117,52.3 117,41.6 								"/>
							</g>
						</g>
					</g>
				</g>
			</g>
		</g>
		<g>
			<path class="st22" d="M178.5,60.1c0,0,9.1,76.1-49,88.5c-58-12.4-49-88.5-49-88.5s32.9-30.6,88.5-41.4
				C169,18.7,176.4,36.5,178.5,60.1z"/>
		</g>
	</g>
</g>
<g class="st23">
	<text transform="matrix(1 0 0 1 246.7062 165.4763)" class="st24 st25 st26">COACH:</text>
	<text transform="matrix(1 0 0 1 216.2062 179.8763)" class="st24 st25 st26">RASSIE ERASMUS (SA)</text>
	<text transform="matrix(1 0 0 1 87.4128 165.4771)" class="st24 st25 st26">SOUTH AFRICA</text>
	<g class="st27">
		<g>
			<path id="SVGID_4_" class="st0" d="M178.5,60.7c0,0,9.1,76.1-49,88.5c-58-12.4-49-88.5-49-88.5s32.9-30.6,88.5-41.4
				C169,19.3,176.4,37.1,178.5,60.7z"/>
		</g>
		<g>
			<g>
				<defs>
					<path id="SVGID_17_" d="M178.5,60.7c0,0,9.1,76.1-49,88.5c-58-12.4-49-88.5-49-88.5s32.9-30.6,88.5-41.4
						C169,19.3,176.4,37.1,178.5,60.7z"/>
				</defs>
				<clipPath id="SVGID_18_">
					<use xlink:href="#SVGID_17_"  style="overflow:visible;"/>
				</clipPath>
				<g class="st32">
					<polygon class="st29" points="260.6,69.4 159.3,69.4 81.9,17.7 260.5,17.8 					"/>
					<polygon class="st33" points="130.2,83.1 48.5,28.6 48.5,137.7 					"/>
					<polygon class="st34" points="114.3,83.1 48.5,39.2 48.5,127.1 					"/>
					<polygon class="st33" points="260.6,96.9 159.3,96.9 81.9,148.6 260.5,148.6 					"/>
					<polygon class="st34" points="260.5,105 163,105 94,150.9 256.8,150.9 					"/>
					<polygon class="st34" points="260.5,61.3 163,61.3 97.7,17.8 260.5,17.8 					"/>
				</g>
			</g>
		</g>
		<g>
			<path class="st22" d="M178.5,60.7c0,0,9.1,76.1-49,88.5c-58-12.4-49-88.5-49-88.5s32.9-30.6,88.5-41.4
				C169,19.3,176.4,37.1,178.5,60.7z"/>
		</g>
	</g>
</g>
<g class="st23">
	<text transform="matrix(1 0 0 1 245.9792 164.8352)" class="st24 st25 st35">COACH:</text>
	<text transform="matrix(1 0 0 1 215.5652 179.2453)" class="st24 st25 st35">EDDIE JONES (AU)</text>
	<text transform="matrix(1 0 0 1 101.6325 164.8352)" class="st24 st25 st35">ENGLAND</text>
	<g class="st27">
		<g>
			<path id="SVGID_5_" class="st0" d="M177.9,60.1c0,0,9.1,76.1-49,88.5c-58-12.4-49-88.5-49-88.5s32.9-30.6,88.5-41.4
				C168.4,18.7,175.8,36.5,177.9,60.1z"/>
		</g>
		<g>
			<g>
				<defs>
					<path id="SVGID_19_" d="M177.9,60.1c0,0,9.1,76.1-49,88.5c-58-12.4-49-88.5-49-88.5s32.9-30.6,88.5-41.4
						C168.4,18.7,175.8,36.5,177.9,60.1z"/>
				</defs>
				<clipPath id="SVGID_20_">
					<use xlink:href="#SVGID_19_"  style="overflow:visible;"/>
				</clipPath>
				<polygon class="st36" points="181.6,70.1 142.2,70.1 142.2,12.3 115.6,12.3 115.6,70.1 76.2,70.1 76.2,96.7 115.6,96.7 
					115.6,154.5 142.2,154.5 142.2,96.7 181.6,96.7 				"/>
			</g>
		</g>
		<g>
			<path class="st22" d="M177.9,60.1c0,0,9.1,76.1-49,88.5c-58-12.4-49-88.5-49-88.5s32.9-30.6,88.5-41.4
				C168.4,18.7,175.8,36.5,177.9,60.1z"/>
		</g>
	</g>
</g>
<g class="st23">
	<text transform="matrix(1 0 0 1 245.757 164.4688)" class="st24 st25 st26">COACH:</text>
	<text transform="matrix(1 0 0 1 215.257 178.8688)" class="st24 st25 st26">WARREN GATLAND (NZ)</text>
	<text transform="matrix(1 0 0 1 108.9577 164.4696)" class="st24 st25 st26">WALES</text>
	<g class="st27">
		<g>
			<path id="SVGID_6_" class="st4" d="M177.6,59.7c0,0,9.1,76.1-49,88.5c-58-12.4-49-88.5-49-88.5s32.9-30.6,88.5-41.4
				C168.1,18.3,175.5,36.1,177.6,59.7z"/>
		</g>
		<g>
			<g>
				<defs>
					<path id="SVGID_21_" d="M177.6,59.7c0,0,9.1,76.1-49,88.5c-58-12.4-49-88.5-49-88.5s32.9-30.6,88.5-41.4
						C168.1,18.3,175.5,36.1,177.6,59.7z"/>
				</defs>
				<clipPath id="SVGID_22_">
					<use xlink:href="#SVGID_21_"  style="overflow:visible;"/>
				</clipPath>
				<g class="st37">
					
						<rect x="64.9" y="88.3" transform="matrix(-1 -1.877862e-03 1.877862e-03 -1 320.0818 241.7079)" class="st0" width="190.5" height="64.7"/>
					<path class="st21" d="M219,53.7c-1,6.8,0,16.6,1.7,19.8c-2-0.7-4.3-2.5-5.4-4.7c-0.8,2.5-1.6,4.9-2.4,7.4
						c5,10.2-8.1,18.3-19,18.9c6.7,3.6,15.4,8.1,15.4,10.5c-2.6,1-4.2-1.8-6.3-2.7c2.3,5.9,0.9,10.3-0.3,16.1
						c-1.1,1.4,0,2.3,0.5,3.4c1.1,0.4,2.1,0.8,3.2,1.2c0.2,0.1,0.3,0.3,0.5,0.4c0,0,2.2,0.1,2.8,3.2c-1.5-1.8-3.5-1.2-3.5-1.2
						c-0.3,0.2-0.5,0.3-0.8,0.5c-0.6-0.3-1.2-0.7-1.8-1.1c-2-1.3-4-1.2-6.1-0.3c-1.1,0.7-2.2,0.6-3.2,0.1c-1.2-1.3-3.8-0.2-3.9-0.2
						l-2.8,1.8l-0.7-0.1c0,0-1.8-0.1-4.1,1.4c0.6-3.1,2.8-3,2.8-3c-0.2-0.6,0.3-0.5,0.4-0.8c0.8-0.8,2.3-0.7,3.5-1
						c-2.2-0.1-4.4-0.2-6.6-0.3c0-0.1,0.1-0.2,0.1-0.3c-1.4-0.1-2.6-0.2-3.4,1.2c-0.1-2.3,1.8-2.7,3-3.2c0.6-0.8,1.7-0.7,2.9-0.6
						c0,0,6.3,2.3,5.8,2.2c-0.5-0.2-7.4-3.1-7.4-3.1c-0.3-0.5,0.1-0.8,0.1-0.9c0,0-1.9-1.2-3.2,0.1c0.2-2.7,3.5-2,3.5-2
						c0.2-0.9,1-0.8,1.5-0.4c0.8,0.8,1.7,1.6,2.5,2.4c0.8,0.5,1.6,1,2.3,1.5c2.2,1,4.5,0.6,6.4-2.5c-0.7-1.6-0.4-2.3,1.1-3.2
						c-0.4-1.1-0.2-2.2,0.2-3.2c-0.6-1-1-3.6-0.4-4.3c-1.5-0.5-2-2-2.1-2c-1.3,0.3-2.5-0.2-3-0.7c-2.1,0.9-3.8,0.4-5.2-0.8
						c-2.4,0.8-4.6,0.2-5.7-0.8c-1.8,0.4-4.7-0.9-5.2-2.3c-1.1,0-2.1-1.2-3.3-1.1c-0.9,1.5-1.2,1.4-2.6,2.6c-1.4,1.5-0.9,4,0.2,5.2
						c1.8,0.7,3.6,1.4,5.3,2c4.1,0.2,5,2.6,5,4.8c-1.5-0.5-1.6-0.7-2.3-0.8c-1.1-0.4-2.1-0.8-3.2-1.1c-3.3,5.3-7.9,9-14.6,10.7
						c1.3,0.6,2.5,0.4,3.8,0.6c0.5,0.3,0.9,0.5,1.4,0.8c2,0.4,3.4,1.1,3.3,2.9c-1.3-1.5-2.6-1.4-3.6-0.7c-2.1,0.9-3.3-1.1-5-1.6
						c-1.4-1-2.8-0.6-4,0.1c-1.4-0.9-3-0.4-4.6-0.3c-2,0.2-4.2,0.7-5.2,1.8c-0.7,0.5-0.9-0.3-1-0.2c-2.3-0.8-3.3,1.3-3.3,1.3
						c-0.5-2.3,0.6-2.8,1.9-3.2c-0.9-0.5-1.7-1-2.6-1.5c-0.1-0.3-0.2-0.3,0.2-0.5c-1-0.6-2-0.1-3.1,0.9c0.1-2.1,2.7-3.4,3.8-2.7
						c0.8-0.6,2.2-0.7,3.3,0.2c1.2,0.9,3,1,4.2,0.7c-0.5-1.4-2.2-2.3-3.1-2.3c-1.3-0.3-2.8-0.8-2.4-1.6c-0.8-1.2-2-0.8-3.3,0.1
						c0.5-2.6,3.2-2.4,4-1.8c0.3-0.8,1.1-1,1.8-0.2c1.1,0.3,1.3,1.1,1.9,1.6c1.2,1.3,3.2,1.9,4.8,2.2c1.5-0.8,3.2-1,5-1
						c0.3-1.5,1.3-1.8,2.6-1.8c-0.1-1.3,0.6-1.9,1.8-2.4c0,0-1.9-0.2-2.1-1.4c-3.3,0-5.4-0.5-5.7-2.6c-3-0.9-4.8-3.2-3.6-5.6
						c-1.5,0.5-2.4,0.5-3.7,0c-2.1,1.8-5.3,4-7.2,2.8c-0.9,1-3.1,2.1-3.1,2.1c-0.3,2.3-2,5.1-2,5.1c-0.9-2.2-2.6-4.6-2.4-6.8
						c-3,3.9-4.7,5-7.1,7.5c-1.9,1.9-2.9,4.2-3.6,6.8c1.4,0.8,3.2,0.7,4.9,1c0.4,0.6,0.3,0.3,0.5,0.5c1.7,0,3,1,3,2.8
						c-1.6-1.6-3.1-0.6-3.1-0.6c-1.3,1.1-2.9,0.6-4.4,0c-1.3-1.4-3.3-2.2-4.9-1c-2,1.6-2.9-0.8-5.9,0.9c-2.2,2-5.2,2.2-6,1
						c0,0-1.5-0.6-3.7,1.7c0.6-3.7,2.9-3.3,2.9-3.3c0-0.4-0.1-0.8-0.1-1.2c-0.3-0.1-0.6-0.2-0.9-0.3c-1.5-0.7-3.5-0.5-4.3,0.2
						c0.6-2.4,2.8-2.4,4.5-2.2c0.3-0.3,0.6-0.7,0.9-1c-0.7-0.3-0.5-0.7-0.4-1.2c-0.9-0.9-1.6-1.1-2.8-0.2c0.4-2.3,2.6-2.2,4.2-1.2
						c0.8-0.5,2.7,0.5,3.9,1.2c3.6,1.2,5.9,1.4,9.5-3.3c0-2.2,0.2-3.1,2.1-4.4c-0.7-1.3-0.3-2.7,1.5-3.4c-0.7-0.6-0.2-1.5,0.3-2.5
						c-2.7-0.1-5.7,0.2-7.8,0.9c-0.7,2.1-1.6,4.3-3.1,5.7c0-5.5-3.1-9.4-7-13.6c-4.4-2.9-6.4-8.7-6.8-10.6c-0.8,2.1-1.4,2.5-1.4,2.5
						c-1,1.1-0.3,3.5-2.3,3.6c-1.9,2.3-4.2,1-4.2,1c2.2-0.3,2.5-1.2,2.9-2.6c-1.4-0.3-0.2-1.5,0.5-1.9c0.4-0.1,1.5-2.8,2.2-2.7
						c0.3-2.7,0.6-5.3,0.9-8c-1.7-0.7-2.9-1.9-2.8-3.8c-0.6-0.8-1.1-2-0.2-2.5c-0.4-1-0.8-2.1-2.3-2.5c3.3-0.6,3.8,1.4,4.6,1.6
						c1,0.6,1.7,4,2.8,5.7c-0.9-2.9-0.4-4.9,0.5-7.4c0-1.4-0.6-2.7-1.9-3.5c2.9-0.1,4,2.9,4.1,3c1.8,2.3-0.6,4,0.2,5
						c0.6-0.4,0.8-1.4,1.7-1.3c0.7-0.8,1.2-1.6,1.2-3.3c1.7,1,1.3,2.5,0.8,3.9c0.1,2.2-0.2,2.7-1.6,3.5s-1.7,1.5-1.5,2.6
						c1.7,1.9,2.1,7.6,2.1,7.6c1.7,0.5,2.4,2,2.3,3.3c1.7-0.2,3.2,1.1,3.4,2.3c1-0.9,2.3-0.1,3.3,0.9c0.3-0.5,1.1-0.7,1.8-0.5
						c0-0.9,0.5-1.5,1.3-2.2c-2-1.5-2.5-5.3-0.3-7.3c-0.4-2.8,0.4-5.4,1.8-5.7c-0.5-3,1.4-4,2.1-4.7c-0.5-1.4,1.1-4,1.9-4
						c-0.9-1.4,0.7-4.1,2-4.3l-0.9-2c0,0-4.1,0.6-4.9,4.4c-0.5-0.8-1-2-1-2s-1.6,4.4-1.7,4.3c-1.4-0.9-0.8-3-0.8-3
						c-1-1.1-0.8-2.6-1.3-3.9c-3.9-0.2-7.7-0.3-11.6-0.5l1.3,2.4c-1.4,0-8.1-5.7-9.4-10.6c3.5,2.7,7.1,3.4,11,4.2
						c-1,0.5-2.1,1-3.1,1.5c10.7,0.9,21.8-1.1,21.7-1.1c-1.2-2.5-5.1-2.5-5.1-2.5c0,0.6,0,1.1,0,1.7c-0.4-0.3-0.7-0.5-1.1-0.8
						c0,0.4,0,0.9-0.1,1.3c-0.3-0.2-0.5-0.4-0.8-0.6c-0.1,0.4-0.2,0.7-0.3,1.1c-0.3-0.2-0.5-0.4-0.8-0.6c-0.1,0.3-0.2,0.6-0.4,1
						c-0.3-0.2-0.6-0.5-0.9-0.7c0,0-0.8,0-0.8-0.1c-0.5-2.5-2.9-2.6-2.9-2.6c-2.8-0.4-5,0.2-7.5,0.3c3.7-4.6,8.7-4.2,13.6-4.7
						c0.3-2.1,2.1-2.6,4.3-2.9l9.9,0.5c1.3-1.7,5.2-2.4,5.2-2.4c1.4-0.7,2.9-0.4,4.2-2.1c-0.3,2.3-0.3,2.8-0.5,4.2
						c0.4,0,0.9,0.1,1.3,0.2c-1.1,0.7-2.7,1.8-3.8,2.5c-1.3,1.9-1,2-0.5,3c0.4,0.7,0.8,1.4,1.2,2c2,0.6,3.4,1.4,3.9,2.7
						c-2.1-0.3-3.7,0.1-3.6,1.1c0,0.7,1.7,1,2.3,1.4c1.2,1.1,1.6,2.2,1.7,3.6c-1.6-0.1-3.6-2.4-4.7-0.3c-0.5,1.1,0.1,2.5,1.4,3
						c2.5,0.7,2.7,4.1,2.7,4.1c-0.1,0-5.5-3.6-5.2-0.2c-0.1,1.5,0.6,1.8,1.2,2.3c1.6,0.6,3,1.3,2.8,3c-2.3-0.8-3.5-0.2-3.7,1.2
						c0.3,0.9,0.6,1.8,0.9,2.6c3.2-0.7,6.4-1.3,9.5-1.9c1.4-1.3,2-3.4,1.9-5.6c0.2-3.4-1-6.3,3.2-10.1c9-7.5,18.1-13.3,28.2-18.9
						c-2.1,3.4-3.5,9.8,1.9,10.3c1.7,0,20.7-8,20.7-8c-6.6,4.8-14.2,11.6-5.4,14.5c-8.1,2.5-14.8,10.7-8.9,17.3
						c-4.2-1.2-9.7,1.5-10.7,4.6c4.8,0,9.1-0.3,13.7,1.3c0,0,12.7,2.5,13.5-3.1c-6.8,1.5-11.8,0.8-12-5.3c0.1-5.3,7.9-8.2,14.6-4.3
						c0.7-1.4,1.4-2.8,2-4.3c-2.5,0.3-4.7,0.7-7.2,0.1C209.8,63.9,214.6,59.1,219,53.7z"/>
					<path class="st38" d="M206.5,77.8c0.1,2.2-6.5,2.7-6.9,0.3C199.5,76.8,202.9,74.7,206.5,77.8z"/>
					<path class="st12" d="M216.3,62.8c0,0-0.4,5-1,6.1"/>
					<path class="st12" d="M213.9,63l-2.1,5.7"/>
					<path class="st12" d="M209.8,73c0.4,0.3,2.1,1.2,3.1,3.2"/>
					<path class="st12" d="M206.6,77.8c0,0,2,3.8,0.6,4.8"/>
					<path class="st12" d="M184.4,87.5c3-0.4,7.3,6.3,9.5,7.6"/>
					<path class="st12" d="M206.6,123.9c0,0-1.2,0.9-0.6,2.1"/>
					<path class="st12" d="M185.6,125c0,0,1.5,0.4,1.3,1.7"/>
					<path class="st12" d="M182.6,120.6c0,0,1.1,1.1,0.4,2.1"/>
					<path class="st12" d="M184.3,116.3c0,0,1.4,0.7-0.3,1.9"/>
					<path class="st12" d="M166.3,123.8c0,0-1.3,1.1-0.3,2.2"/>
					<path class="st12" d="M145,124.1c0,0,2.3,0.1,1.5,1.8"/>
					<path class="st12" d="M143.3,120.3c0,0,0.8,1.4-0.7,1.8"/>
					<path class="st12" d="M146.2,115.6c0,0,0.7,1.5-0.7,1.7"/>
					<path class="st12" d="M144.5,123.8c0,0,2.2-1.9,3.2-0.9s5.4-0.9,5.4-0.9"/>
					<line class="st12" x1="154.6" y1="119.2" x2="151" y2="121.1"/>
					<path class="st12" d="M159.7,118.2c0,0,2.6,2.9,4.6-0.6"/>
					<path class="st12" d="M162.3,116.4c1.8,1.4,1.1,2.3,6.7-1.5"/>
					<path class="st12" d="M164,114c0,0,4.8,0.5,5,0.9c0.6-0.6,4.9-4.1-0.4-4.6C167.7,113.9,164.1,114.1,164,114z"/>
					<path class="st12" d="M106.7,124.8c0,0,1.8,0.3,0.7,1.7"/>
					<path class="st12" d="M105.9,121.4c0,0,1.3,0.8-0.2,1.9"/>
					<path class="st12" d="M107.9,117.8c0,0,0.6,1.6-1.4,1.4"/>
					<path class="st12" d="M106.6,123.6c0,0,2.5-2,3.8-0.8c1.3,0.4,1.9,0.4,1.9,0.4"/>
					<path class="st12" d="M128.8,123.5c0,0-0.7,1.5-0.1,2.2"/>
					<path class="st12" d="M106.8,120.3c1.6-0.1,1.9,0.6,3.3,0.6c1.6,0,3.2-0.6,5.3-1.2"/>
					<path class="st12" d="M96.3,73.5c0,0,1,0.5,2-1"/>
					<path class="st12" d="M95.7,92.2c0,0,1.6,0.5,1.3,1.7"/>
					<path class="st12" d="M101.9,70.8c0,0,0,1,2-0.5"/>
					<path class="st12" d="M104,75.3c0,0-1.5,4.1,0.3,5"/>
					<path class="st12" d="M105.8,74.1c0,0,0.8,1.7,1.9,0.7"/>
					<polyline class="st12" points="104.2,63.4 102.9,61.4 104.1,61 					"/>
					<path class="st12" d="M116.7,53.1c0,0,1.2,1.5,1.3,2.4c0,0.9-0.9,1.5-0.9,1.5"/>
					<path class="st12" d="M115.8,55c0,0-0.3,0.9-0.4,1.5c0,0.4-1.4,1-1.4,1"/>
					<path class="st12" d="M132.4,50.5c0,0-0.2,1.2-0.8,1.9"/>
					<path class="st12" d="M120.6,53.7c0,0,2.5-0.7,3-0.1c1.3,0.1,3.6,0.6,3.6,0.6s2.2-0.3,3-0.8"/>
					<path class="st12" d="M121.9,53.5c-0.3,1,2.1,3.9,4.2,0.4"/>
					<path class="st38" d="M122.7,53.4l2.3,0.4C125,53.8,123.4,56,122.7,53.4z"/>
					<path class="st12" d="M125.8,59.9l3.1,5.9l1.5-2.2l0.8,1.5l1.3-2.2l2.2,1.4l-0.8-2.7l1.8-0.1c0,0-0.5-1.3-2.1-1.6
						c0.4-0.3,1.9-1.3,1.9-1.3s-0.8-1-2.2-1c0.4-0.5,1-1.6,1-1.6l-1.4-0.3c0,0,3.1,1,5.5-0.4"/>
					<path class="st12" d="M115.8,64l4.7-0.1c1.5,0,4-2.1,6.7-1.5"/>
					<path class="st12" d="M116.5,63.9l0.3-0.9l0.3,0.8l0.4,0.1l0.9-0.8l0.3,0.8h0.4l0.5-1l0.5,1l0.9-1.6l1,1.2l0.3-1.4l0.9,0.9
						l0.4-1.2l0.9,0.8l0.4-1l0.5,1"/>
					<path class="st12" d="M136.2,54.5c0,0-2.4-0.1-2.3-1.1c0.2-1.1,2.6-1.8,2.6-1.8s3.2-2,3.6-2.7"/>
					<path class="st12" d="M136.8,50.4c0,0,0.8-0.8,2.1-0.4"/>
					<path class="st12" d="M117.4,94.4c0,0-0.3,1.5,1.8,4.5c-0.6,3.4,2.6,6,3.8,6.5"/>
					<path class="st12" d="M106.6,88.3c-2.4,1.3,1.3,9.8,12.7,10.6"/>
					<path class="st12" d="M115.6,94.8c0,0,0.8,2.5,0.1,3.7"/>
					<path class="st12" d="M112.4,93.9c0,0-0.9,1.8-1.2,2.7"/>
					<path class="st12" d="M109,91.6c0,0-0.7,1.5-1.6,1.9"/>
					<path class="st12" d="M149,80.3c0,0,3-0.1,6.1-8.3c3-11.2,26.7-23.8,27.1-26.1"/>
					<path class="st12" d="M157.7,67c4.5-2.5,18.2-7.5,27.3-11.2"/>
					<path class="st12" d="M203.8,48.5c0,0-42.1,19.6-42.7,20.7c7.1-2.2,37.2-7.2,38-6.7c-1.8,0.4-38.3,8.8-40,10.8
						c9.1-0.3,28.2,2.9,31.2,6c-6.5-1.4-25.9-4.3-31.8-3c4.4,1,21,11.8,21,13.5c-2.5-2.4-22.5-10.6-23.3-9.9
						c4.6,2.8,11.1,13,11.1,15.5c-1.4-2.1-12.9-14.6-13.6-13.8c1.2,1.7,3.6,16.4,2.4,17.1c0-1.8-4.5-14.6-4.9-15
						c-0.9,0.2-6.6,15.7-5.5,17.1c-0.7-5.1,0.1-15.9,1.5-15.5c-2.5,0.4-10.5,10.9-9.7,12.6c0.2-2.6,0.6-4.4,5.1-13.1
						c-5,0.3-15.4,6.9-17.2,9.2c1.4-4.2,10.2-11.2,14.1-11.7"/>
					<line class="st12" x1="125.5" y1="64.1" x2="128" y2="64.1"/>
					<path class="st12" d="M115.5,59.5c0,0,1.7,0.6,5.2-2.1"/>
					<path class="st12" d="M126.9,91.5c-1-1.3,0.8-21.2,4.5-26.4c-1.3,9.4,3,19,4.1,19"/>
					<path class="st12" d="M126.3,66c0,0,1.8,1.9,3.8,1.6"/>
					<path class="st12" d="M124.3,70.4c0,0,0.9,1.5,4.2,1.8"/>
					<path class="st12" d="M122.4,74.4c0,0,2.3,2.8,5.3,2.4"/>
					<path class="st12" d="M120.3,79.2c0,0,0.6,2,6.7,2.2"/>
					<path class="st12" d="M118.6,84.9c0,0,2.8,2.5,8.1,1.7"/>
					<path class="st12" d="M118.9,92.2c0,0,3.6,2,8-0.7"/>
					<path class="st12" d="M179.8,84.3c0,0-2.5,2.1-0.2,5.6c-7.8-0.1-12,3.5-12.3,5.9c-9.9-0.7-8.1,2.2-11.3,3.2
						c-4.3-3.6-10.6-1.6-10.2,2c-2.9-4.1-7.3-2.1-7.9-1.1c-0.5,1-0.3-5-0.3-5s-2.9,1.3-4.9,3.7c0-1.6,0-4.2,0-5
						c-2.4,0.5-4.8,0.5-7.2,0.5"/>
					<path class="st12" d="M127.6,94.1c0,0-4.2,6.5,2.3,8.2"/>
					<path class="st12" d="M137.5,97.9c0,0-1.1,0.5-1.4,0.4c-1.3,0.3-1,3.2,0.6,3.1c0.6-0.6,1.1-1.5,1.1-1.5"/>
					<path class="st12" d="M135.2,99.7c0,0-0.5,0.6-1.2,0c-0.4-0.7-1.7,3,0.6,3.1c0.4-1.1,1.7-1.4,1.7-1.4"/>
					<path class="st12" d="M133.3,101c-1.8-0.1-2.9,3.9,0.7,1.4"/>
					<path class="st12" d="M132,101.6c0,0-2.1-1.6-2,0.6c0,1.4,0.6,1.7,0.6,1.7c0.1,1,1,2.4,1.7,1.1c0.3-1.3-0.2-1.8-0.2-1.8"/>
					<path class="st12" d="M121.2,115.7c0,0,0.3,2.8,2.3,0.7c1.3-2.8,5.6-10.7,6.5-13.4"/>
					<path class="st12" d="M127.1,100.7c0,0-3,0.8-1.8,4.4c1.7,1.4,3.4,1.2,3.4,1.2"/>
					<path class="st12" d="M124.9,107.8c0,0,2,0.9,2.7,0.6"/>
					<path class="st12" d="M123.4,111.3c0,0,0.9,1.6,2.2,1"/>
					<path class="st12" d="M139.3,98.9c0,0,0.3,4.2-1,5.7s0.3,4.6,0.3,4.6"/>
					<path class="st12" d="M142.5,98.7c0,0.1,0.8,6.7-0.9,8.6"/>
					<path class="st12" d="M148.9,97.3c0,0,2.5,4.8,0,7.1"/>
					<path class="st12" d="M156,98.8c0,0-1.4,4.2-3.4,5.7"/>
					<path class="st12" d="M163,99c0,0-6.6,11.3,5.6,11.3"/>
					<path class="st12" d="M154,103c0,0,6.8,0,7.2,1.3"/>
					<path class="st12" d="M156.2,110c0.1-0.1,4.9-0.5,5.7-2.3"/>
					<path class="st12" d="M161.9,112.6c0,0,2.9-1.7,2.4-2.9"/>
					<path class="st12" d="M161.7,95.7c0.3,4.4-5.1,6.9-7.2,6.5"/>
					<path class="st12" d="M161.3,98.4c0,0,3.8,1.8,7-1.1"/>
					<path class="st12" d="M167.4,95.8c0,0,1.4,2.6,3.1,2.4c2.3-0.7,3.1,0.7,3.1,0.7"/>
					<path class="st12" d="M176.9,90c0,0-0.2,6.4,8.8,7.7c10,2.8,14.7,1.3,15.3,12.5c-0.4,4.3-0.9,9.1-4,7.2"/>
					<path class="st12" d="M198.1,114.2c0,0,1.5,1.2,2.5-0.4"/>
					<path class="st12" d="M198.3,110.9c0,0,1.8,0.3,2.7-1.4"/>
					<path class="st12" d="M197.8,106.6c0,0,2,0.5,2.6-0.8"/>
					<path class="st12" d="M197.9,101.4c0,0-1.5,2.9-2,3.2"/>
					<path class="st12" d="M194,99.5c0,0,0.1,3.1-1.2,4.4"/>
					<path class="st12" d="M189.8,98.8c0,0-0.1,2.6-2.2,4.4"/>
					<path class="st12" d="M181.9,102.4c0,0,3.4-3.8,2.6-4.9"/>
					<path class="st12" d="M180.7,96c0,0-0.4,3.6-4,4.1"/>
					<path class="st12" d="M126.6,89c0,0,6.9-4.2,7.3-7.2"/>
					<path class="st12" d="M126.8,85.4c0,0,4.3-1.1,6.1-5.9"/>
					<path class="st12" d="M127,82.7c0.4,0.2,5.1-3.3,5.2-5.8"/>
					<path class="st12" d="M127.2,79.7c1.4-0.4,3.9-3.5,4.4-5.1"/>
					<path class="st12" d="M127.9,76.3c0,0,2-1.4,3.5-3.5"/>
					<path class="st12" d="M128.6,72.4c0,1.1,1.8-0.4,2.5-1.4"/>
					<line class="st12" x1="132.5" y1="84.4" x2="133.4" y2="85.5"/>
					<line class="st12" x1="130.8" y1="86.1" x2="131.3" y2="86.9"/>
					<path class="st12" d="M128.8,87.7l0.7,1"/>
					<path class="st12" d="M127.7,88.3c0,0,0,1.4,0.7,1.4"/>
					<path class="st12" d="M128,84.9c0,0,0.8,2.6,1.4,2.1"/>
					<path class="st12" d="M129.9,83.7c0,0.1,0.8,2.4,0.8,2.4"/>
					<line class="st12" x1="131.6" y1="82.2" x2="132.6" y2="84.2"/>
					<path class="st12" d="M130.4,80.2c0,0,1.1,1.6,1.4,1.4"/>
					<path class="st12" d="M128.9,81.6c0,0,0.6,2.3,1.1,2.1"/>
					<line class="st12" x1="126.9" y1="83.4" x2="128" y2="85"/>
					<path class="st12" d="M128.5,78.9c0,0,0.4,2.4,0.7,2.3"/>
					<path class="st12" d="M129.9,77.5c0,0.1,1.1,2.1,1.1,2.1"/>
					<path class="st12" d="M127.7,77.2l1.2,1.3"/>
					<path class="st12" d="M129.4,75.2l1,1.6"/>
					<path class="st12" d="M129.9,72.4c0,0,0,1.8,0.4,1.8"/>
					<line class="st12" x1="129" y1="71" x2="129.9" y2="72.4"/>
				</g>
			</g>
		</g>
		<g>
			<path class="st22" d="M177.6,59.7c0,0,9.1,76.1-49,88.5c-58-12.4-49-88.5-49-88.5s32.9-30.6,88.5-41.4
				C168.1,18.3,175.5,36.1,177.6,59.7z"/>
		</g>
	</g>
</g>
<g>
	<text transform="matrix(1 0 0 1 245.7827 164.2074)" class="st4 st25 st26">COACH:</text>
	<text transform="matrix(1 0 0 1 215.2827 178.6075)" class="st4 st25 st26">MICHAEL CHEIKA (AU)</text>
	<text transform="matrix(1 0 0 1 96.292 164.2083)" class="st4 st25 st26">AUSTRALIA</text>
	<g>
		<g>
			<path id="SVGID_7_" class="st0" d="M177.6,59.4c0,0,9.1,76.1-49,88.5c-58-12.4-49-88.5-49-88.5s32.9-30.6,88.5-41.4
				C168.1,18,175.5,35.8,177.6,59.4z"/>
		</g>
		<g>
			<g>
				<defs>
					<path id="SVGID_23_" d="M177.6,59.4c0,0,9.1,76.1-49,88.5c-58-12.4-49-88.5-49-88.5s32.9-30.6,88.5-41.4
						C168.1,18,175.5,35.8,177.6,59.4z"/>
				</defs>
				<clipPath id="SVGID_24_">
					<use xlink:href="#SVGID_23_"  style="overflow:visible;"/>
				</clipPath>
				<g class="st39">
					<g>
						<polygon class="st29" points="74.1,14.6 74.1,32.1 39.4,14.6 24.1,14.6 64.4,34.9 55.4,34.9 24.1,19.1 24.1,22 49.5,34.9 
							24.1,34.9 24.1,38.9 78.1,38.9 78.1,14.6 						"/>
						<polygon class="st29" points="24.1,50.5 24.1,54.5 49.5,54.5 24.1,67.4 24.1,74.8 64.4,54.5 73.4,54.5 33,74.8 39.4,74.8 
							74.1,57.3 74.1,74.8 78.1,74.8 78.1,50.5 						"/>
						<polygon class="st4" points="143.8,50.5 89.7,50.5 89.7,74.8 93.7,74.8 93.7,57.3 128.4,74.8 143.8,74.8 103.5,54.5 
							112.5,54.5 143.8,70.3 143.8,67.4 118.3,54.5 143.8,54.5 						"/>
						<polygon class="st29" points="143.8,14.6 103.5,34.9 94.5,34.9 134.8,14.6 128.5,14.6 93.7,32.1 93.7,14.6 89.7,14.6 
							89.7,38.9 143.8,38.9 143.8,34.9 118.4,34.9 143.8,22 						"/>
						<polygon class="st30" points="64.4,34.9 24.1,14.6 24.1,19.1 55.4,34.9 						"/>
						<polygon class="st31" points="103.5,54.5 143.8,74.8 143.8,70.3 112.5,54.5 						"/>
						<polygon class="st30" points="103.5,34.9 143.8,14.6 134.8,14.6 94.5,34.9 						"/>
						<polygon class="st30" points="64.4,54.5 24.1,74.8 33,74.8 73.4,54.5 						"/>
						<polygon class="st31" points="89.7,38.9 89.7,14.6 78.1,14.6 78.1,38.9 24.1,38.9 24.1,50.5 78.1,50.5 78.1,74.8 89.7,74.8 
							89.7,50.5 143.8,50.5 143.8,38.9 						"/>
					</g>
					<polygon class="st4" points="88.1,107.2 98.6,103.5 92.5,113 102,118.9 90.8,120 92.1,131.1 84.2,123.1 76.3,131 77.7,119.8 
						66.6,118.6 76.2,112.7 70.3,103.3 80.8,107.1 84.5,96.6 					"/>
					<polygon class="st4" points="175,74 180.1,72.2 177.2,76.8 181.7,79.7 176.3,80.2 176.9,85.6 173.1,81.7 169.3,85.5 170,80.1 
						164.6,79.5 169.2,76.7 166.4,72.1 171.5,73.9 173.3,68.8 					"/>
				</g>
			</g>
		</g>
		<g>
			<path class="st22" d="M177.6,59.4c0,0,9.1,76.1-49,88.5c-58-12.4-49-88.5-49-88.5s32.9-30.6,88.5-41.4
				C168.1,18,175.5,35.8,177.6,59.4z"/>
		</g>
	</g>
</g>
</svg>
